<svg xmlns="http://www.w3.org/2000/svg" xmlns:xlink="http://www.w3.org/1999/xlink" width="148" zoomAndPan="magnify" viewBox="0 0 110.88 149.999998" height="200" preserveAspectRatio="xMidYMid meet" version="1.0"><defs><clipPath id="0e57a7dcea"><path d="M 0 0.0820312 L 110.761719 0.0820312 L 110.761719 149.917969 L 0 149.917969 Z M 0 0.0820312 " clip-rule="nonzero"/></clipPath></defs><g clip-path="url(#0e57a7dcea)"><path fill="#946a29" d="M 55.914062 0.140625 C 54.933594 0.09375 53.933594 0.160156 52.917969 0.34375 C 47.785156 1.277344 43.675781 5.257812 42.609375 10.378906 C 42.179688 12.457031 42.3125 14.5 42.808594 16.398438 L 29.304688 16.398438 C 28.871094 16.398438 28.457031 16.480469 28.058594 16.644531 C 27.660156 16.8125 27.308594 17.046875 27 17.351562 C 26.695312 17.65625 26.460938 18.007812 26.296875 18.40625 C 26.128906 18.808594 26.046875 19.222656 26.046875 19.652344 L 26.046875 29.417969 C 26.046875 34.773438 30.460938 39.1875 35.8125 39.1875 L 74.878906 39.1875 C 80.234375 39.1875 84.644531 34.773438 84.644531 29.417969 L 84.644531 22.910156 L 94.410156 22.910156 C 99.84375 22.910156 104.175781 27.242188 104.175781 32.675781 L 104.175781 133.589844 C 104.175781 139.023438 99.84375 143.355469 94.410156 143.355469 L 16.28125 143.355469 C 10.851562 143.355469 6.515625 139.023438 6.515625 133.589844 L 6.515625 32.675781 C 6.515625 27.242188 10.851562 22.910156 16.28125 22.910156 C 16.71875 22.914062 17.136719 22.835938 17.542969 22.675781 C 17.945312 22.511719 18.304688 22.277344 18.613281 21.972656 C 18.925781 21.667969 19.164062 21.3125 19.332031 20.910156 C 19.5 20.507812 19.582031 20.089844 19.582031 19.652344 C 19.582031 19.21875 19.5 18.800781 19.332031 18.398438 C 19.164062 17.996094 18.925781 17.640625 18.613281 17.335938 C 18.304688 17.03125 17.945312 16.796875 17.542969 16.632812 C 17.136719 16.46875 16.71875 16.390625 16.28125 16.398438 C 7.332031 16.398438 0.00390625 23.722656 0.00390625 32.675781 L 0.00390625 133.589844 C 0.00390625 142.542969 7.332031 149.867188 16.28125 149.867188 L 94.410156 149.867188 C 103.363281 149.867188 110.6875 142.542969 110.6875 133.589844 L 110.6875 32.675781 C 110.6875 23.722656 103.363281 16.398438 94.410156 16.398438 L 81.390625 16.398438 C 80.957031 16.398438 80.542969 16.480469 80.144531 16.644531 C 79.746094 16.8125 79.394531 17.046875 79.085938 17.351562 C 78.78125 17.65625 78.546875 18.007812 78.382812 18.40625 C 78.214844 18.808594 78.132812 19.222656 78.132812 19.652344 L 78.132812 29.417969 C 78.132812 31.257812 76.71875 32.675781 74.878906 32.675781 L 35.8125 32.675781 C 33.976562 32.675781 32.558594 31.257812 32.558594 29.417969 L 32.558594 22.910156 L 48.085938 22.910156 C 48.730469 22.910156 49.320312 22.734375 49.863281 22.382812 C 50.402344 22.03125 50.804688 21.5625 51.066406 20.972656 C 51.328125 20.386719 51.40625 19.773438 51.304688 19.136719 C 51.203125 18.5 50.933594 17.945312 50.5 17.464844 C 49.171875 16 48.507812 14.019531 48.988281 11.699219 C 49.492188 9.28125 51.636719 7.191406 54.082031 6.746094 C 58.40625 5.957031 61.855469 9.082031 61.855469 13.144531 C 61.855469 14.832031 61.234375 16.316406 60.191406 17.464844 C 59.902344 17.785156 59.683594 18.148438 59.535156 18.554688 C 59.390625 18.964844 59.328125 19.382812 59.347656 19.8125 C 59.371094 20.246094 59.472656 20.65625 59.65625 21.046875 C 59.84375 21.4375 60.09375 21.777344 60.414062 22.070312 C 60.734375 22.359375 61.097656 22.578125 61.503906 22.722656 C 61.914062 22.867188 62.332031 22.929688 62.761719 22.910156 C 63.195312 22.886719 63.605469 22.785156 63.996094 22.597656 C 64.386719 22.414062 64.726562 22.160156 65.015625 21.839844 C 67.097656 19.542969 68.367188 16.46875 68.367188 13.144531 C 68.367188 6.179688 62.753906 0.46875 55.914062 0.140625 Z M 55.296875 52.164062 C 54.863281 52.167969 54.449219 52.257812 54.054688 52.429688 C 53.660156 52.601562 53.3125 52.839844 53.011719 53.148438 C 52.710938 53.460938 52.480469 53.8125 52.320312 54.214844 C 52.160156 54.617188 52.085938 55.03125 52.089844 55.460938 L 52.089844 62.335938 C 42.554688 63.484375 36.0625 69.359375 36.0625 77.5625 C 36.0625 85.277344 40.933594 90.253906 51.632812 92.519531 L 57.5 93.746094 C 64.671875 95.308594 67.496094 97.902344 67.496094 102.054688 C 67.496094 106.84375 62.625 110.332031 55.828125 110.332031 C 49.625 110.332031 44.761719 107.988281 43.085938 102.984375 C 42.269531 100.976562 41.039062 100.128906 39.144531 100.128906 C 36.878906 100.128906 35.394531 101.683594 35.394531 104.097656 C 35.394531 104.988281 35.585938 105.878906 35.847656 106.695312 C 37.6875 112.230469 43.53125 116.367188 52.089844 117.230469 L 52.089844 123.824219 C 52.085938 124.261719 52.164062 124.679688 52.324219 125.085938 C 52.488281 125.488281 52.722656 125.847656 53.027344 126.15625 C 53.332031 126.46875 53.6875 126.707031 54.089844 126.875 C 54.492188 127.042969 54.910156 127.128906 55.347656 127.128906 C 55.78125 127.128906 56.199219 127.042969 56.601562 126.875 C 57.003906 126.707031 57.359375 126.46875 57.664062 126.15625 C 57.96875 125.847656 58.203125 125.488281 58.367188 125.085938 C 58.53125 124.679688 58.609375 124.261719 58.601562 123.824219 L 58.601562 117.210938 C 69.269531 116.214844 75.933594 110.183594 75.933594 100.972656 C 75.933594 93.179688 71.320312 88.691406 60.0625 86.320312 L 54.234375 85.097656 C 47.285156 83.613281 44.5 81.015625 44.5 77.117188 C 44.5 72.226562 49.144531 69.183594 55.421875 69.183594 C 60.773438 69.183594 64.855469 71.292969 66.675781 76.226562 C 67.53125 78.160156 68.757812 79.089844 70.765625 79.089844 C 72.917969 79.089844 74.445312 77.675781 74.445312 75.523438 C 74.445312 74.742188 74.335938 74.113281 74.148438 73.597656 C 72.304688 67.25 66.363281 63.132812 58.601562 62.273438 L 58.601562 55.460938 C 58.609375 55.023438 58.527344 54.597656 58.363281 54.191406 C 58.195312 53.785156 57.957031 53.425781 57.644531 53.113281 C 57.335938 52.804688 56.976562 52.566406 56.566406 52.398438 C 56.160156 52.234375 55.734375 52.15625 55.296875 52.164062 Z M 55.296875 52.164062 " fill-opacity="1" fill-rule="nonzero"/><path fill="#946a29" d="M 55.914062 0.140625 C 54.933594 0.09375 53.933594 0.160156 52.917969 0.34375 C 47.785156 1.277344 43.675781 5.257812 42.609375 10.378906 C 42.179688 12.457031 42.3125 14.5 42.808594 16.398438 L 29.304688 16.398438 C 28.871094 16.398438 28.457031 16.480469 28.058594 16.644531 C 27.660156 16.8125 27.308594 17.046875 27 17.351562 C 26.695312 17.65625 26.460938 18.007812 26.296875 18.40625 C 26.128906 18.808594 26.046875 19.222656 26.046875 19.652344 L 26.046875 29.417969 C 26.046875 34.773438 30.460938 39.1875 35.8125 39.1875 L 74.878906 39.1875 C 80.234375 39.1875 84.644531 34.773438 84.644531 29.417969 L 84.644531 22.910156 L 94.410156 22.910156 C 99.84375 22.910156 104.175781 27.242188 104.175781 32.675781 L 104.175781 133.589844 C 104.175781 139.023438 99.84375 143.355469 94.410156 143.355469 L 16.28125 143.355469 C 10.851562 143.355469 6.515625 139.023438 6.515625 133.589844 L 6.515625 32.675781 C 6.515625 27.242188 10.851562 22.910156 16.28125 22.910156 C 16.71875 22.914062 17.136719 22.835938 17.542969 22.675781 C 17.945312 22.511719 18.304688 22.277344 18.613281 21.972656 C 18.925781 21.667969 19.164062 21.3125 19.332031 20.910156 C 19.5 20.507812 19.582031 20.089844 19.582031 19.652344 C 19.582031 19.21875 19.5 18.800781 19.332031 18.398438 C 19.164062 17.996094 18.925781 17.640625 18.613281 17.335938 C 18.304688 17.03125 17.945312 16.796875 17.542969 16.632812 C 17.136719 16.46875 16.71875 16.390625 16.28125 16.398438 C 7.332031 16.398438 0.00390625 23.722656 0.00390625 32.675781 L 0.00390625 133.589844 C 0.00390625 142.542969 7.332031 149.867188 16.28125 149.867188 L 94.410156 149.867188 C 103.363281 149.867188 110.6875 142.542969 110.6875 133.589844 L 110.6875 32.675781 C 110.6875 23.722656 103.363281 16.398438 94.410156 16.398438 L 81.390625 16.398438 C 80.957031 16.398438 80.542969 16.480469 80.144531 16.644531 C 79.746094 16.8125 79.394531 17.046875 79.085938 17.351562 C 78.78125 17.65625 78.546875 18.007812 78.382812 18.40625 C 78.214844 18.808594 78.132812 19.222656 78.132812 19.652344 L 78.132812 29.417969 C 78.132812 31.257812 76.71875 32.675781 74.878906 32.675781 L 35.8125 32.675781 C 33.976562 32.675781 32.558594 31.257812 32.558594 29.417969 L 32.558594 22.910156 L 48.085938 22.910156 C 48.730469 22.910156 49.320312 22.734375 49.863281 22.382812 C 50.402344 22.03125 50.804688 21.5625 51.066406 20.972656 C 51.328125 20.386719 51.40625 19.773438 51.304688 19.136719 C 51.203125 18.5 50.933594 17.945312 50.5 17.464844 C 49.171875 16 48.507812 14.019531 48.988281 11.699219 C 49.492188 9.28125 51.636719 7.191406 54.082031 6.746094 C 58.40625 5.957031 61.855469 9.082031 61.855469 13.144531 C 61.855469 14.832031 61.234375 16.316406 60.191406 17.464844 C 59.902344 17.785156 59.683594 18.148438 59.535156 18.554688 C 59.390625 18.964844 59.328125 19.382812 59.347656 19.8125 C 59.371094 20.246094 59.472656 20.65625 59.65625 21.046875 C 59.84375 21.4375 60.09375 21.777344 60.414062 22.070312 C 60.734375 22.359375 61.097656 22.578125 61.503906 22.722656 C 61.914062 22.867188 62.332031 22.929688 62.761719 22.910156 C 63.195312 22.886719 63.605469 22.785156 63.996094 22.597656 C 64.386719 22.414062 64.726562 22.160156 65.015625 21.839844 C 67.097656 19.542969 68.367188 16.46875 68.367188 13.144531 C 68.367188 6.179688 62.753906 0.46875 55.914062 0.140625 Z M 55.296875 52.164062 C 54.863281 52.167969 54.449219 52.257812 54.054688 52.429688 C 53.660156 52.601562 53.3125 52.839844 53.011719 53.148438 C 52.710938 53.460938 52.480469 53.8125 52.320312 54.214844 C 52.160156 54.617188 52.085938 55.03125 52.089844 55.460938 L 52.089844 62.335938 C 42.554688 63.484375 36.0625 69.359375 36.0625 77.5625 C 36.0625 85.277344 40.933594 90.253906 51.632812 92.519531 L 57.5 93.746094 C 64.671875 95.308594 67.496094 97.902344 67.496094 102.054688 C 67.496094 106.84375 62.625 110.332031 55.828125 110.332031 C 49.625 110.332031 44.761719 107.988281 43.085938 102.984375 C 42.269531 100.976562 41.039062 100.128906 39.144531 100.128906 C 36.878906 100.128906 35.394531 101.683594 35.394531 104.097656 C 35.394531 104.988281 35.585938 105.878906 35.847656 106.695312 C 37.6875 112.230469 43.53125 116.367188 52.089844 117.230469 L 52.089844 123.824219 C 52.085938 124.261719 52.164062 124.679688 52.324219 125.085938 C 52.488281 125.488281 52.722656 125.847656 53.027344 126.15625 C 53.332031 126.46875 53.6875 126.707031 54.089844 126.875 C 54.492188 127.042969 54.910156 127.128906 55.347656 127.128906 C 55.78125 127.128906 56.199219 127.042969 56.601562 126.875 C 57.003906 126.707031 57.359375 126.46875 57.664062 126.15625 C 57.96875 125.847656 58.203125 125.488281 58.367188 125.085938 C 58.53125 124.679688 58.609375 124.261719 58.601562 123.824219 L 58.601562 117.210938 C 69.269531 116.214844 75.933594 110.183594 75.933594 100.972656 C 75.933594 93.179688 71.320312 88.691406 60.0625 86.320312 L 54.234375 85.097656 C 47.285156 83.613281 44.5 81.015625 44.5 77.117188 C 44.5 72.226562 49.144531 69.183594 55.421875 69.183594 C 60.773438 69.183594 64.855469 71.292969 66.675781 76.226562 C 67.53125 78.160156 68.757812 79.089844 70.765625 79.089844 C 72.917969 79.089844 74.445312 77.675781 74.445312 75.523438 C 74.445312 74.742188 74.335938 74.113281 74.148438 73.597656 C 72.304688 67.25 66.363281 63.132812 58.601562 62.273438 L 58.601562 55.460938 C 58.609375 55.023438 58.527344 54.597656 58.363281 54.191406 C 58.195312 53.785156 57.957031 53.425781 57.644531 53.113281 C 57.335938 52.804688 56.976562 52.566406 56.566406 52.398438 C 56.160156 52.234375 55.734375 52.15625 55.296875 52.164062 Z M 55.296875 52.164062 " fill-opacity="1" fill-rule="nonzero"/></g></svg>