<svg xmlns="http://www.w3.org/2000/svg" xmlns:xlink="http://www.w3.org/1999/xlink" width="161" zoomAndPan="magnify" viewBox="0 0 120.75 149.999998" height="200" preserveAspectRatio="xMidYMid meet" version="1.0"><defs><clipPath id="e7e42d721d"><path d="M 0 0.15625 L 120.5 0.15625 L 120.5 149.84375 L 0 149.84375 Z M 0 0.15625 " clip-rule="nonzero"/></clipPath><clipPath id="767a4f247a"><path d="M 0 0.15625 L 120.5 0.15625 L 120.5 149.84375 L 0 149.84375 Z M 0 0.15625 " clip-rule="nonzero"/></clipPath></defs><path fill="#946a29" d="M 91.953125 86.121094 L 28.417969 86.121094 C 26.625 86.121094 25.171875 87.574219 25.171875 89.367188 C 25.171875 91.160156 26.625 92.617188 28.417969 92.617188 L 91.953125 92.617188 C 93.746094 92.617188 95.199219 91.160156 95.199219 89.367188 C 95.199219 87.574219 93.746094 86.121094 91.953125 86.121094 Z M 91.953125 86.121094 " fill-opacity="1" fill-rule="nonzero"/><path fill="#946a29" d="M 91.953125 57.507812 L 28.417969 57.507812 C 26.625 57.507812 25.171875 58.960938 25.171875 60.753906 C 25.171875 62.546875 26.625 64.003906 28.417969 64.003906 L 91.953125 64.003906 C 93.746094 64.003906 95.199219 62.546875 95.199219 60.753906 C 95.199219 58.960938 93.746094 57.507812 91.953125 57.507812 Z M 91.953125 57.507812 " fill-opacity="1" fill-rule="nonzero"/><path fill="#946a29" d="M 28.417969 35.386719 L 64.742188 35.386719 C 66.535156 35.386719 67.992188 33.933594 67.992188 32.140625 C 67.992188 30.347656 66.535156 28.890625 64.742188 28.890625 L 28.417969 28.890625 C 26.625 28.890625 25.171875 30.347656 25.171875 32.140625 C 25.171875 33.933594 26.625 35.386719 28.417969 35.386719 Z M 28.417969 35.386719 " fill-opacity="1" fill-rule="nonzero"/><path fill="#946a29" d="M 91.953125 114.734375 L 28.417969 114.734375 C 26.625 114.734375 25.171875 116.191406 25.171875 117.984375 C 25.171875 119.773438 26.625 121.230469 28.417969 121.230469 L 91.953125 121.230469 C 93.746094 121.230469 95.199219 119.773438 95.199219 117.984375 C 95.199219 116.191406 93.746094 114.734375 91.953125 114.734375 Z M 91.953125 114.734375 " fill-opacity="1" fill-rule="nonzero"/><g clip-path="url(#e7e42d721d)"><path fill="#946a29" d="M 119.414062 34.316406 L 86.328125 1.230469 C 85.722656 0.617188 84.898438 0.277344 84.035156 0.277344 L 3.257812 0.15625 L 3.253906 0.15625 C 2.394531 0.15625 1.570312 0.496094 0.957031 1.101562 C 0.347656 1.714844 0.0078125 2.542969 0.0078125 3.402344 L 0.0078125 146.597656 C 0.0078125 148.390625 1.460938 149.84375 3.253906 149.84375 L 117.117188 149.84375 C 118.910156 149.84375 120.363281 148.390625 120.363281 146.597656 L 120.363281 36.613281 C 120.363281 35.753906 120.023438 34.925781 119.414062 34.316406 Z M 86.496094 10.585938 L 110.058594 34.148438 L 89.328125 34.148438 C 87.765625 34.148438 86.496094 32.878906 86.496094 31.316406 Z M 6.503906 143.347656 L 6.503906 6.65625 L 80 6.769531 L 80 31.316406 C 80 36.460938 84.183594 40.644531 89.328125 40.644531 L 113.867188 40.644531 L 113.867188 143.347656 Z M 6.503906 143.347656 " fill-opacity="1" fill-rule="nonzero"/></g><path fill="#946a29" d="M 91.953125 86.121094 L 28.417969 86.121094 C 26.625 86.121094 25.171875 87.574219 25.171875 89.367188 C 25.171875 91.160156 26.625 92.617188 28.417969 92.617188 L 91.953125 92.617188 C 93.746094 92.617188 95.199219 91.160156 95.199219 89.367188 C 95.199219 87.574219 93.746094 86.121094 91.953125 86.121094 Z M 91.953125 86.121094 " fill-opacity="1" fill-rule="nonzero"/><path fill="#946a29" d="M 91.953125 57.507812 L 28.417969 57.507812 C 26.625 57.507812 25.171875 58.960938 25.171875 60.753906 C 25.171875 62.546875 26.625 64.003906 28.417969 64.003906 L 91.953125 64.003906 C 93.746094 64.003906 95.199219 62.546875 95.199219 60.753906 C 95.199219 58.960938 93.746094 57.507812 91.953125 57.507812 Z M 91.953125 57.507812 " fill-opacity="1" fill-rule="nonzero"/><path fill="#946a29" d="M 28.417969 35.386719 L 64.742188 35.386719 C 66.535156 35.386719 67.992188 33.933594 67.992188 32.140625 C 67.992188 30.347656 66.535156 28.890625 64.742188 28.890625 L 28.417969 28.890625 C 26.625 28.890625 25.171875 30.347656 25.171875 32.140625 C 25.171875 33.933594 26.625 35.386719 28.417969 35.386719 Z M 28.417969 35.386719 " fill-opacity="1" fill-rule="nonzero"/><path fill="#946a29" d="M 91.953125 114.734375 L 28.417969 114.734375 C 26.625 114.734375 25.171875 116.191406 25.171875 117.984375 C 25.171875 119.773438 26.625 121.230469 28.417969 121.230469 L 91.953125 121.230469 C 93.746094 121.230469 95.199219 119.773438 95.199219 117.984375 C 95.199219 116.191406 93.746094 114.734375 91.953125 114.734375 Z M 91.953125 114.734375 " fill-opacity="1" fill-rule="nonzero"/><g clip-path="url(#767a4f247a)"><path fill="#946a29" d="M 119.414062 34.316406 L 86.328125 1.230469 C 85.722656 0.617188 84.898438 0.277344 84.035156 0.277344 L 3.257812 0.15625 L 3.253906 0.15625 C 2.394531 0.15625 1.570312 0.496094 0.957031 1.101562 C 0.347656 1.714844 0.0078125 2.542969 0.0078125 3.402344 L 0.0078125 146.597656 C 0.0078125 148.390625 1.460938 149.84375 3.253906 149.84375 L 117.117188 149.84375 C 118.910156 149.84375 120.363281 148.390625 120.363281 146.597656 L 120.363281 36.613281 C 120.363281 35.753906 120.023438 34.925781 119.414062 34.316406 Z M 86.496094 10.585938 L 110.058594 34.148438 L 89.328125 34.148438 C 87.765625 34.148438 86.496094 32.878906 86.496094 31.316406 Z M 6.503906 143.347656 L 6.503906 6.65625 L 80 6.769531 L 80 31.316406 C 80 36.460938 84.183594 40.644531 89.328125 40.644531 L 113.867188 40.644531 L 113.867188 143.347656 Z M 6.503906 143.347656 " fill-opacity="1" fill-rule="nonzero"/></g></svg>