<svg xmlns="http://www.w3.org/2000/svg" xmlns:xlink="http://www.w3.org/1999/xlink" width="102" zoomAndPan="magnify" viewBox="0 0 76.5 49.499998" height="66" preserveAspectRatio="xMidYMid meet" version="1.0"><defs><clipPath id="73b755110e"><path d="M 4 27 L 72 27 L 72 48.261719 L 4 48.261719 Z M 4 27 " clip-rule="nonzero"/></clipPath><clipPath id="c1db72bdb1"><path d="M 0.136719 3 L 26 3 L 26 45 L 0.136719 45 Z M 0.136719 3 " clip-rule="nonzero"/></clipPath><clipPath id="4fea9b3ffc"><path d="M 50 3 L 75.128906 3 L 75.128906 45 L 50 45 Z M 50 3 " clip-rule="nonzero"/></clipPath><clipPath id="f3aaf8a5ef"><path d="M 0.136719 3 L 26 3 L 26 46 L 0.136719 46 Z M 0.136719 3 " clip-rule="nonzero"/></clipPath><clipPath id="c8f7cc21c6"><path d="M 4 0.769531 L 72 0.769531 L 72 29 L 4 29 Z M 4 0.769531 " clip-rule="nonzero"/></clipPath><clipPath id="14261fffac"><path d="M 50 3 L 75.128906 3 L 75.128906 46 L 50 46 Z M 50 3 " clip-rule="nonzero"/></clipPath></defs><g clip-path="url(#73b755110e)"><path fill="#d6a945" d="M 71.011719 47.226562 L 47.46875 27.679688 C 46.78125 27.109375 45.78125 27.109375 45.09375 27.679688 L 38.753906 32.945312 C 38.113281 33.476562 37.1875 33.476562 36.550781 32.945312 L 30.207031 27.679688 C 29.519531 27.109375 28.523438 27.109375 27.832031 27.679688 L 4.289062 47.226562 C 3.96875 47.496094 4.15625 48.023438 4.578125 48.023438 L 70.722656 48.023438 C 71.144531 48.023438 71.335938 47.496094 71.011719 47.226562 " fill-opacity="1" fill-rule="nonzero"/></g><g clip-path="url(#c1db72bdb1)"><path fill="#d6a945" d="M 24.894531 23.265625 L 0.882812 3.332031 C 0.589844 3.085938 0.144531 3.296875 0.144531 3.675781 L 0.144531 44.417969 C 0.144531 44.800781 0.589844 45.007812 0.882812 44.765625 L 24.894531 24.828125 C 25.382812 24.421875 25.382812 23.671875 24.894531 23.265625 " fill-opacity="1" fill-rule="nonzero"/></g><path fill="#d6a945" d="M 4.292969 0.867188 L 36.75 27.820312 C 37.273438 28.253906 38.03125 28.253906 38.550781 27.820312 L 71.011719 0.867188 C 71.335938 0.597656 71.144531 0.0703125 70.722656 0.0703125 L 4.578125 0.0703125 C 4.15625 0.0703125 3.96875 0.597656 4.292969 0.867188 " fill-opacity="1" fill-rule="nonzero"/><g clip-path="url(#4fea9b3ffc)"><path fill="#d6a945" d="M 74.417969 3.332031 L 50.410156 23.265625 C 49.921875 23.671875 49.921875 24.421875 50.410156 24.828125 L 74.417969 44.765625 C 74.710938 45.007812 75.15625 44.800781 75.15625 44.417969 L 75.15625 3.675781 C 75.15625 3.296875 74.710938 3.085938 74.417969 3.332031 " fill-opacity="1" fill-rule="nonzero"/></g><path fill="#d6a945" d="M 71.011719 47.996094 L 47.46875 28.449219 C 46.78125 27.878906 45.78125 27.878906 45.09375 28.449219 L 38.753906 33.714844 C 38.113281 34.246094 37.1875 34.246094 36.550781 33.714844 L 30.207031 28.449219 C 29.519531 27.878906 28.523438 27.878906 27.832031 28.449219 L 4.289062 47.996094 C 3.96875 48.265625 4.15625 48.792969 4.578125 48.792969 L 70.722656 48.792969 C 71.144531 48.792969 71.335938 48.265625 71.011719 47.996094 " fill-opacity="1" fill-rule="nonzero"/><g clip-path="url(#f3aaf8a5ef)"><path fill="#d6a945" d="M 24.894531 24.035156 L 0.882812 4.097656 C 0.589844 3.855469 0.144531 4.0625 0.144531 4.445312 L 0.144531 45.1875 C 0.144531 45.566406 0.589844 45.777344 0.882812 45.535156 L 24.894531 25.597656 C 25.382812 25.191406 25.382812 24.441406 24.894531 24.035156 " fill-opacity="1" fill-rule="nonzero"/></g><g clip-path="url(#c8f7cc21c6)"><path fill="#d6a945" d="M 4.292969 1.636719 L 36.75 28.585938 C 37.273438 29.019531 38.03125 29.019531 38.550781 28.585938 L 71.011719 1.636719 C 71.335938 1.367188 71.144531 0.839844 70.722656 0.839844 L 4.578125 0.839844 C 4.15625 0.839844 3.96875 1.367188 4.292969 1.636719 " fill-opacity="1" fill-rule="nonzero"/></g><g clip-path="url(#14261fffac)"><path fill="#d6a945" d="M 74.417969 4.097656 L 50.410156 24.035156 C 49.921875 24.441406 49.921875 25.191406 50.410156 25.597656 L 74.417969 45.535156 C 74.710938 45.777344 75.15625 45.570312 75.15625 45.1875 L 75.15625 4.445312 C 75.15625 4.0625 74.710938 3.855469 74.417969 4.097656 " fill-opacity="1" fill-rule="nonzero"/></g></svg>