<svg xmlns="http://www.w3.org/2000/svg" xmlns:xlink="http://www.w3.org/1999/xlink" width="190" zoomAndPan="magnify" viewBox="0 0 142.5 149.999998" height="200" preserveAspectRatio="xMidYMid meet" version="1.0"><defs><clipPath id="bd4a12eec0"><path d="M 0 108 L 26 108 L 26 149.738281 L 0 149.738281 Z M 0 108 " clip-rule="nonzero"/></clipPath><clipPath id="44de030fa3"><path d="M 38 103 L 64 103 L 64 149.738281 L 38 149.738281 Z M 38 103 " clip-rule="nonzero"/></clipPath><clipPath id="a7573e9f40"><path d="M 77 89 L 104 89 L 104 149.738281 L 77 149.738281 Z M 77 89 " clip-rule="nonzero"/></clipPath><clipPath id="dea07e3344"><path d="M 117 65 L 142 65 L 142 149.738281 L 117 149.738281 Z M 117 65 " clip-rule="nonzero"/></clipPath><clipPath id="0eb06b84dd"><path d="M 0 0.261719 L 142 0.261719 L 142 96 L 0 96 Z M 0 0.261719 " clip-rule="nonzero"/></clipPath><clipPath id="eefc5c5d65"><path d="M 0 108 L 26 108 L 26 149.738281 L 0 149.738281 Z M 0 108 " clip-rule="nonzero"/></clipPath><clipPath id="e470088486"><path d="M 38 103 L 64 103 L 64 149.738281 L 38 149.738281 Z M 38 103 " clip-rule="nonzero"/></clipPath><clipPath id="5649e375a2"><path d="M 77 89 L 104 89 L 104 149.738281 L 77 149.738281 Z M 77 89 " clip-rule="nonzero"/></clipPath><clipPath id="a182cfbb7a"><path d="M 117 65 L 142 65 L 142 149.738281 L 117 149.738281 Z M 117 65 " clip-rule="nonzero"/></clipPath><clipPath id="16f1c0b90d"><path d="M 0 0.261719 L 142 0.261719 L 142 96 L 0 96 Z M 0 0.261719 " clip-rule="nonzero"/></clipPath></defs><g clip-path="url(#bd4a12eec0)"><path fill="#946a29" d="M 0.0078125 108.925781 L 25.003906 108.925781 L 25.003906 149.738281 L 0.0078125 149.738281 Z M 0.0078125 108.925781 " fill-opacity="1" fill-rule="nonzero"/></g><g clip-path="url(#44de030fa3)"><path fill="#946a29" d="M 38.777344 149.738281 L 38.777344 103.3125 L 63.988281 103.3125 L 63.988281 149.738281 Z M 38.777344 149.738281 " fill-opacity="1" fill-rule="nonzero"/></g><g clip-path="url(#a7573e9f40)"><path fill="#946a29" d="M 77.550781 89.539062 L 103.570312 89.539062 L 103.570312 149.738281 L 77.550781 149.738281 Z M 77.550781 89.539062 " fill-opacity="1" fill-rule="nonzero"/></g><g clip-path="url(#dea07e3344)"><path fill="#946a29" d="M 117.34375 65.5625 L 141.832031 65.5625 L 141.832031 149.738281 L 117.34375 149.738281 Z M 117.34375 65.5625 " fill-opacity="1" fill-rule="nonzero"/></g><g clip-path="url(#0eb06b84dd)"><path fill="#946a29" d="M 0.0078125 94.941406 C 0.0078125 94.941406 66.328125 85.984375 111.730469 25.769531 L 96.9375 16.078125 L 141.839844 0.261719 L 141.839844 47.601562 L 129.59375 36.992188 C 129.59375 36.992188 73.976562 99.828125 0.0078125 94.941406 Z M 0.0078125 94.941406 " fill-opacity="1" fill-rule="nonzero"/></g><g clip-path="url(#eefc5c5d65)"><path fill="#946a29" d="M 0.0078125 108.925781 L 25.003906 108.925781 L 25.003906 149.738281 L 0.0078125 149.738281 Z M 0.0078125 108.925781 " fill-opacity="1" fill-rule="nonzero"/></g><g clip-path="url(#e470088486)"><path fill="#946a29" d="M 38.777344 149.738281 L 38.777344 103.3125 L 63.988281 103.3125 L 63.988281 149.738281 Z M 38.777344 149.738281 " fill-opacity="1" fill-rule="nonzero"/></g><g clip-path="url(#5649e375a2)"><path fill="#946a29" d="M 77.550781 89.539062 L 103.570312 89.539062 L 103.570312 149.738281 L 77.550781 149.738281 Z M 77.550781 89.539062 " fill-opacity="1" fill-rule="nonzero"/></g><g clip-path="url(#a182cfbb7a)"><path fill="#946a29" d="M 117.34375 65.5625 L 141.832031 65.5625 L 141.832031 149.738281 L 117.34375 149.738281 Z M 117.34375 65.5625 " fill-opacity="1" fill-rule="nonzero"/></g><g clip-path="url(#16f1c0b90d)"><path fill="#946a29" d="M 0.0078125 94.941406 C 0.0078125 94.941406 66.328125 85.984375 111.730469 25.769531 L 96.9375 16.078125 L 141.839844 0.261719 L 141.839844 47.601562 L 129.59375 36.992188 C 129.59375 36.992188 73.976562 99.828125 0.0078125 94.941406 Z M 0.0078125 94.941406 " fill-opacity="1" fill-rule="nonzero"/></g></svg>