<svg xmlns="http://www.w3.org/2000/svg" xmlns:xlink="http://www.w3.org/1999/xlink" width="192" zoomAndPan="magnify" viewBox="0 0 144 149.999998" height="200" preserveAspectRatio="xMidYMid meet" version="1.0"><defs><clipPath id="b2c2e3e687"><path d="M 0 0 L 143.25 0 L 143.25 150 L 0 150 Z M 0 0 " clip-rule="nonzero"/></clipPath></defs><g clip-path="url(#b2c2e3e687)"><path fill="#946a29" d="M 96.132812 113.640625 L 101.3125 113.640625 C 102.46875 103.988281 110.128906 96.332031 119.777344 95.171875 L 119.777344 11.714844 C 119.777344 8.144531 116.851562 5.183594 113.246094 5.183594 L 11.679688 5.183594 C 8.109375 5.183594 5.148438 8.113281 5.148438 11.714844 L 5.148438 138.285156 C 5.148438 141.855469 8.074219 144.816406 11.679688 144.816406 L 113.246094 144.816406 C 116.820312 144.816406 119.777344 141.855469 119.777344 138.285156 L 119.777344 137.253906 C 110.128906 136.0625 102.46875 128.4375 101.3125 118.785156 L 96.132812 118.785156 L 96.132812 123.742188 C 96.132812 127.699219 92.882812 130.949219 88.925781 130.949219 L 54.019531 130.949219 C 50.027344 130.949219 46.777344 127.699219 46.777344 123.742188 L 46.777344 118.785156 L 31.464844 118.785156 C 27.507812 118.785156 24.289062 115.570312 24.289062 111.613281 L 24.289062 79.601562 C 24.289062 75.644531 27.507812 72.425781 31.464844 72.425781 L 39.796875 72.425781 L 39.796875 67.472656 C 39.796875 63.480469 43.046875 60.234375 47.003906 60.234375 L 81.910156 60.234375 C 85.902344 60.234375 89.117188 63.480469 89.117188 67.472656 L 89.117188 72.425781 L 97.449219 72.425781 C 98.578125 72.425781 99.476562 71.492188 99.476562 70.398438 L 99.476562 38.417969 C 99.476562 37.292969 98.578125 36.394531 97.449219 36.394531 L 82.136719 36.394531 L 82.136719 41.316406 C 82.136719 45.304688 78.886719 48.554688 74.898438 48.554688 L 40.023438 48.554688 C 36.035156 48.554688 32.816406 45.304688 32.816406 41.316406 L 32.816406 36.359375 L 27.058594 36.359375 C 25.191406 41.636719 18.402344 43.214844 14.414062 39.222656 C 9.585938 34.398438 13.03125 26.128906 19.851562 26.128906 C 23.132812 26.128906 26.027344 28.222656 27.089844 31.246094 L 32.847656 31.246094 L 32.847656 26.289062 C 32.847656 22.300781 36.097656 19.050781 40.054688 19.050781 L 74.960938 19.050781 C 78.953125 19.050781 82.203125 22.300781 82.203125 26.289062 L 82.203125 31.246094 L 97.515625 31.246094 C 101.472656 31.246094 104.691406 34.460938 104.691406 38.417969 L 104.691406 70.429688 C 104.691406 74.390625 101.472656 77.605469 97.515625 77.605469 L 89.183594 77.605469 L 89.183594 82.5625 C 89.183594 86.550781 85.933594 89.800781 81.976562 89.800781 L 47.003906 89.800781 C 43.015625 89.800781 39.796875 86.550781 39.796875 82.5625 L 39.796875 77.605469 L 31.464844 77.605469 C 30.339844 77.605469 29.4375 78.539062 29.4375 79.632812 L 29.4375 111.644531 C 29.4375 112.769531 30.339844 113.671875 31.464844 113.671875 L 46.777344 113.671875 L 46.777344 108.71875 C 46.777344 104.726562 50.027344 101.511719 54.019531 101.511719 L 88.925781 101.511719 C 92.914062 101.511719 96.132812 104.757812 96.132812 108.71875 Z M 113.085938 118.273438 C 112.058594 117.273438 112.027344 115.667969 113.023438 114.636719 C 114.019531 113.605469 115.628906 113.574219 116.660156 114.574219 L 120.453125 118.207031 L 127.820312 108.8125 C 128.691406 107.6875 130.300781 107.496094 131.425781 108.363281 C 132.550781 109.230469 132.746094 110.839844 131.875 111.964844 L 122.835938 123.515625 C 121.871094 124.835938 120.070312 124.964844 118.976562 123.871094 Z M 122.351562 100.191406 C 113.503906 100.191406 106.296875 107.367188 106.296875 116.246094 C 106.296875 125.125 113.472656 132.300781 122.351562 132.300781 C 131.234375 132.300781 138.40625 125.125 138.40625 116.246094 C 138.40625 107.367188 131.199219 100.191406 122.351562 100.191406 Z M 124.925781 95.171875 C 135.480469 96.460938 143.554688 105.433594 143.554688 116.214844 C 143.554688 126.992188 135.480469 135.96875 124.925781 137.253906 L 124.925781 138.285156 C 124.925781 144.71875 119.683594 149.960938 113.246094 149.960938 L 11.679688 149.960938 C 5.246094 149.960938 0 144.71875 0 138.285156 L 0 11.714844 C 0 5.28125 5.246094 0.0390625 11.679688 0.0390625 L 113.246094 0.0390625 C 119.683594 0.0390625 124.925781 5.28125 124.925781 11.714844 Z M 21.621094 32.015625 C 20.042969 30.441406 17.308594 31.566406 17.308594 33.820312 C 17.308594 36.070312 20.042969 37.195312 21.621094 35.621094 C 22.585938 34.589844 22.585938 32.984375 21.621094 32.015625 Z M 59.359375 115.214844 C 57.941406 115.214844 56.785156 114.058594 56.785156 112.640625 C 56.785156 111.226562 57.941406 110.066406 59.359375 110.066406 L 74.320312 110.066406 C 75.734375 110.066406 76.894531 111.226562 76.894531 112.640625 C 76.894531 114.058594 75.734375 115.214844 74.320312 115.214844 Z M 59.359375 122.390625 C 57.941406 122.390625 56.785156 121.230469 56.785156 119.816406 C 56.785156 118.402344 57.941406 117.242188 59.359375 117.242188 L 83.585938 117.242188 C 85 117.242188 86.160156 118.402344 86.160156 119.816406 C 86.160156 121.230469 85 122.390625 83.585938 122.390625 Z M 88.925781 106.625 L 54.019531 106.625 C 52.890625 106.625 51.925781 107.558594 51.925781 108.683594 L 51.925781 123.742188 C 51.925781 124.867188 52.859375 125.800781 54.019531 125.800781 L 88.925781 125.800781 C 90.050781 125.800781 90.984375 124.867188 90.984375 123.742188 L 90.984375 108.683594 C 90.984375 107.558594 90.050781 106.625 88.925781 106.625 Z M 52.34375 74.003906 C 50.929688 74.003906 49.769531 72.84375 49.769531 71.429688 C 49.769531 70.011719 50.929688 68.855469 52.34375 68.855469 L 67.273438 68.855469 C 68.6875 68.855469 69.847656 70.011719 69.847656 71.429688 C 69.847656 72.84375 68.6875 74.003906 67.273438 74.003906 Z M 52.34375 81.175781 C 50.929688 81.175781 49.769531 80.019531 49.769531 78.601562 C 49.769531 77.1875 50.929688 76.03125 52.34375 76.03125 L 76.570312 76.03125 C 77.988281 76.03125 79.144531 77.1875 79.144531 78.601562 C 79.144531 80.019531 77.988281 81.175781 76.570312 81.175781 Z M 81.910156 65.414062 L 47.003906 65.414062 C 45.878906 65.414062 44.945312 66.34375 44.945312 67.472656 L 44.945312 82.527344 C 44.945312 83.65625 45.878906 84.621094 47.003906 84.621094 L 81.910156 84.621094 C 83.039062 84.621094 83.972656 83.6875 83.972656 82.527344 L 83.972656 67.472656 C 84.003906 66.34375 83.070312 65.414062 81.910156 65.414062 Z M 45.363281 32.789062 C 43.949219 32.789062 42.789062 31.632812 42.789062 30.214844 C 42.789062 28.800781 43.949219 27.640625 45.363281 27.640625 L 60.292969 27.640625 C 61.707031 27.640625 62.867188 28.800781 62.867188 30.214844 C 62.867188 31.632812 61.707031 32.789062 60.292969 32.789062 Z M 45.363281 39.964844 C 43.949219 39.964844 42.789062 38.804688 42.789062 37.390625 C 42.789062 35.972656 43.949219 34.816406 45.363281 34.816406 L 69.589844 34.816406 C 71.003906 34.816406 72.164062 35.972656 72.164062 37.390625 C 72.164062 38.804688 71.003906 39.964844 69.589844 39.964844 Z M 74.929688 24.199219 L 40.023438 24.199219 C 38.898438 24.199219 37.964844 25.132812 37.964844 26.257812 L 37.964844 41.316406 C 37.964844 42.441406 38.898438 43.375 40.023438 43.375 L 74.929688 43.375 C 76.054688 43.375 76.988281 42.441406 76.988281 41.316406 L 76.988281 26.257812 C 76.988281 25.132812 76.054688 24.199219 74.929688 24.199219 Z M 74.929688 24.199219 " fill-opacity="1" fill-rule="nonzero"/><path fill="#946a29" d="M 96.132812 113.640625 L 101.3125 113.640625 C 102.46875 103.988281 110.128906 96.332031 119.777344 95.171875 L 119.777344 11.714844 C 119.777344 8.144531 116.851562 5.183594 113.246094 5.183594 L 11.679688 5.183594 C 8.109375 5.183594 5.148438 8.113281 5.148438 11.714844 L 5.148438 138.285156 C 5.148438 141.855469 8.074219 144.816406 11.679688 144.816406 L 113.246094 144.816406 C 116.820312 144.816406 119.777344 141.855469 119.777344 138.285156 L 119.777344 137.253906 C 110.128906 136.0625 102.46875 128.4375 101.3125 118.785156 L 96.132812 118.785156 L 96.132812 123.742188 C 96.132812 127.699219 92.882812 130.949219 88.925781 130.949219 L 54.019531 130.949219 C 50.027344 130.949219 46.777344 127.699219 46.777344 123.742188 L 46.777344 118.785156 L 31.464844 118.785156 C 27.507812 118.785156 24.289062 115.570312 24.289062 111.613281 L 24.289062 79.601562 C 24.289062 75.644531 27.507812 72.425781 31.464844 72.425781 L 39.796875 72.425781 L 39.796875 67.472656 C 39.796875 63.480469 43.046875 60.234375 47.003906 60.234375 L 81.910156 60.234375 C 85.902344 60.234375 89.117188 63.480469 89.117188 67.472656 L 89.117188 72.425781 L 97.449219 72.425781 C 98.578125 72.425781 99.476562 71.492188 99.476562 70.398438 L 99.476562 38.417969 C 99.476562 37.292969 98.578125 36.394531 97.449219 36.394531 L 82.136719 36.394531 L 82.136719 41.316406 C 82.136719 45.304688 78.886719 48.554688 74.898438 48.554688 L 40.023438 48.554688 C 36.035156 48.554688 32.816406 45.304688 32.816406 41.316406 L 32.816406 36.359375 L 27.058594 36.359375 C 25.191406 41.636719 18.402344 43.214844 14.414062 39.222656 C 9.585938 34.398438 13.03125 26.128906 19.851562 26.128906 C 23.132812 26.128906 26.027344 28.222656 27.089844 31.246094 L 32.847656 31.246094 L 32.847656 26.289062 C 32.847656 22.300781 36.097656 19.050781 40.054688 19.050781 L 74.960938 19.050781 C 78.953125 19.050781 82.203125 22.300781 82.203125 26.289062 L 82.203125 31.246094 L 97.515625 31.246094 C 101.472656 31.246094 104.691406 34.460938 104.691406 38.417969 L 104.691406 70.429688 C 104.691406 74.390625 101.472656 77.605469 97.515625 77.605469 L 89.183594 77.605469 L 89.183594 82.5625 C 89.183594 86.550781 85.933594 89.800781 81.976562 89.800781 L 47.003906 89.800781 C 43.015625 89.800781 39.796875 86.550781 39.796875 82.5625 L 39.796875 77.605469 L 31.464844 77.605469 C 30.339844 77.605469 29.4375 78.539062 29.4375 79.632812 L 29.4375 111.644531 C 29.4375 112.769531 30.339844 113.671875 31.464844 113.671875 L 46.777344 113.671875 L 46.777344 108.71875 C 46.777344 104.726562 50.027344 101.511719 54.019531 101.511719 L 88.925781 101.511719 C 92.914062 101.511719 96.132812 104.757812 96.132812 108.71875 Z M 113.085938 118.273438 C 112.058594 117.273438 112.027344 115.667969 113.023438 114.636719 C 114.019531 113.605469 115.628906 113.574219 116.660156 114.574219 L 120.453125 118.207031 L 127.820312 108.8125 C 128.691406 107.6875 130.300781 107.496094 131.425781 108.363281 C 132.550781 109.230469 132.746094 110.839844 131.875 111.964844 L 122.835938 123.515625 C 121.871094 124.835938 120.070312 124.964844 118.976562 123.871094 Z M 122.351562 100.191406 C 113.503906 100.191406 106.296875 107.367188 106.296875 116.246094 C 106.296875 125.125 113.472656 132.300781 122.351562 132.300781 C 131.234375 132.300781 138.40625 125.125 138.40625 116.246094 C 138.40625 107.367188 131.199219 100.191406 122.351562 100.191406 Z M 124.925781 95.171875 C 135.480469 96.460938 143.554688 105.433594 143.554688 116.214844 C 143.554688 126.992188 135.480469 135.96875 124.925781 137.253906 L 124.925781 138.285156 C 124.925781 144.71875 119.683594 149.960938 113.246094 149.960938 L 11.679688 149.960938 C 5.246094 149.960938 0 144.71875 0 138.285156 L 0 11.714844 C 0 5.28125 5.246094 0.0390625 11.679688 0.0390625 L 113.246094 0.0390625 C 119.683594 0.0390625 124.925781 5.28125 124.925781 11.714844 Z M 21.621094 32.015625 C 20.042969 30.441406 17.308594 31.566406 17.308594 33.820312 C 17.308594 36.070312 20.042969 37.195312 21.621094 35.621094 C 22.585938 34.589844 22.585938 32.984375 21.621094 32.015625 Z M 59.359375 115.214844 C 57.941406 115.214844 56.785156 114.058594 56.785156 112.640625 C 56.785156 111.226562 57.941406 110.066406 59.359375 110.066406 L 74.320312 110.066406 C 75.734375 110.066406 76.894531 111.226562 76.894531 112.640625 C 76.894531 114.058594 75.734375 115.214844 74.320312 115.214844 Z M 59.359375 122.390625 C 57.941406 122.390625 56.785156 121.230469 56.785156 119.816406 C 56.785156 118.402344 57.941406 117.242188 59.359375 117.242188 L 83.585938 117.242188 C 85 117.242188 86.160156 118.402344 86.160156 119.816406 C 86.160156 121.230469 85 122.390625 83.585938 122.390625 Z M 88.925781 106.625 L 54.019531 106.625 C 52.890625 106.625 51.925781 107.558594 51.925781 108.683594 L 51.925781 123.742188 C 51.925781 124.867188 52.859375 125.800781 54.019531 125.800781 L 88.925781 125.800781 C 90.050781 125.800781 90.984375 124.867188 90.984375 123.742188 L 90.984375 108.683594 C 90.984375 107.558594 90.050781 106.625 88.925781 106.625 Z M 52.34375 74.003906 C 50.929688 74.003906 49.769531 72.84375 49.769531 71.429688 C 49.769531 70.011719 50.929688 68.855469 52.34375 68.855469 L 67.273438 68.855469 C 68.6875 68.855469 69.847656 70.011719 69.847656 71.429688 C 69.847656 72.84375 68.6875 74.003906 67.273438 74.003906 Z M 52.34375 81.175781 C 50.929688 81.175781 49.769531 80.019531 49.769531 78.601562 C 49.769531 77.1875 50.929688 76.03125 52.34375 76.03125 L 76.570312 76.03125 C 77.988281 76.03125 79.144531 77.1875 79.144531 78.601562 C 79.144531 80.019531 77.988281 81.175781 76.570312 81.175781 Z M 81.910156 65.414062 L 47.003906 65.414062 C 45.878906 65.414062 44.945312 66.34375 44.945312 67.472656 L 44.945312 82.527344 C 44.945312 83.65625 45.878906 84.621094 47.003906 84.621094 L 81.910156 84.621094 C 83.039062 84.621094 83.972656 83.6875 83.972656 82.527344 L 83.972656 67.472656 C 84.003906 66.34375 83.070312 65.414062 81.910156 65.414062 Z M 45.363281 32.789062 C 43.949219 32.789062 42.789062 31.632812 42.789062 30.214844 C 42.789062 28.800781 43.949219 27.640625 45.363281 27.640625 L 60.292969 27.640625 C 61.707031 27.640625 62.867188 28.800781 62.867188 30.214844 C 62.867188 31.632812 61.707031 32.789062 60.292969 32.789062 Z M 45.363281 39.964844 C 43.949219 39.964844 42.789062 38.804688 42.789062 37.390625 C 42.789062 35.972656 43.949219 34.816406 45.363281 34.816406 L 69.589844 34.816406 C 71.003906 34.816406 72.164062 35.972656 72.164062 37.390625 C 72.164062 38.804688 71.003906 39.964844 69.589844 39.964844 Z M 74.929688 24.199219 L 40.023438 24.199219 C 38.898438 24.199219 37.964844 25.132812 37.964844 26.257812 L 37.964844 41.316406 C 37.964844 42.441406 38.898438 43.375 40.023438 43.375 L 74.929688 43.375 C 76.054688 43.375 76.988281 42.441406 76.988281 41.316406 L 76.988281 26.257812 C 76.988281 25.132812 76.054688 24.199219 74.929688 24.199219 Z M 74.929688 24.199219 " fill-opacity="1" fill-rule="nonzero"/></g></svg>