<svg xmlns="http://www.w3.org/2000/svg" xmlns:xlink="http://www.w3.org/1999/xlink" width="218" zoomAndPan="magnify" viewBox="0 0 163.5 149.999998" height="200" preserveAspectRatio="xMidYMid meet" version="1.0"><defs><clipPath id="11a428dbab"><path d="M 0 0.230469 L 163 0.230469 L 163 149.769531 L 0 149.769531 Z M 0 0.230469 " clip-rule="nonzero"/></clipPath></defs><g clip-path="url(#11a428dbab)"><path fill="#946a29" d="M 90.429688 136.785156 L 2.628906 136.785156 C 1.175781 136.785156 0 135.609375 0 134.15625 L 0 103.082031 C 0 101.628906 1.175781 100.453125 2.628906 100.453125 L 26.933594 100.453125 L 26.933594 93.453125 C 26.933594 92 28.109375 90.824219 29.5625 90.824219 L 53.863281 90.824219 L 53.863281 80.84375 C 53.863281 79.390625 55.042969 78.214844 56.492188 78.214844 L 80.796875 78.214844 L 80.796875 64.324219 C 80.796875 62.871094 81.972656 61.695312 83.425781 61.695312 L 107.730469 61.695312 L 107.730469 42.691406 C 107.730469 41.238281 108.90625 40.0625 110.355469 40.0625 L 137.289062 40.0625 C 138.742188 40.0625 139.917969 41.238281 139.917969 42.691406 L 139.917969 77.277344 C 139.917969 78.726562 138.742188 79.90625 137.289062 79.90625 C 135.839844 79.90625 134.660156 78.726562 134.660156 77.277344 C 134.660156 77.277344 134.660156 45.316406 134.660156 45.316406 L 112.984375 45.316406 L 112.984375 78.847656 C 112.984375 80.296875 111.808594 81.476562 110.355469 81.476562 C 108.90625 81.476562 107.730469 80.296875 107.730469 78.847656 L 107.730469 66.953125 L 86.054688 66.953125 L 86.054688 131.527344 L 90.429688 131.527344 C 91.878906 131.527344 93.058594 132.707031 93.058594 134.15625 C 93.058594 135.609375 91.878906 136.785156 90.429688 136.785156 Z M 53.863281 96.082031 C 53.863281 96.082031 32.191406 96.082031 32.191406 96.082031 L 32.191406 131.527344 C 32.191406 131.527344 53.863281 131.527344 53.863281 131.527344 Z M 80.796875 83.472656 L 59.121094 83.472656 L 59.121094 131.527344 L 80.796875 131.527344 Z M 26.933594 105.710938 L 5.257812 105.710938 C 5.257812 105.710938 5.257812 131.527344 5.257812 131.527344 L 26.933594 131.527344 Z M 114.601562 7.171875 L 110.757812 8.191406 C 109.355469 8.5625 107.914062 7.726562 107.542969 6.324219 C 107.171875 4.921875 108.007812 3.480469 109.410156 3.109375 L 119.765625 0.363281 C 120.476562 0.175781 121.230469 0.292969 121.847656 0.6875 C 122.46875 1.078125 122.894531 1.714844 123.027344 2.4375 L 124.8125 12.308594 C 125.070312 13.734375 124.121094 15.105469 122.695312 15.363281 C 121.265625 15.621094 119.898438 14.671875 119.640625 13.242188 L 119.046875 9.976562 C 89.441406 55.226562 50.046875 85.746094 6.375 77.601562 C 4.949219 77.335938 4.003906 75.960938 4.273438 74.535156 C 4.539062 73.109375 5.910156 72.167969 7.335938 72.433594 C 49.078125 80.21875 86.308594 50.421875 114.601562 7.171875 Z M 135.632812 83.808594 C 137.902344 84.460938 140.085938 85.363281 142.152344 86.511719 L 146.332031 84.652344 C 147.328125 84.210938 148.492188 84.425781 149.261719 85.195312 L 155.632812 91.570312 C 156.402344 92.339844 156.617188 93.5 156.179688 94.496094 C 156.179688 94.496094 154.328125 98.675781 154.328125 98.675781 C 155.476562 100.742188 156.382812 102.929688 157.03125 105.207031 L 161.292969 106.847656 C 162.308594 107.238281 162.976562 108.214844 162.976562 109.300781 L 162.976562 118.316406 C 162.976562 119.40625 162.308594 120.378906 161.292969 120.769531 C 161.292969 120.769531 157.03125 122.414062 157.03125 122.414062 C 156.378906 124.679688 155.46875 126.867188 154.324219 128.933594 L 156.179688 133.117188 C 156.617188 134.109375 156.402344 135.269531 155.632812 136.039062 L 149.261719 142.414062 C 148.492188 143.183594 147.332031 143.398438 146.335938 142.957031 C 146.335938 142.957031 142.15625 141.105469 142.15625 141.105469 C 140.09375 142.253906 137.902344 143.160156 135.632812 143.808594 L 133.992188 148.074219 C 133.601562 149.089844 132.625 149.757812 131.539062 149.757812 L 122.523438 149.757812 C 121.433594 149.757812 120.460938 149.089844 120.070312 148.074219 C 120.070312 148.074219 118.429688 143.808594 118.429688 143.808594 C 116.152344 143.160156 113.964844 142.25 111.898438 141.105469 L 107.714844 142.957031 C 106.722656 143.398438 105.558594 143.183594 104.792969 142.414062 L 98.417969 136.039062 C 97.648438 135.269531 97.433594 134.105469 97.875 133.113281 C 97.875 133.113281 99.730469 128.933594 99.730469 128.933594 C 98.585938 126.871094 97.679688 124.683594 97.023438 122.414062 L 92.757812 120.769531 C 91.742188 120.378906 91.074219 119.40625 91.074219 118.316406 L 91.074219 109.300781 C 91.074219 108.214844 91.742188 107.238281 92.757812 106.847656 C 92.757812 106.847656 97.023438 105.207031 97.023438 105.207031 C 97.679688 102.929688 98.585938 100.742188 99.734375 98.679688 L 97.875 94.496094 C 97.433594 93.503906 97.648438 92.339844 98.417969 91.570312 L 104.792969 85.195312 C 105.5625 84.425781 106.722656 84.210938 107.71875 84.652344 C 107.71875 84.652344 111.898438 86.511719 111.898438 86.511719 C 113.964844 85.363281 116.152344 84.457031 118.421875 83.808594 L 120.070312 79.535156 C 120.460938 78.519531 121.433594 77.851562 122.523438 77.851562 L 131.539062 77.851562 C 132.625 77.851562 133.601562 78.523438 133.992188 79.539062 Z M 131.210938 86.953125 L 129.734375 83.109375 L 124.324219 83.109375 L 122.839844 86.957031 C 122.527344 87.765625 121.839844 88.367188 120.996094 88.570312 C 118.328125 89.203125 115.78125 90.257812 113.441406 91.699219 C 112.703125 92.15625 111.785156 92.214844 110.992188 91.863281 L 107.230469 90.191406 L 103.410156 94.011719 L 105.085938 97.773438 C 105.4375 98.566406 105.375 99.480469 104.921875 100.21875 C 103.476562 102.5625 102.421875 105.109375 101.777344 107.789062 C 101.578125 108.632812 100.972656 109.320312 100.167969 109.628906 L 96.332031 111.105469 L 96.332031 116.511719 L 100.167969 117.988281 C 100.972656 118.300781 101.574219 118.988281 101.777344 119.828125 C 102.421875 122.496094 103.476562 125.054688 104.917969 127.386719 C 105.375 128.125 105.4375 129.042969 105.085938 129.835938 L 103.410156 133.597656 L 107.234375 137.421875 L 110.996094 135.753906 C 111.789062 135.40625 112.699219 135.464844 113.433594 135.917969 C 115.777344 137.351562 118.324219 138.414062 121.003906 139.050781 C 121.847656 139.25 122.539062 139.855469 122.851562 140.664062 L 124.328125 144.5 L 129.734375 144.5 L 131.210938 140.664062 C 131.519531 139.855469 132.210938 139.25 133.054688 139.050781 C 135.722656 138.417969 138.277344 137.363281 140.605469 135.921875 C 141.34375 135.464844 142.261719 135.402344 143.054688 135.753906 C 143.054688 135.753906 146.816406 137.421875 146.816406 137.421875 L 150.640625 133.597656 L 148.976562 129.832031 C 148.625 129.042969 148.6875 128.132812 149.136719 127.394531 C 150.570312 125.054688 151.636719 122.507812 152.269531 119.835938 C 152.472656 118.992188 153.074219 118.300781 153.882812 117.988281 L 157.722656 116.511719 L 157.722656 111.105469 L 153.882812 109.628906 C 153.074219 109.320312 152.472656 108.628906 152.269531 107.78125 C 151.636719 105.105469 150.582031 102.558594 149.140625 100.21875 C 148.6875 99.484375 148.625 98.570312 148.976562 97.777344 C 148.976562 97.777344 150.640625 94.011719 150.640625 94.011719 L 146.820312 90.191406 L 143.058594 91.863281 C 142.265625 92.214844 141.347656 92.15625 140.609375 91.699219 C 138.269531 90.257812 135.726562 89.203125 133.054688 88.570312 C 132.210938 88.367188 131.519531 87.765625 131.210938 86.953125 Z M 127.027344 95.449219 C 137.167969 95.449219 145.390625 103.664062 145.390625 113.804688 C 145.390625 123.945312 137.167969 132.167969 127.027344 132.167969 C 116.882812 132.167969 108.671875 123.945312 108.671875 113.804688 C 108.671875 103.664062 116.882812 95.449219 127.027344 95.449219 Z M 127.027344 100.707031 C 119.789062 100.707031 113.929688 106.566406 113.929688 113.804688 C 113.929688 121.042969 119.789062 126.914062 127.027344 126.914062 C 134.265625 126.914062 140.132812 121.042969 140.132812 113.804688 C 140.132812 106.566406 134.261719 100.707031 127.027344 100.707031 Z M 51.367188 10.074219 C 49.917969 10.074219 48.738281 8.898438 48.738281 7.445312 C 48.738281 5.996094 49.917969 4.816406 51.367188 4.816406 L 83.425781 4.816406 C 84.875 4.816406 86.054688 5.996094 86.054688 7.445312 C 86.054688 8.898438 84.875 10.074219 83.425781 10.074219 Z M 29.5625 10.074219 C 28.109375 10.074219 26.933594 8.898438 26.933594 7.445312 C 26.933594 5.996094 28.109375 4.816406 29.5625 4.816406 L 39.050781 4.816406 C 40.5 4.816406 41.679688 5.996094 41.679688 7.445312 C 41.679688 8.898438 40.5 10.074219 39.050781 10.074219 Z M 65.347656 24.460938 C 63.894531 24.460938 62.71875 23.285156 62.71875 21.832031 C 62.71875 20.382812 63.894531 19.203125 65.347656 19.203125 L 83.425781 19.203125 C 84.875 19.203125 86.054688 20.382812 86.054688 21.832031 C 86.054688 23.285156 84.875 24.460938 83.425781 24.460938 Z M 29.5625 24.460938 C 28.109375 24.460938 26.933594 23.285156 26.933594 21.832031 C 26.933594 20.382812 28.109375 19.203125 29.5625 19.203125 L 55.84375 19.203125 C 57.292969 19.203125 58.472656 20.382812 58.472656 21.832031 C 58.472656 23.285156 57.292969 24.460938 55.84375 24.460938 Z M 29.5625 38.847656 C 28.109375 38.847656 26.933594 37.671875 26.933594 36.21875 C 26.933594 34.769531 28.109375 33.589844 29.5625 33.589844 L 67.585938 33.589844 C 69.035156 33.589844 70.214844 34.769531 70.214844 36.21875 C 70.214844 37.671875 69.035156 38.847656 67.585938 38.847656 Z M 29.5625 53.234375 C 28.109375 53.234375 26.933594 52.058594 26.933594 50.605469 C 26.933594 49.15625 28.109375 47.976562 29.5625 47.976562 L 56.492188 47.976562 C 57.945312 47.976562 59.121094 49.15625 59.121094 50.605469 C 59.121094 52.058594 57.945312 53.234375 56.492188 53.234375 Z M 21.4375 7.445312 L 21.4375 48.152344 C 21.4375 49.601562 20.257812 50.78125 18.808594 50.78125 L 5.339844 50.78125 C 3.890625 50.78125 2.710938 49.601562 2.710938 48.152344 L 2.710938 7.445312 C 2.710938 5.996094 3.890625 4.816406 5.339844 4.816406 L 18.808594 4.816406 C 20.257812 4.816406 21.4375 5.996094 21.4375 7.445312 Z M 16.179688 10.074219 C 16.179688 10.074219 7.96875 10.074219 7.96875 10.074219 C 7.96875 10.074219 7.96875 45.523438 7.96875 45.523438 C 7.96875 45.523438 16.179688 45.523438 16.179688 45.523438 Z M 16.179688 10.074219 " fill-opacity="1" fill-rule="evenodd"/><path fill="#946a29" d="M 90.429688 136.785156 L 2.628906 136.785156 C 1.175781 136.785156 0 135.609375 0 134.15625 L 0 103.082031 C 0 101.628906 1.175781 100.453125 2.628906 100.453125 L 26.933594 100.453125 L 26.933594 93.453125 C 26.933594 92 28.109375 90.824219 29.5625 90.824219 L 53.863281 90.824219 L 53.863281 80.84375 C 53.863281 79.390625 55.042969 78.214844 56.492188 78.214844 L 80.796875 78.214844 L 80.796875 64.324219 C 80.796875 62.871094 81.972656 61.695312 83.425781 61.695312 L 107.730469 61.695312 L 107.730469 42.691406 C 107.730469 41.238281 108.90625 40.0625 110.355469 40.0625 L 137.289062 40.0625 C 138.742188 40.0625 139.917969 41.238281 139.917969 42.691406 L 139.917969 77.277344 C 139.917969 78.726562 138.742188 79.90625 137.289062 79.90625 C 135.839844 79.90625 134.660156 78.726562 134.660156 77.277344 C 134.660156 77.277344 134.660156 45.316406 134.660156 45.316406 L 112.984375 45.316406 L 112.984375 78.847656 C 112.984375 80.296875 111.808594 81.476562 110.355469 81.476562 C 108.90625 81.476562 107.730469 80.296875 107.730469 78.847656 L 107.730469 66.953125 L 86.054688 66.953125 L 86.054688 131.527344 L 90.429688 131.527344 C 91.878906 131.527344 93.058594 132.707031 93.058594 134.15625 C 93.058594 135.609375 91.878906 136.785156 90.429688 136.785156 Z M 53.863281 96.082031 C 53.863281 96.082031 32.191406 96.082031 32.191406 96.082031 L 32.191406 131.527344 C 32.191406 131.527344 53.863281 131.527344 53.863281 131.527344 Z M 80.796875 83.472656 L 59.121094 83.472656 L 59.121094 131.527344 L 80.796875 131.527344 Z M 26.933594 105.710938 L 5.257812 105.710938 C 5.257812 105.710938 5.257812 131.527344 5.257812 131.527344 L 26.933594 131.527344 Z M 114.601562 7.171875 L 110.757812 8.191406 C 109.355469 8.5625 107.914062 7.726562 107.542969 6.324219 C 107.171875 4.921875 108.007812 3.480469 109.410156 3.109375 L 119.765625 0.363281 C 120.476562 0.175781 121.230469 0.292969 121.847656 0.6875 C 122.46875 1.078125 122.894531 1.714844 123.027344 2.4375 L 124.8125 12.308594 C 125.070312 13.734375 124.121094 15.105469 122.695312 15.363281 C 121.265625 15.621094 119.898438 14.671875 119.640625 13.242188 L 119.046875 9.976562 C 89.441406 55.226562 50.046875 85.746094 6.375 77.601562 C 4.949219 77.335938 4.003906 75.960938 4.273438 74.535156 C 4.539062 73.109375 5.910156 72.167969 7.335938 72.433594 C 49.078125 80.21875 86.308594 50.421875 114.601562 7.171875 Z M 135.632812 83.808594 C 137.902344 84.460938 140.085938 85.363281 142.152344 86.511719 L 146.332031 84.652344 C 147.328125 84.210938 148.492188 84.425781 149.261719 85.195312 L 155.632812 91.570312 C 156.402344 92.339844 156.617188 93.5 156.179688 94.496094 C 156.179688 94.496094 154.328125 98.675781 154.328125 98.675781 C 155.476562 100.742188 156.382812 102.929688 157.03125 105.207031 L 161.292969 106.847656 C 162.308594 107.238281 162.976562 108.214844 162.976562 109.300781 L 162.976562 118.316406 C 162.976562 119.40625 162.308594 120.378906 161.292969 120.769531 C 161.292969 120.769531 157.03125 122.414062 157.03125 122.414062 C 156.378906 124.679688 155.46875 126.867188 154.324219 128.933594 L 156.179688 133.117188 C 156.617188 134.109375 156.402344 135.269531 155.632812 136.039062 L 149.261719 142.414062 C 148.492188 143.183594 147.332031 143.398438 146.335938 142.957031 C 146.335938 142.957031 142.15625 141.105469 142.15625 141.105469 C 140.09375 142.253906 137.902344 143.160156 135.632812 143.808594 L 133.992188 148.074219 C 133.601562 149.089844 132.625 149.757812 131.539062 149.757812 L 122.523438 149.757812 C 121.433594 149.757812 120.460938 149.089844 120.070312 148.074219 C 120.070312 148.074219 118.429688 143.808594 118.429688 143.808594 C 116.152344 143.160156 113.964844 142.25 111.898438 141.105469 L 107.714844 142.957031 C 106.722656 143.398438 105.558594 143.183594 104.792969 142.414062 L 98.417969 136.039062 C 97.648438 135.269531 97.433594 134.105469 97.875 133.113281 C 97.875 133.113281 99.730469 128.933594 99.730469 128.933594 C 98.585938 126.871094 97.679688 124.683594 97.023438 122.414062 L 92.757812 120.769531 C 91.742188 120.378906 91.074219 119.40625 91.074219 118.316406 L 91.074219 109.300781 C 91.074219 108.214844 91.742188 107.238281 92.757812 106.847656 C 92.757812 106.847656 97.023438 105.207031 97.023438 105.207031 C 97.679688 102.929688 98.585938 100.742188 99.734375 98.679688 L 97.875 94.496094 C 97.433594 93.503906 97.648438 92.339844 98.417969 91.570312 L 104.792969 85.195312 C 105.5625 84.425781 106.722656 84.210938 107.71875 84.652344 C 107.71875 84.652344 111.898438 86.511719 111.898438 86.511719 C 113.964844 85.363281 116.152344 84.457031 118.421875 83.808594 L 120.070312 79.535156 C 120.460938 78.519531 121.433594 77.851562 122.523438 77.851562 L 131.539062 77.851562 C 132.625 77.851562 133.601562 78.523438 133.992188 79.539062 Z M 131.210938 86.953125 L 129.734375 83.109375 L 124.324219 83.109375 L 122.839844 86.957031 C 122.527344 87.765625 121.839844 88.367188 120.996094 88.570312 C 118.328125 89.203125 115.78125 90.257812 113.441406 91.699219 C 112.703125 92.15625 111.785156 92.214844 110.992188 91.863281 L 107.230469 90.191406 L 103.410156 94.011719 L 105.085938 97.773438 C 105.4375 98.566406 105.375 99.480469 104.921875 100.21875 C 103.476562 102.5625 102.421875 105.109375 101.777344 107.789062 C 101.578125 108.632812 100.972656 109.320312 100.167969 109.628906 L 96.332031 111.105469 L 96.332031 116.511719 L 100.167969 117.988281 C 100.972656 118.300781 101.574219 118.988281 101.777344 119.828125 C 102.421875 122.496094 103.476562 125.054688 104.917969 127.386719 C 105.375 128.125 105.4375 129.042969 105.085938 129.835938 L 103.410156 133.597656 L 107.234375 137.421875 L 110.996094 135.753906 C 111.789062 135.40625 112.699219 135.464844 113.433594 135.917969 C 115.777344 137.351562 118.324219 138.414062 121.003906 139.050781 C 121.847656 139.25 122.539062 139.855469 122.851562 140.664062 L 124.328125 144.5 L 129.734375 144.5 L 131.210938 140.664062 C 131.519531 139.855469 132.210938 139.25 133.054688 139.050781 C 135.722656 138.417969 138.277344 137.363281 140.605469 135.921875 C 141.34375 135.464844 142.261719 135.402344 143.054688 135.753906 C 143.054688 135.753906 146.816406 137.421875 146.816406 137.421875 L 150.640625 133.597656 L 148.976562 129.832031 C 148.625 129.042969 148.6875 128.132812 149.136719 127.394531 C 150.570312 125.054688 151.636719 122.507812 152.269531 119.835938 C 152.472656 118.992188 153.074219 118.300781 153.882812 117.988281 L 157.722656 116.511719 L 157.722656 111.105469 L 153.882812 109.628906 C 153.074219 109.320312 152.472656 108.628906 152.269531 107.78125 C 151.636719 105.105469 150.582031 102.558594 149.140625 100.21875 C 148.6875 99.484375 148.625 98.570312 148.976562 97.777344 C 148.976562 97.777344 150.640625 94.011719 150.640625 94.011719 L 146.820312 90.191406 L 143.058594 91.863281 C 142.265625 92.214844 141.347656 92.15625 140.609375 91.699219 C 138.269531 90.257812 135.726562 89.203125 133.054688 88.570312 C 132.210938 88.367188 131.519531 87.765625 131.210938 86.953125 Z M 127.027344 95.449219 C 137.167969 95.449219 145.390625 103.664062 145.390625 113.804688 C 145.390625 123.945312 137.167969 132.167969 127.027344 132.167969 C 116.882812 132.167969 108.671875 123.945312 108.671875 113.804688 C 108.671875 103.664062 116.882812 95.449219 127.027344 95.449219 Z M 127.027344 100.707031 C 119.789062 100.707031 113.929688 106.566406 113.929688 113.804688 C 113.929688 121.042969 119.789062 126.914062 127.027344 126.914062 C 134.265625 126.914062 140.132812 121.042969 140.132812 113.804688 C 140.132812 106.566406 134.261719 100.707031 127.027344 100.707031 Z M 51.367188 10.074219 C 49.917969 10.074219 48.738281 8.898438 48.738281 7.445312 C 48.738281 5.996094 49.917969 4.816406 51.367188 4.816406 L 83.425781 4.816406 C 84.875 4.816406 86.054688 5.996094 86.054688 7.445312 C 86.054688 8.898438 84.875 10.074219 83.425781 10.074219 Z M 29.5625 10.074219 C 28.109375 10.074219 26.933594 8.898438 26.933594 7.445312 C 26.933594 5.996094 28.109375 4.816406 29.5625 4.816406 L 39.050781 4.816406 C 40.5 4.816406 41.679688 5.996094 41.679688 7.445312 C 41.679688 8.898438 40.5 10.074219 39.050781 10.074219 Z M 65.347656 24.460938 C 63.894531 24.460938 62.71875 23.285156 62.71875 21.832031 C 62.71875 20.382812 63.894531 19.203125 65.347656 19.203125 L 83.425781 19.203125 C 84.875 19.203125 86.054688 20.382812 86.054688 21.832031 C 86.054688 23.285156 84.875 24.460938 83.425781 24.460938 Z M 29.5625 24.460938 C 28.109375 24.460938 26.933594 23.285156 26.933594 21.832031 C 26.933594 20.382812 28.109375 19.203125 29.5625 19.203125 L 55.84375 19.203125 C 57.292969 19.203125 58.472656 20.382812 58.472656 21.832031 C 58.472656 23.285156 57.292969 24.460938 55.84375 24.460938 Z M 29.5625 38.847656 C 28.109375 38.847656 26.933594 37.671875 26.933594 36.21875 C 26.933594 34.769531 28.109375 33.589844 29.5625 33.589844 L 67.585938 33.589844 C 69.035156 33.589844 70.214844 34.769531 70.214844 36.21875 C 70.214844 37.671875 69.035156 38.847656 67.585938 38.847656 Z M 29.5625 53.234375 C 28.109375 53.234375 26.933594 52.058594 26.933594 50.605469 C 26.933594 49.15625 28.109375 47.976562 29.5625 47.976562 L 56.492188 47.976562 C 57.945312 47.976562 59.121094 49.15625 59.121094 50.605469 C 59.121094 52.058594 57.945312 53.234375 56.492188 53.234375 Z M 21.4375 7.445312 L 21.4375 48.152344 C 21.4375 49.601562 20.257812 50.78125 18.808594 50.78125 L 5.339844 50.78125 C 3.890625 50.78125 2.710938 49.601562 2.710938 48.152344 L 2.710938 7.445312 C 2.710938 5.996094 3.890625 4.816406 5.339844 4.816406 L 18.808594 4.816406 C 20.257812 4.816406 21.4375 5.996094 21.4375 7.445312 Z M 16.179688 10.074219 C 16.179688 10.074219 7.96875 10.074219 7.96875 10.074219 C 7.96875 10.074219 7.96875 45.523438 7.96875 45.523438 C 7.96875 45.523438 16.179688 45.523438 16.179688 45.523438 Z M 16.179688 10.074219 " fill-opacity="1" fill-rule="evenodd"/></g></svg>