<svg xmlns="http://www.w3.org/2000/svg" xmlns:xlink="http://www.w3.org/1999/xlink" width="129" zoomAndPan="magnify" viewBox="0 0 96.75 96.749999" height="129" preserveAspectRatio="xMidYMid meet" version="1.0"><defs><clipPath id="8840244f18"><path d="M 0 0 L 96.5 0 L 96.5 96.5 L 0 96.5 Z M 0 0 " clip-rule="nonzero"/></clipPath></defs><g clip-path="url(#8840244f18)"><path fill="#d6a945" d="M 28.144531 0.332031 C 23.035156 0.570312 19.542969 1.390625 16.492188 2.585938 C 13.328125 3.816406 10.652344 5.464844 7.992188 8.140625 C 5.324219 10.816406 3.6875 13.496094 2.46875 16.664062 C 1.285156 19.722656 0.484375 23.214844 0.257812 28.332031 C 0.03125 33.453125 -0.0195312 35.085938 0.00390625 48.136719 C 0.0273438 61.179688 0.0859375 62.820312 0.332031 67.945312 C 0.574219 73.058594 1.390625 76.542969 2.585938 79.601562 C 3.816406 82.761719 5.464844 85.433594 8.140625 88.097656 C 10.816406 90.765625 13.496094 92.398438 16.664062 93.621094 C 19.71875 94.804688 23.214844 95.609375 28.328125 95.832031 C 33.453125 96.058594 35.085938 96.109375 48.132812 96.082031 C 61.179688 96.058594 62.816406 96 67.941406 95.753906 C 73.050781 95.511719 76.539062 94.691406 79.59375 93.5 C 82.753906 92.265625 85.433594 90.621094 88.09375 87.945312 C 90.757812 85.269531 92.394531 82.589844 93.617188 79.421875 C 94.800781 76.367188 95.605469 72.871094 95.828125 67.765625 C 96.050781 62.636719 96.105469 61 96.082031 47.953125 C 96.058594 34.910156 95.996094 33.273438 95.753906 28.148438 C 95.511719 23.035156 94.695312 19.546875 93.5 16.492188 C 92.265625 13.328125 90.621094 10.660156 87.945312 7.992188 C 85.269531 5.328125 82.589844 3.6875 79.421875 2.46875 C 76.367188 1.285156 72.871094 0.480469 67.757812 0.257812 C 62.632812 0.03125 60.996094 -0.0195312 47.949219 0.00390625 C 34.90625 0.0273438 33.269531 0.0859375 28.144531 0.332031 M 28.707031 87.179688 C 24.023438 86.976562 21.480469 86.195312 19.78125 85.546875 C 17.535156 84.675781 15.9375 83.632812 14.25 81.964844 C 12.566406 80.285156 11.523438 78.683594 10.644531 76.449219 C 9.988281 74.753906 9.195312 72.214844 8.972656 67.527344 C 8.734375 62.464844 8.679688 60.945312 8.65625 48.117188 C 8.632812 35.292969 8.679688 33.773438 8.902344 28.707031 C 9.101562 24.023438 9.882812 21.480469 10.535156 19.785156 C 11.40625 17.539062 12.441406 15.941406 14.117188 14.253906 C 15.796875 12.570312 17.394531 11.527344 19.636719 10.648438 C 21.332031 9.988281 23.871094 9.199219 28.550781 8.980469 C 33.621094 8.738281 35.136719 8.6875 47.964844 8.660156 C 60.792969 8.632812 62.3125 8.679688 67.378906 8.90625 C 72.0625 9.109375 74.605469 9.882812 76.300781 10.539062 C 78.542969 11.410156 80.148438 12.441406 81.832031 14.121094 C 83.515625 15.800781 84.5625 17.394531 85.4375 19.640625 C 86.097656 21.332031 86.886719 23.875 87.105469 28.550781 C 87.347656 33.621094 87.402344 35.140625 87.425781 47.964844 C 87.445312 60.792969 87.402344 62.3125 87.179688 67.375 C 86.976562 72.054688 86.195312 74.605469 85.546875 76.300781 C 84.675781 78.539062 83.640625 80.144531 81.957031 81.828125 C 80.277344 83.507812 78.683594 84.554688 76.441406 85.433594 C 74.75 86.09375 72.207031 86.878906 67.527344 87.101562 C 62.460938 87.34375 60.945312 87.398438 48.113281 87.417969 C 35.289062 87.441406 33.769531 87.398438 28.703125 87.175781 M 67.871094 22.363281 C 67.878906 25.546875 70.46875 28.121094 73.644531 28.113281 C 76.828125 28.109375 79.40625 25.523438 79.402344 22.339844 C 79.394531 19.15625 76.804688 16.582031 73.625 16.585938 C 70.441406 16.589844 67.863281 19.179688 67.867188 22.359375 M 23.371094 48.089844 C 23.398438 61.714844 34.464844 72.734375 48.085938 72.707031 C 61.710938 72.679688 72.734375 61.621094 72.707031 47.996094 C 72.679688 34.375 61.613281 23.351562 47.992188 23.371094 C 34.371094 23.398438 23.34375 34.464844 23.371094 48.089844 M 32.027344 48.074219 C 32.011719 39.230469 39.167969 32.042969 48.007812 32.03125 C 56.851562 32.011719 64.039062 39.167969 64.054688 48.011719 C 64.074219 56.855469 56.914062 64.042969 48.074219 64.054688 C 39.230469 64.074219 32.042969 56.914062 32.03125 48.074219 " fill-opacity="1" fill-rule="nonzero"/><path fill="#d6a945" d="M 28.144531 0.332031 C 23.035156 0.570312 19.542969 1.390625 16.492188 2.585938 C 13.328125 3.816406 10.652344 5.464844 7.992188 8.140625 C 5.324219 10.816406 3.6875 13.496094 2.46875 16.664062 C 1.285156 19.722656 0.484375 23.214844 0.257812 28.332031 C 0.03125 33.453125 -0.0195312 35.085938 0.00390625 48.136719 C 0.0273438 61.179688 0.0859375 62.820312 0.332031 67.945312 C 0.574219 73.058594 1.390625 76.542969 2.585938 79.601562 C 3.816406 82.761719 5.464844 85.433594 8.140625 88.097656 C 10.816406 90.765625 13.496094 92.398438 16.664062 93.621094 C 19.71875 94.804688 23.214844 95.609375 28.328125 95.832031 C 33.453125 96.058594 35.085938 96.109375 48.132812 96.082031 C 61.179688 96.058594 62.816406 96 67.941406 95.753906 C 73.050781 95.511719 76.539062 94.691406 79.59375 93.5 C 82.753906 92.265625 85.433594 90.621094 88.09375 87.945312 C 90.757812 85.269531 92.394531 82.589844 93.617188 79.421875 C 94.800781 76.367188 95.605469 72.871094 95.828125 67.765625 C 96.050781 62.636719 96.105469 61 96.082031 47.953125 C 96.058594 34.910156 95.996094 33.273438 95.753906 28.148438 C 95.511719 23.035156 94.695312 19.546875 93.5 16.492188 C 92.265625 13.328125 90.621094 10.660156 87.945312 7.992188 C 85.269531 5.328125 82.589844 3.6875 79.421875 2.46875 C 76.367188 1.285156 72.871094 0.480469 67.757812 0.257812 C 62.632812 0.03125 60.996094 -0.0195312 47.949219 0.00390625 C 34.90625 0.0273438 33.269531 0.0859375 28.144531 0.332031 M 28.707031 87.179688 C 24.023438 86.976562 21.480469 86.195312 19.78125 85.546875 C 17.535156 84.675781 15.9375 83.632812 14.25 81.964844 C 12.566406 80.285156 11.523438 78.683594 10.644531 76.449219 C 9.988281 74.753906 9.195312 72.214844 8.972656 67.527344 C 8.734375 62.464844 8.679688 60.945312 8.65625 48.117188 C 8.632812 35.292969 8.679688 33.773438 8.902344 28.707031 C 9.101562 24.023438 9.882812 21.480469 10.535156 19.785156 C 11.40625 17.539062 12.441406 15.941406 14.117188 14.253906 C 15.796875 12.570312 17.394531 11.527344 19.636719 10.648438 C 21.332031 9.988281 23.871094 9.199219 28.550781 8.980469 C 33.621094 8.738281 35.136719 8.6875 47.964844 8.660156 C 60.792969 8.632812 62.3125 8.679688 67.378906 8.90625 C 72.0625 9.109375 74.605469 9.882812 76.300781 10.539062 C 78.542969 11.410156 80.148438 12.441406 81.832031 14.121094 C 83.515625 15.800781 84.5625 17.394531 85.4375 19.640625 C 86.097656 21.332031 86.886719 23.875 87.105469 28.550781 C 87.347656 33.621094 87.402344 35.140625 87.425781 47.964844 C 87.445312 60.792969 87.402344 62.3125 87.179688 67.375 C 86.976562 72.054688 86.195312 74.605469 85.546875 76.300781 C 84.675781 78.539062 83.640625 80.144531 81.957031 81.828125 C 80.277344 83.507812 78.683594 84.554688 76.441406 85.433594 C 74.75 86.09375 72.207031 86.878906 67.527344 87.101562 C 62.460938 87.34375 60.945312 87.398438 48.113281 87.417969 C 35.289062 87.441406 33.769531 87.398438 28.703125 87.175781 M 67.871094 22.363281 C 67.878906 25.546875 70.46875 28.121094 73.644531 28.113281 C 76.828125 28.109375 79.40625 25.523438 79.402344 22.339844 C 79.394531 19.15625 76.804688 16.582031 73.625 16.585938 C 70.441406 16.589844 67.863281 19.179688 67.867188 22.359375 M 23.371094 48.089844 C 23.398438 61.714844 34.464844 72.734375 48.085938 72.707031 C 61.710938 72.679688 72.734375 61.621094 72.707031 47.996094 C 72.679688 34.375 61.613281 23.351562 47.992188 23.371094 C 34.371094 23.398438 23.34375 34.464844 23.371094 48.089844 M 32.027344 48.074219 C 32.011719 39.230469 39.167969 32.042969 48.007812 32.03125 C 56.851562 32.011719 64.039062 39.167969 64.054688 48.011719 C 64.074219 56.855469 56.914062 64.042969 48.074219 64.054688 C 39.230469 64.074219 32.042969 56.914062 32.03125 48.074219 " fill-opacity="1" fill-rule="nonzero"/><path fill="#d6a945" d="M 28.144531 0.332031 C 23.035156 0.570312 19.542969 1.390625 16.492188 2.585938 C 13.328125 3.816406 10.652344 5.464844 7.992188 8.140625 C 5.324219 10.816406 3.6875 13.496094 2.46875 16.664062 C 1.285156 19.722656 0.484375 23.214844 0.257812 28.332031 C 0.03125 33.453125 -0.0195312 35.085938 0.00390625 48.136719 C 0.0273438 61.179688 0.0859375 62.820312 0.332031 67.945312 C 0.574219 73.058594 1.390625 76.542969 2.585938 79.601562 C 3.816406 82.761719 5.464844 85.433594 8.140625 88.097656 C 10.816406 90.765625 13.496094 92.398438 16.664062 93.621094 C 19.71875 94.804688 23.214844 95.609375 28.328125 95.832031 C 33.453125 96.058594 35.085938 96.109375 48.132812 96.082031 C 61.179688 96.058594 62.816406 96 67.941406 95.753906 C 73.050781 95.511719 76.539062 94.691406 79.59375 93.5 C 82.753906 92.265625 85.433594 90.621094 88.09375 87.945312 C 90.757812 85.269531 92.394531 82.589844 93.617188 79.421875 C 94.800781 76.367188 95.605469 72.871094 95.828125 67.765625 C 96.050781 62.636719 96.105469 61 96.082031 47.953125 C 96.058594 34.910156 95.996094 33.273438 95.753906 28.148438 C 95.511719 23.035156 94.695312 19.546875 93.5 16.492188 C 92.265625 13.328125 90.621094 10.660156 87.945312 7.992188 C 85.269531 5.328125 82.589844 3.6875 79.421875 2.46875 C 76.367188 1.285156 72.871094 0.480469 67.757812 0.257812 C 62.632812 0.03125 60.996094 -0.0195312 47.949219 0.00390625 C 34.90625 0.0273438 33.269531 0.0859375 28.144531 0.332031 M 28.707031 87.179688 C 24.023438 86.976562 21.480469 86.195312 19.78125 85.546875 C 17.535156 84.675781 15.9375 83.632812 14.25 81.964844 C 12.566406 80.285156 11.523438 78.683594 10.644531 76.449219 C 9.988281 74.753906 9.195312 72.214844 8.972656 67.527344 C 8.734375 62.464844 8.679688 60.945312 8.65625 48.117188 C 8.632812 35.292969 8.679688 33.773438 8.902344 28.707031 C 9.101562 24.023438 9.882812 21.480469 10.535156 19.785156 C 11.40625 17.539062 12.441406 15.941406 14.117188 14.253906 C 15.796875 12.570312 17.394531 11.527344 19.636719 10.648438 C 21.332031 9.988281 23.871094 9.199219 28.550781 8.980469 C 33.621094 8.738281 35.136719 8.6875 47.964844 8.660156 C 60.792969 8.632812 62.3125 8.679688 67.378906 8.90625 C 72.0625 9.109375 74.605469 9.882812 76.300781 10.539062 C 78.542969 11.410156 80.148438 12.441406 81.832031 14.121094 C 83.515625 15.800781 84.5625 17.394531 85.4375 19.640625 C 86.097656 21.332031 86.886719 23.875 87.105469 28.550781 C 87.347656 33.621094 87.402344 35.140625 87.425781 47.964844 C 87.445312 60.792969 87.402344 62.3125 87.179688 67.375 C 86.976562 72.054688 86.195312 74.605469 85.546875 76.300781 C 84.675781 78.539062 83.640625 80.144531 81.957031 81.828125 C 80.277344 83.507812 78.683594 84.554688 76.441406 85.433594 C 74.75 86.09375 72.207031 86.878906 67.527344 87.101562 C 62.460938 87.34375 60.945312 87.398438 48.113281 87.417969 C 35.289062 87.441406 33.769531 87.398438 28.703125 87.175781 M 67.871094 22.363281 C 67.878906 25.546875 70.46875 28.121094 73.644531 28.113281 C 76.828125 28.109375 79.40625 25.523438 79.402344 22.339844 C 79.394531 19.15625 76.804688 16.582031 73.625 16.585938 C 70.441406 16.589844 67.863281 19.179688 67.867188 22.359375 M 23.371094 48.089844 C 23.398438 61.714844 34.464844 72.734375 48.085938 72.707031 C 61.710938 72.679688 72.734375 61.621094 72.707031 47.996094 C 72.679688 34.375 61.613281 23.351562 47.992188 23.371094 C 34.371094 23.398438 23.34375 34.464844 23.371094 48.089844 M 32.027344 48.074219 C 32.011719 39.230469 39.167969 32.042969 48.007812 32.03125 C 56.851562 32.011719 64.039062 39.167969 64.054688 48.011719 C 64.074219 56.855469 56.914062 64.042969 48.074219 64.054688 C 39.230469 64.074219 32.042969 56.914062 32.03125 48.074219 " fill-opacity="1" fill-rule="nonzero"/><path fill="#d6a945" d="M 28.144531 0.332031 C 23.035156 0.570312 19.542969 1.390625 16.492188 2.585938 C 13.328125 3.816406 10.652344 5.464844 7.992188 8.140625 C 5.324219 10.816406 3.6875 13.496094 2.46875 16.664062 C 1.285156 19.722656 0.484375 23.214844 0.257812 28.332031 C 0.03125 33.453125 -0.0195312 35.085938 0.00390625 48.136719 C 0.0273438 61.179688 0.0859375 62.820312 0.332031 67.945312 C 0.574219 73.058594 1.390625 76.542969 2.585938 79.601562 C 3.816406 82.761719 5.464844 85.433594 8.140625 88.097656 C 10.816406 90.765625 13.496094 92.398438 16.664062 93.621094 C 19.71875 94.804688 23.214844 95.609375 28.328125 95.832031 C 33.453125 96.058594 35.085938 96.109375 48.132812 96.082031 C 61.179688 96.058594 62.816406 96 67.941406 95.753906 C 73.050781 95.511719 76.539062 94.691406 79.59375 93.5 C 82.753906 92.265625 85.433594 90.621094 88.09375 87.945312 C 90.757812 85.269531 92.394531 82.589844 93.617188 79.421875 C 94.800781 76.367188 95.605469 72.871094 95.828125 67.765625 C 96.050781 62.636719 96.105469 61 96.082031 47.953125 C 96.058594 34.910156 95.996094 33.273438 95.753906 28.148438 C 95.511719 23.035156 94.695312 19.546875 93.5 16.492188 C 92.265625 13.328125 90.621094 10.660156 87.945312 7.992188 C 85.269531 5.328125 82.589844 3.6875 79.421875 2.46875 C 76.367188 1.285156 72.871094 0.480469 67.757812 0.257812 C 62.632812 0.03125 60.996094 -0.0195312 47.949219 0.00390625 C 34.90625 0.0273438 33.269531 0.0859375 28.144531 0.332031 M 28.707031 87.179688 C 24.023438 86.976562 21.480469 86.195312 19.78125 85.546875 C 17.535156 84.675781 15.9375 83.632812 14.25 81.964844 C 12.566406 80.285156 11.523438 78.683594 10.644531 76.449219 C 9.988281 74.753906 9.195312 72.214844 8.972656 67.527344 C 8.734375 62.464844 8.679688 60.945312 8.65625 48.117188 C 8.632812 35.292969 8.679688 33.773438 8.902344 28.707031 C 9.101562 24.023438 9.882812 21.480469 10.535156 19.785156 C 11.40625 17.539062 12.441406 15.941406 14.117188 14.253906 C 15.796875 12.570312 17.394531 11.527344 19.636719 10.648438 C 21.332031 9.988281 23.871094 9.199219 28.550781 8.980469 C 33.621094 8.738281 35.136719 8.6875 47.964844 8.660156 C 60.792969 8.632812 62.3125 8.679688 67.378906 8.90625 C 72.0625 9.109375 74.605469 9.882812 76.300781 10.539062 C 78.542969 11.410156 80.148438 12.441406 81.832031 14.121094 C 83.515625 15.800781 84.5625 17.394531 85.4375 19.640625 C 86.097656 21.332031 86.886719 23.875 87.105469 28.550781 C 87.347656 33.621094 87.402344 35.140625 87.425781 47.964844 C 87.445312 60.792969 87.402344 62.3125 87.179688 67.375 C 86.976562 72.054688 86.195312 74.605469 85.546875 76.300781 C 84.675781 78.539062 83.640625 80.144531 81.957031 81.828125 C 80.277344 83.507812 78.683594 84.554688 76.441406 85.433594 C 74.75 86.09375 72.207031 86.878906 67.527344 87.101562 C 62.460938 87.34375 60.945312 87.398438 48.113281 87.417969 C 35.289062 87.441406 33.769531 87.398438 28.703125 87.175781 M 67.871094 22.363281 C 67.878906 25.546875 70.46875 28.121094 73.644531 28.113281 C 76.828125 28.109375 79.40625 25.523438 79.402344 22.339844 C 79.394531 19.15625 76.804688 16.582031 73.625 16.585938 C 70.441406 16.589844 67.863281 19.179688 67.867188 22.359375 M 23.371094 48.089844 C 23.398438 61.714844 34.464844 72.734375 48.085938 72.707031 C 61.710938 72.679688 72.734375 61.621094 72.707031 47.996094 C 72.679688 34.375 61.613281 23.351562 47.992188 23.371094 C 34.371094 23.398438 23.34375 34.464844 23.371094 48.089844 M 32.027344 48.074219 C 32.011719 39.230469 39.167969 32.042969 48.007812 32.03125 C 56.851562 32.011719 64.039062 39.167969 64.054688 48.011719 C 64.074219 56.855469 56.914062 64.042969 48.074219 64.054688 C 39.230469 64.074219 32.042969 56.914062 32.03125 48.074219 " fill-opacity="1" fill-rule="nonzero"/></g></svg>