<svg xmlns="http://www.w3.org/2000/svg" xmlns:xlink="http://www.w3.org/1999/xlink" width="119" zoomAndPan="magnify" viewBox="0 0 89.25 77.249999" height="103" preserveAspectRatio="xMidYMid meet" version="1.0"><defs><clipPath id="aef1667b82"><path d="M 0.0585938 0 L 75 0 L 75 75 L 0.0585938 75 Z M 0.0585938 0 " clip-rule="nonzero"/></clipPath><clipPath id="68c45a6487"><path d="M 77 64 L 88.449219 64 L 88.449219 75.023438 L 77 75.023438 Z M 77 64 " clip-rule="nonzero"/></clipPath><clipPath id="9b84f7a4f6"><path d="M 0.0585938 0.769531 L 75 0.769531 L 75 75.789062 L 0.0585938 75.789062 Z M 0.0585938 0.769531 " clip-rule="nonzero"/></clipPath><clipPath id="9b7b5af8c4"><path d="M 77 65 L 88.449219 65 L 88.449219 75.789062 L 77 75.789062 Z M 77 65 " clip-rule="nonzero"/></clipPath></defs><path fill="#d6a945" d="M 83.820312 70.308594 C 84.582031 70.316406 85.207031 69.707031 85.214844 68.945312 C 85.214844 68.914062 85.214844 68.878906 85.214844 68.847656 C 85.214844 67.8125 84.589844 67.320312 83.308594 67.320312 L 81.242188 67.320312 L 81.242188 72.738281 L 82.023438 72.738281 L 82.023438 70.375 L 82.976562 70.375 L 82.996094 70.40625 L 84.484375 72.738281 L 85.316406 72.738281 L 83.71875 70.324219 L 83.824219 70.308594 Z M 82.921875 69.765625 L 82.019531 69.765625 L 82.019531 67.9375 L 83.164062 67.9375 C 83.753906 67.9375 84.425781 68.035156 84.425781 68.808594 C 84.425781 69.695312 83.746094 69.769531 82.917969 69.769531 " fill-opacity="1" fill-rule="nonzero"/><g clip-path="url(#aef1667b82)"><path fill="#d6a945" d="M 63.515625 63.523438 L 52.484375 63.523438 L 52.484375 46.238281 C 52.484375 42.121094 52.410156 36.8125 46.746094 36.8125 C 41.078125 36.8125 40.117188 41.304688 40.117188 45.941406 L 40.117188 63.523438 L 29.082031 63.523438 L 29.082031 27.980469 L 39.679688 27.980469 L 39.679688 32.839844 L 39.828125 32.839844 C 41.984375 29.144531 46.003906 26.9375 50.277344 27.097656 C 61.464844 27.097656 63.523438 34.453125 63.523438 44.023438 L 63.523438 63.523438 Z M 16.625 23.125 C 13.089844 23.125 10.222656 20.257812 10.222656 16.722656 C 10.222656 13.1875 13.085938 10.316406 16.625 10.316406 C 20.160156 10.316406 23.027344 13.183594 23.027344 16.71875 C 23.027344 20.253906 20.164062 23.125 16.625 23.125 M 22.148438 63.523438 L 11.097656 63.523438 L 11.097656 27.980469 L 22.148438 27.980469 Z M 69.019531 0.0664062 L 5.554688 0.0664062 C 2.554688 0.0351562 0.09375 2.4375 0.0585938 5.433594 L 0.0585938 69.164062 C 0.09375 72.167969 2.550781 74.570312 5.554688 74.539062 L 69.019531 74.539062 C 72.027344 74.578125 74.496094 72.171875 74.539062 69.164062 L 74.539062 5.429688 C 74.496094 2.425781 72.027344 0.0234375 69.019531 0.0625 " fill-opacity="1" fill-rule="nonzero"/></g><g clip-path="url(#68c45a6487)"><path fill="#d6a945" d="M 83.011719 64.910156 C 80.207031 64.9375 77.953125 67.230469 77.984375 70.035156 C 78.011719 72.84375 80.304688 75.09375 83.109375 75.066406 C 85.917969 75.039062 88.167969 72.742188 88.140625 69.9375 C 88.109375 67.171875 85.878906 64.933594 83.109375 64.910156 L 83.011719 64.910156 M 83.011719 74.484375 C 80.554688 74.527344 78.527344 72.566406 78.484375 70.105469 C 78.441406 67.648438 80.40625 65.621094 82.863281 65.578125 C 85.324219 65.539062 87.347656 67.5 87.390625 69.960938 L 87.390625 70.03125 C 87.445312 72.4375 85.535156 74.429688 83.128906 74.480469 L 83.011719 74.480469 " fill-opacity="1" fill-rule="nonzero"/></g><path fill="#d6a945" d="M 83.820312 71.078125 C 84.582031 71.085938 85.207031 70.476562 85.214844 69.710938 C 85.214844 69.679688 85.214844 69.648438 85.214844 69.617188 C 85.214844 68.582031 84.589844 68.089844 83.308594 68.089844 L 81.242188 68.089844 L 81.242188 73.503906 L 82.023438 73.503906 L 82.023438 71.144531 L 82.976562 71.144531 L 82.996094 71.171875 L 84.484375 73.503906 L 85.316406 73.503906 L 83.71875 71.09375 L 83.824219 71.078125 Z M 82.921875 70.535156 L 82.019531 70.535156 L 82.019531 68.703125 L 83.164062 68.703125 C 83.753906 68.703125 84.425781 68.804688 84.425781 69.574219 C 84.425781 70.464844 83.746094 70.539062 82.917969 70.539062 " fill-opacity="1" fill-rule="nonzero"/><g clip-path="url(#9b84f7a4f6)"><path fill="#d6a945" d="M 63.515625 64.289062 L 52.484375 64.289062 L 52.484375 47.007812 C 52.484375 42.890625 52.410156 37.582031 46.746094 37.582031 C 41.078125 37.582031 40.117188 42.074219 40.117188 46.710938 L 40.117188 64.289062 L 29.082031 64.289062 L 29.082031 28.75 L 39.679688 28.75 L 39.679688 33.605469 L 39.828125 33.605469 C 41.984375 29.914062 46.003906 27.707031 50.277344 27.863281 C 61.464844 27.863281 63.523438 35.222656 63.523438 44.792969 L 63.523438 64.289062 Z M 16.625 23.894531 C 13.089844 23.894531 10.222656 21.027344 10.222656 17.492188 C 10.222656 13.953125 13.085938 11.085938 16.625 11.085938 C 20.160156 11.085938 23.027344 13.949219 23.027344 17.488281 C 23.027344 21.023438 20.164062 23.894531 16.625 23.894531 M 22.148438 64.289062 L 11.097656 64.289062 L 11.097656 28.75 L 22.148438 28.75 Z M 69.019531 0.835938 L 5.554688 0.835938 C 2.554688 0.800781 0.09375 3.203125 0.0585938 6.203125 L 0.0585938 69.933594 C 0.09375 72.9375 2.550781 75.339844 5.554688 75.308594 L 69.019531 75.308594 C 72.027344 75.347656 74.496094 72.941406 74.539062 69.933594 L 74.539062 6.199219 C 74.496094 3.195312 72.027344 0.792969 69.019531 0.832031 " fill-opacity="1" fill-rule="nonzero"/></g><g clip-path="url(#9b7b5af8c4)"><path fill="#d6a945" d="M 83.011719 65.675781 C 80.207031 65.707031 77.953125 68 77.984375 70.804688 C 78.011719 73.609375 80.304688 75.863281 83.109375 75.832031 C 85.917969 75.804688 88.167969 73.511719 88.140625 70.707031 C 88.109375 67.9375 85.878906 65.703125 83.109375 65.675781 L 83.011719 65.675781 M 83.011719 75.253906 C 80.554688 75.296875 78.527344 73.332031 78.484375 70.875 C 78.441406 68.417969 80.40625 66.390625 82.863281 66.347656 C 85.324219 66.304688 87.347656 68.269531 87.390625 70.726562 L 87.390625 70.800781 C 87.445312 73.207031 85.535156 75.199219 83.128906 75.25 L 83.011719 75.25 " fill-opacity="1" fill-rule="nonzero"/></g></svg>