<svg xmlns="http://www.w3.org/2000/svg" xmlns:xlink="http://www.w3.org/1999/xlink" width="421" zoomAndPan="magnify" viewBox="0 0 315.75 155.249994" height="207" preserveAspectRatio="xMidYMid meet" version="1.0"><defs><g/><clipPath id="da73c92e55"><path d="M 27 30 L 314.867188 30 L 314.867188 120 L 27 120 Z M 27 30 " clip-rule="nonzero"/></clipPath><clipPath id="134b436aa7"><path d="M 49 74 L 250 74 L 250 89.183594 L 49 89.183594 Z M 49 74 " clip-rule="nonzero"/></clipPath><clipPath id="1655ec0191"><rect x="0" width="201" y="0" height="16"/></clipPath><clipPath id="98f1732c97"><path d="M 223.320312 0.527344 L 270 0.527344 L 270 52 L 223.320312 52 Z M 223.320312 0.527344 " clip-rule="nonzero"/></clipPath><clipPath id="9d97be197e"><path d="M 240 6 L 287.191406 6 L 287.191406 64.398438 L 240 64.398438 Z M 240 6 " clip-rule="nonzero"/></clipPath><clipPath id="b97d392c13"><path d="M 7 0.199219 L 47 0.199219 L 47 57 L 7 57 Z M 7 0.199219 " clip-rule="nonzero"/></clipPath><clipPath id="69369d23af"><rect x="0" width="48" y="0" height="77"/></clipPath><clipPath id="85c05e3b2b"><path d="M 0.148438 2 L 56 2 L 56 80 L 0.148438 80 Z M 0.148438 2 " clip-rule="nonzero"/></clipPath><clipPath id="886cf8ff64"><path d="M 3 0.00390625 L 54 0.00390625 L 54 59 L 3 59 Z M 3 0.00390625 " clip-rule="nonzero"/></clipPath><clipPath id="7f70b9f6ed"><rect x="0" width="56" y="0" height="78"/></clipPath><clipPath id="02a28a9cf2"><rect x="0" width="288" y="0" height="90"/></clipPath><clipPath id="e0f77c6dec"><path d="M 49 74 L 250 74 L 250 89.183594 L 49 89.183594 Z M 49 74 " clip-rule="nonzero"/></clipPath><clipPath id="300b312d37"><rect x="0" width="201" y="0" height="16"/></clipPath><clipPath id="720d5bc475"><path d="M 223.320312 0.527344 L 270 0.527344 L 270 52 L 223.320312 52 Z M 223.320312 0.527344 " clip-rule="nonzero"/></clipPath><clipPath id="a792f25ade"><path d="M 240 6 L 287.191406 6 L 287.191406 64.398438 L 240 64.398438 Z M 240 6 " clip-rule="nonzero"/></clipPath><clipPath id="eda3691f44"><path d="M 7 0.199219 L 47 0.199219 L 47 57 L 7 57 Z M 7 0.199219 " clip-rule="nonzero"/></clipPath><clipPath id="7eb413334c"><rect x="0" width="48" y="0" height="77"/></clipPath><clipPath id="cfcc86623c"><path d="M 0.148438 2 L 56 2 L 56 80 L 0.148438 80 Z M 0.148438 2 " clip-rule="nonzero"/></clipPath><clipPath id="83cdc9702e"><path d="M 3 0.00390625 L 54 0.00390625 L 54 59 L 3 59 Z M 3 0.00390625 " clip-rule="nonzero"/></clipPath><clipPath id="8b879ab906"><rect x="0" width="56" y="0" height="78"/></clipPath><clipPath id="dedfbee2df"><rect x="0" width="288" y="0" height="90"/></clipPath></defs><g clip-path="url(#da73c92e55)"><g transform="matrix(1, 0, 0, 1, 27, 30)"><g clip-path="url(#02a28a9cf2)"><g clip-path="url(#134b436aa7)"><g transform="matrix(1, 0, 0, 1, 49, 74)"><g clip-path="url(#1655ec0191)"><g fill="#ffffff" fill-opacity="1"><g transform="translate(0.891026, 11.778993)"><g><path d="M 1.265625 0 L 0.265625 0 L 3.125 -7.765625 L 4.09375 -7.765625 L 6.953125 0 L 5.96875 0 L 5.1875 -2.203125 L 2.046875 -2.203125 Z M 2.34375 -3.03125 L 4.890625 -3.03125 L 3.640625 -6.546875 L 3.578125 -6.546875 Z M 2.34375 -3.03125 "/></g></g></g><g fill="#ffffff" fill-opacity="1"><g transform="translate(8.111739, 11.778993)"><g><path d="M 5.1875 -5.828125 C 5.144531 -6.210938 4.960938 -6.507812 4.640625 -6.71875 C 4.316406 -6.9375 3.921875 -7.046875 3.453125 -7.046875 C 2.929688 -7.046875 2.515625 -6.921875 2.203125 -6.671875 C 1.890625 -6.429688 1.734375 -6.125 1.734375 -5.75 C 1.734375 -5.476562 1.816406 -5.253906 1.984375 -5.078125 C 2.160156 -4.910156 2.363281 -4.78125 2.59375 -4.6875 C 2.820312 -4.59375 3.035156 -4.519531 3.234375 -4.46875 L 4.015625 -4.25 C 4.222656 -4.195312 4.453125 -4.125 4.703125 -4.03125 C 4.953125 -3.9375 5.191406 -3.804688 5.421875 -3.640625 C 5.648438 -3.484375 5.835938 -3.28125 5.984375 -3.03125 C 6.128906 -2.78125 6.203125 -2.472656 6.203125 -2.109375 C 6.203125 -1.691406 6.09375 -1.3125 5.875 -0.96875 C 5.65625 -0.632812 5.335938 -0.363281 4.921875 -0.15625 C 4.503906 0.0390625 4 0.140625 3.40625 0.140625 C 2.5625 0.140625 1.894531 -0.0546875 1.40625 -0.453125 C 0.914062 -0.847656 0.648438 -1.363281 0.609375 -2 L 1.578125 -2 C 1.597656 -1.707031 1.695312 -1.460938 1.875 -1.265625 C 2.050781 -1.078125 2.269531 -0.9375 2.53125 -0.84375 C 2.800781 -0.757812 3.09375 -0.71875 3.40625 -0.71875 C 3.757812 -0.71875 4.078125 -0.773438 4.359375 -0.890625 C 4.648438 -1.003906 4.878906 -1.164062 5.046875 -1.375 C 5.210938 -1.59375 5.296875 -1.84375 5.296875 -2.125 C 5.296875 -2.382812 5.222656 -2.59375 5.078125 -2.75 C 4.929688 -2.914062 4.738281 -3.046875 4.5 -3.140625 C 4.269531 -3.242188 4.019531 -3.335938 3.75 -3.421875 L 2.796875 -3.6875 C 2.179688 -3.863281 1.695312 -4.113281 1.34375 -4.4375 C 0.988281 -4.757812 0.8125 -5.179688 0.8125 -5.703125 C 0.8125 -6.140625 0.929688 -6.519531 1.171875 -6.84375 C 1.410156 -7.175781 1.726562 -7.429688 2.125 -7.609375 C 2.53125 -7.785156 2.984375 -7.875 3.484375 -7.875 C 3.984375 -7.875 4.425781 -7.785156 4.8125 -7.609375 C 5.195312 -7.429688 5.503906 -7.1875 5.734375 -6.875 C 5.960938 -6.570312 6.085938 -6.222656 6.109375 -5.828125 Z M 5.1875 -5.828125 "/></g></g></g><g fill="#ffffff" fill-opacity="1"><g transform="translate(14.922871, 11.778993)"><g><path d="M 5.1875 -5.828125 C 5.144531 -6.210938 4.960938 -6.507812 4.640625 -6.71875 C 4.316406 -6.9375 3.921875 -7.046875 3.453125 -7.046875 C 2.929688 -7.046875 2.515625 -6.921875 2.203125 -6.671875 C 1.890625 -6.429688 1.734375 -6.125 1.734375 -5.75 C 1.734375 -5.476562 1.816406 -5.253906 1.984375 -5.078125 C 2.160156 -4.910156 2.363281 -4.78125 2.59375 -4.6875 C 2.820312 -4.59375 3.035156 -4.519531 3.234375 -4.46875 L 4.015625 -4.25 C 4.222656 -4.195312 4.453125 -4.125 4.703125 -4.03125 C 4.953125 -3.9375 5.191406 -3.804688 5.421875 -3.640625 C 5.648438 -3.484375 5.835938 -3.28125 5.984375 -3.03125 C 6.128906 -2.78125 6.203125 -2.472656 6.203125 -2.109375 C 6.203125 -1.691406 6.09375 -1.3125 5.875 -0.96875 C 5.65625 -0.632812 5.335938 -0.363281 4.921875 -0.15625 C 4.503906 0.0390625 4 0.140625 3.40625 0.140625 C 2.5625 0.140625 1.894531 -0.0546875 1.40625 -0.453125 C 0.914062 -0.847656 0.648438 -1.363281 0.609375 -2 L 1.578125 -2 C 1.597656 -1.707031 1.695312 -1.460938 1.875 -1.265625 C 2.050781 -1.078125 2.269531 -0.9375 2.53125 -0.84375 C 2.800781 -0.757812 3.09375 -0.71875 3.40625 -0.71875 C 3.757812 -0.71875 4.078125 -0.773438 4.359375 -0.890625 C 4.648438 -1.003906 4.878906 -1.164062 5.046875 -1.375 C 5.210938 -1.59375 5.296875 -1.84375 5.296875 -2.125 C 5.296875 -2.382812 5.222656 -2.59375 5.078125 -2.75 C 4.929688 -2.914062 4.738281 -3.046875 4.5 -3.140625 C 4.269531 -3.242188 4.019531 -3.335938 3.75 -3.421875 L 2.796875 -3.6875 C 2.179688 -3.863281 1.695312 -4.113281 1.34375 -4.4375 C 0.988281 -4.757812 0.8125 -5.179688 0.8125 -5.703125 C 0.8125 -6.140625 0.929688 -6.519531 1.171875 -6.84375 C 1.410156 -7.175781 1.726562 -7.429688 2.125 -7.609375 C 2.53125 -7.785156 2.984375 -7.875 3.484375 -7.875 C 3.984375 -7.875 4.425781 -7.785156 4.8125 -7.609375 C 5.195312 -7.429688 5.503906 -7.1875 5.734375 -6.875 C 5.960938 -6.570312 6.085938 -6.222656 6.109375 -5.828125 Z M 5.1875 -5.828125 "/></g></g></g><g fill="#ffffff" fill-opacity="1"><g transform="translate(21.734002, 11.778993)"><g><path d="M 0.9375 0 L 0.9375 -7.765625 L 5.625 -7.765625 L 5.625 -6.9375 L 1.875 -6.9375 L 1.875 -4.3125 L 5.390625 -4.3125 L 5.390625 -3.484375 L 1.875 -3.484375 L 1.875 -0.828125 L 5.6875 -0.828125 L 5.6875 0 Z M 0.9375 0 "/></g></g></g><g fill="#ffffff" fill-opacity="1"><g transform="translate(28.120389, 11.778993)"><g><path d="M 5.1875 -5.828125 C 5.144531 -6.210938 4.960938 -6.507812 4.640625 -6.71875 C 4.316406 -6.9375 3.921875 -7.046875 3.453125 -7.046875 C 2.929688 -7.046875 2.515625 -6.921875 2.203125 -6.671875 C 1.890625 -6.429688 1.734375 -6.125 1.734375 -5.75 C 1.734375 -5.476562 1.816406 -5.253906 1.984375 -5.078125 C 2.160156 -4.910156 2.363281 -4.78125 2.59375 -4.6875 C 2.820312 -4.59375 3.035156 -4.519531 3.234375 -4.46875 L 4.015625 -4.25 C 4.222656 -4.195312 4.453125 -4.125 4.703125 -4.03125 C 4.953125 -3.9375 5.191406 -3.804688 5.421875 -3.640625 C 5.648438 -3.484375 5.835938 -3.28125 5.984375 -3.03125 C 6.128906 -2.78125 6.203125 -2.472656 6.203125 -2.109375 C 6.203125 -1.691406 6.09375 -1.3125 5.875 -0.96875 C 5.65625 -0.632812 5.335938 -0.363281 4.921875 -0.15625 C 4.503906 0.0390625 4 0.140625 3.40625 0.140625 C 2.5625 0.140625 1.894531 -0.0546875 1.40625 -0.453125 C 0.914062 -0.847656 0.648438 -1.363281 0.609375 -2 L 1.578125 -2 C 1.597656 -1.707031 1.695312 -1.460938 1.875 -1.265625 C 2.050781 -1.078125 2.269531 -0.9375 2.53125 -0.84375 C 2.800781 -0.757812 3.09375 -0.71875 3.40625 -0.71875 C 3.757812 -0.71875 4.078125 -0.773438 4.359375 -0.890625 C 4.648438 -1.003906 4.878906 -1.164062 5.046875 -1.375 C 5.210938 -1.59375 5.296875 -1.84375 5.296875 -2.125 C 5.296875 -2.382812 5.222656 -2.59375 5.078125 -2.75 C 4.929688 -2.914062 4.738281 -3.046875 4.5 -3.140625 C 4.269531 -3.242188 4.019531 -3.335938 3.75 -3.421875 L 2.796875 -3.6875 C 2.179688 -3.863281 1.695312 -4.113281 1.34375 -4.4375 C 0.988281 -4.757812 0.8125 -5.179688 0.8125 -5.703125 C 0.8125 -6.140625 0.929688 -6.519531 1.171875 -6.84375 C 1.410156 -7.175781 1.726562 -7.429688 2.125 -7.609375 C 2.53125 -7.785156 2.984375 -7.875 3.484375 -7.875 C 3.984375 -7.875 4.425781 -7.785156 4.8125 -7.609375 C 5.195312 -7.429688 5.503906 -7.1875 5.734375 -6.875 C 5.960938 -6.570312 6.085938 -6.222656 6.109375 -5.828125 Z M 5.1875 -5.828125 "/></g></g></g><g fill="#ffffff" fill-opacity="1"><g transform="translate(34.93152, 11.778993)"><g><path d="M 5.1875 -5.828125 C 5.144531 -6.210938 4.960938 -6.507812 4.640625 -6.71875 C 4.316406 -6.9375 3.921875 -7.046875 3.453125 -7.046875 C 2.929688 -7.046875 2.515625 -6.921875 2.203125 -6.671875 C 1.890625 -6.429688 1.734375 -6.125 1.734375 -5.75 C 1.734375 -5.476562 1.816406 -5.253906 1.984375 -5.078125 C 2.160156 -4.910156 2.363281 -4.78125 2.59375 -4.6875 C 2.820312 -4.59375 3.035156 -4.519531 3.234375 -4.46875 L 4.015625 -4.25 C 4.222656 -4.195312 4.453125 -4.125 4.703125 -4.03125 C 4.953125 -3.9375 5.191406 -3.804688 5.421875 -3.640625 C 5.648438 -3.484375 5.835938 -3.28125 5.984375 -3.03125 C 6.128906 -2.78125 6.203125 -2.472656 6.203125 -2.109375 C 6.203125 -1.691406 6.09375 -1.3125 5.875 -0.96875 C 5.65625 -0.632812 5.335938 -0.363281 4.921875 -0.15625 C 4.503906 0.0390625 4 0.140625 3.40625 0.140625 C 2.5625 0.140625 1.894531 -0.0546875 1.40625 -0.453125 C 0.914062 -0.847656 0.648438 -1.363281 0.609375 -2 L 1.578125 -2 C 1.597656 -1.707031 1.695312 -1.460938 1.875 -1.265625 C 2.050781 -1.078125 2.269531 -0.9375 2.53125 -0.84375 C 2.800781 -0.757812 3.09375 -0.71875 3.40625 -0.71875 C 3.757812 -0.71875 4.078125 -0.773438 4.359375 -0.890625 C 4.648438 -1.003906 4.878906 -1.164062 5.046875 -1.375 C 5.210938 -1.59375 5.296875 -1.84375 5.296875 -2.125 C 5.296875 -2.382812 5.222656 -2.59375 5.078125 -2.75 C 4.929688 -2.914062 4.738281 -3.046875 4.5 -3.140625 C 4.269531 -3.242188 4.019531 -3.335938 3.75 -3.421875 L 2.796875 -3.6875 C 2.179688 -3.863281 1.695312 -4.113281 1.34375 -4.4375 C 0.988281 -4.757812 0.8125 -5.179688 0.8125 -5.703125 C 0.8125 -6.140625 0.929688 -6.519531 1.171875 -6.84375 C 1.410156 -7.175781 1.726562 -7.429688 2.125 -7.609375 C 2.53125 -7.785156 2.984375 -7.875 3.484375 -7.875 C 3.984375 -7.875 4.425781 -7.785156 4.8125 -7.609375 C 5.195312 -7.429688 5.503906 -7.1875 5.734375 -6.875 C 5.960938 -6.570312 6.085938 -6.222656 6.109375 -5.828125 Z M 5.1875 -5.828125 "/></g></g></g><g fill="#ffffff" fill-opacity="1"><g transform="translate(41.742652, 11.778993)"><g><path d="M 7.5 -3.890625 C 7.5 -3.066406 7.347656 -2.351562 7.046875 -1.75 C 6.753906 -1.15625 6.347656 -0.695312 5.828125 -0.375 C 5.316406 -0.0507812 4.726562 0.109375 4.0625 0.109375 C 3.40625 0.109375 2.816406 -0.0507812 2.296875 -0.375 C 1.785156 -0.695312 1.378906 -1.15625 1.078125 -1.75 C 0.785156 -2.351562 0.640625 -3.066406 0.640625 -3.890625 C 0.640625 -4.703125 0.785156 -5.40625 1.078125 -6 C 1.378906 -6.601562 1.785156 -7.066406 2.296875 -7.390625 C 2.816406 -7.710938 3.40625 -7.875 4.0625 -7.875 C 4.726562 -7.875 5.316406 -7.710938 5.828125 -7.390625 C 6.347656 -7.066406 6.753906 -6.601562 7.046875 -6 C 7.347656 -5.40625 7.5 -4.703125 7.5 -3.890625 Z M 6.59375 -3.890625 C 6.59375 -4.554688 6.476562 -5.117188 6.25 -5.578125 C 6.03125 -6.046875 5.726562 -6.398438 5.34375 -6.640625 C 4.96875 -6.878906 4.539062 -7 4.0625 -7 C 3.59375 -7 3.164062 -6.878906 2.78125 -6.640625 C 2.40625 -6.398438 2.101562 -6.046875 1.875 -5.578125 C 1.65625 -5.117188 1.546875 -4.554688 1.546875 -3.890625 C 1.546875 -3.210938 1.65625 -2.640625 1.875 -2.171875 C 2.101562 -1.710938 2.40625 -1.363281 2.78125 -1.125 C 3.164062 -0.894531 3.59375 -0.78125 4.0625 -0.78125 C 4.539062 -0.78125 4.96875 -0.894531 5.34375 -1.125 C 5.726562 -1.363281 6.03125 -1.710938 6.25 -2.171875 C 6.476562 -2.640625 6.59375 -3.210938 6.59375 -3.890625 Z M 6.59375 -3.890625 "/></g></g></g><g fill="#ffffff" fill-opacity="1"><g transform="translate(49.873552, 11.778993)"><g><path d="M 0.9375 0 L 0.9375 -7.765625 L 3.5625 -7.765625 C 4.175781 -7.765625 4.675781 -7.660156 5.0625 -7.453125 C 5.445312 -7.253906 5.734375 -6.972656 5.921875 -6.609375 C 6.109375 -6.253906 6.203125 -5.847656 6.203125 -5.390625 C 6.203125 -4.867188 6.082031 -4.414062 5.84375 -4.03125 C 5.613281 -3.65625 5.25 -3.378906 4.75 -3.203125 L 6.515625 0 L 5.421875 0 L 3.78125 -3.046875 C 3.71875 -3.035156 3.648438 -3.03125 3.578125 -3.03125 L 1.875 -3.03125 L 1.875 0 Z M 1.875 -3.890625 L 3.546875 -3.890625 C 4.171875 -3.890625 4.613281 -4.019531 4.875 -4.28125 C 5.144531 -4.550781 5.28125 -4.921875 5.28125 -5.390625 C 5.28125 -5.859375 5.144531 -6.234375 4.875 -6.515625 C 4.613281 -6.796875 4.164062 -6.9375 3.53125 -6.9375 L 1.875 -6.9375 Z M 1.875 -3.890625 "/></g></g></g><g fill="#ffffff" fill-opacity="1"><g transform="translate(56.699863, 11.778993)"><g><path d="M 1.875 -7.765625 L 1.875 0 L 0.9375 0 L 0.9375 -7.765625 Z M 1.875 -7.765625 "/></g></g></g><g fill="#ffffff" fill-opacity="1"><g transform="translate(59.521397, 11.778993)"><g><path d="M 1.265625 0 L 0.265625 0 L 3.125 -7.765625 L 4.09375 -7.765625 L 6.953125 0 L 5.96875 0 L 5.1875 -2.203125 L 2.046875 -2.203125 Z M 2.34375 -3.03125 L 4.890625 -3.03125 L 3.640625 -6.546875 L 3.578125 -6.546875 Z M 2.34375 -3.03125 "/></g></g></g><g fill="#ffffff" fill-opacity="1"><g transform="translate(66.74211, 11.778993)"><g/></g></g><g fill="#ffffff" fill-opacity="1"><g transform="translate(69.745692, 11.778993)"><g><path d="M 7.203125 -5.34375 L 6.25 -5.34375 C 6.175781 -5.707031 6.03125 -6.007812 5.8125 -6.25 C 5.601562 -6.5 5.34375 -6.6875 5.03125 -6.8125 C 4.726562 -6.9375 4.40625 -7 4.0625 -7 C 3.59375 -7 3.164062 -6.878906 2.78125 -6.640625 C 2.40625 -6.398438 2.101562 -6.046875 1.875 -5.578125 C 1.65625 -5.117188 1.546875 -4.554688 1.546875 -3.890625 C 1.546875 -3.210938 1.65625 -2.640625 1.875 -2.171875 C 2.101562 -1.710938 2.40625 -1.363281 2.78125 -1.125 C 3.164062 -0.894531 3.59375 -0.78125 4.0625 -0.78125 C 4.40625 -0.78125 4.726562 -0.84375 5.03125 -0.96875 C 5.34375 -1.09375 5.601562 -1.273438 5.8125 -1.515625 C 6.03125 -1.765625 6.175781 -2.066406 6.25 -2.421875 L 7.203125 -2.421875 C 7.097656 -1.890625 6.894531 -1.4375 6.59375 -1.0625 C 6.300781 -0.6875 5.9375 -0.394531 5.5 -0.1875 C 5.0625 0.0078125 4.582031 0.109375 4.0625 0.109375 C 3.40625 0.109375 2.816406 -0.0507812 2.296875 -0.375 C 1.785156 -0.695312 1.378906 -1.15625 1.078125 -1.75 C 0.785156 -2.351562 0.640625 -3.066406 0.640625 -3.890625 C 0.640625 -4.703125 0.785156 -5.40625 1.078125 -6 C 1.378906 -6.601562 1.785156 -7.066406 2.296875 -7.390625 C 2.816406 -7.710938 3.40625 -7.875 4.0625 -7.875 C 4.582031 -7.875 5.0625 -7.773438 5.5 -7.578125 C 5.9375 -7.378906 6.300781 -7.085938 6.59375 -6.703125 C 6.894531 -6.328125 7.097656 -5.875 7.203125 -5.34375 Z M 7.203125 -5.34375 "/></g></g></g><g fill="#ffffff" fill-opacity="1"><g transform="translate(77.512514, 11.778993)"><g><path d="M 7.5 -3.890625 C 7.5 -3.066406 7.347656 -2.351562 7.046875 -1.75 C 6.753906 -1.15625 6.347656 -0.695312 5.828125 -0.375 C 5.316406 -0.0507812 4.726562 0.109375 4.0625 0.109375 C 3.40625 0.109375 2.816406 -0.0507812 2.296875 -0.375 C 1.785156 -0.695312 1.378906 -1.15625 1.078125 -1.75 C 0.785156 -2.351562 0.640625 -3.066406 0.640625 -3.890625 C 0.640625 -4.703125 0.785156 -5.40625 1.078125 -6 C 1.378906 -6.601562 1.785156 -7.066406 2.296875 -7.390625 C 2.816406 -7.710938 3.40625 -7.875 4.0625 -7.875 C 4.726562 -7.875 5.316406 -7.710938 5.828125 -7.390625 C 6.347656 -7.066406 6.753906 -6.601562 7.046875 -6 C 7.347656 -5.40625 7.5 -4.703125 7.5 -3.890625 Z M 6.59375 -3.890625 C 6.59375 -4.554688 6.476562 -5.117188 6.25 -5.578125 C 6.03125 -6.046875 5.726562 -6.398438 5.34375 -6.640625 C 4.96875 -6.878906 4.539062 -7 4.0625 -7 C 3.59375 -7 3.164062 -6.878906 2.78125 -6.640625 C 2.40625 -6.398438 2.101562 -6.046875 1.875 -5.578125 C 1.65625 -5.117188 1.546875 -4.554688 1.546875 -3.890625 C 1.546875 -3.210938 1.65625 -2.640625 1.875 -2.171875 C 2.101562 -1.710938 2.40625 -1.363281 2.78125 -1.125 C 3.164062 -0.894531 3.59375 -0.78125 4.0625 -0.78125 C 4.539062 -0.78125 4.96875 -0.894531 5.34375 -1.125 C 5.726562 -1.363281 6.03125 -1.710938 6.25 -2.171875 C 6.476562 -2.640625 6.59375 -3.210938 6.59375 -3.890625 Z M 6.59375 -3.890625 "/></g></g></g><g fill="#ffffff" fill-opacity="1"><g transform="translate(85.643414, 11.778993)"><g><path d="M 7.109375 -7.765625 L 7.109375 0 L 6.1875 0 L 1.953125 -6.109375 L 1.875 -6.109375 L 1.875 0 L 0.9375 0 L 0.9375 -7.765625 L 1.859375 -7.765625 L 6.109375 -1.65625 L 6.171875 -1.65625 L 6.171875 -7.765625 Z M 7.109375 -7.765625 "/></g></g></g><g fill="#ffffff" fill-opacity="1"><g transform="translate(93.683291, 11.778993)"><g><path d="M 0.515625 -6.9375 L 0.515625 -7.765625 L 6.34375 -7.765625 L 6.34375 -6.9375 L 3.90625 -6.9375 L 3.90625 0 L 2.953125 0 L 2.953125 -6.9375 Z M 0.515625 -6.9375 "/></g></g></g><g fill="#ffffff" fill-opacity="1"><g transform="translate(100.539943, 11.778993)"><g><path d="M 1.265625 0 L 0.265625 0 L 3.125 -7.765625 L 4.09375 -7.765625 L 6.953125 0 L 5.96875 0 L 5.1875 -2.203125 L 2.046875 -2.203125 Z M 2.34375 -3.03125 L 4.890625 -3.03125 L 3.640625 -6.546875 L 3.578125 -6.546875 Z M 3.203125 -8.5625 L 4.125 -10.3125 L 5.171875 -10.3125 L 3.984375 -8.5625 Z M 3.203125 -8.5625 "/></g></g></g><g fill="#ffffff" fill-opacity="1"><g transform="translate(107.760656, 11.778993)"><g><path d="M 0.9375 0 L 0.9375 -7.765625 L 3.65625 -7.765625 C 4.195312 -7.765625 4.644531 -7.671875 5 -7.484375 C 5.351562 -7.304688 5.613281 -7.0625 5.78125 -6.75 C 5.957031 -6.4375 6.046875 -6.085938 6.046875 -5.703125 C 6.046875 -5.367188 5.984375 -5.09375 5.859375 -4.875 C 5.742188 -4.65625 5.585938 -4.484375 5.390625 -4.359375 C 5.203125 -4.234375 5 -4.140625 4.78125 -4.078125 L 4.78125 -4.015625 C 5.019531 -3.992188 5.257812 -3.90625 5.5 -3.75 C 5.738281 -3.601562 5.9375 -3.382812 6.09375 -3.09375 C 6.257812 -2.8125 6.34375 -2.46875 6.34375 -2.0625 C 6.34375 -1.675781 6.253906 -1.328125 6.078125 -1.015625 C 5.898438 -0.703125 5.617188 -0.453125 5.234375 -0.265625 C 4.859375 -0.0859375 4.363281 0 3.75 0 Z M 1.875 -0.828125 L 3.75 -0.828125 C 4.363281 -0.828125 4.800781 -0.945312 5.0625 -1.1875 C 5.320312 -1.425781 5.453125 -1.71875 5.453125 -2.0625 C 5.453125 -2.320312 5.382812 -2.5625 5.25 -2.78125 C 5.113281 -3.007812 4.921875 -3.191406 4.671875 -3.328125 C 4.421875 -3.460938 4.128906 -3.53125 3.796875 -3.53125 L 1.875 -3.53125 Z M 1.875 -4.359375 L 3.625 -4.359375 C 4.050781 -4.359375 4.410156 -4.476562 4.703125 -4.71875 C 4.992188 -4.96875 5.140625 -5.296875 5.140625 -5.703125 C 5.140625 -6.046875 5.019531 -6.335938 4.78125 -6.578125 C 4.550781 -6.816406 4.175781 -6.9375 3.65625 -6.9375 L 1.875 -6.9375 Z M 1.875 -4.359375 "/></g></g></g><g fill="#ffffff" fill-opacity="1"><g transform="translate(114.708314, 11.778993)"><g><path d="M 1.875 -7.765625 L 1.875 0 L 0.9375 0 L 0.9375 -7.765625 Z M 1.875 -7.765625 "/></g></g></g><g fill="#ffffff" fill-opacity="1"><g transform="translate(117.529848, 11.778993)"><g><path d="M 0.9375 0 L 0.9375 -7.765625 L 1.875 -7.765625 L 1.875 -0.828125 L 5.5 -0.828125 L 5.5 0 Z M 0.9375 0 "/></g></g></g><g fill="#ffffff" fill-opacity="1"><g transform="translate(123.536995, 11.778993)"><g/></g></g><g fill="#ffffff" fill-opacity="1"><g transform="translate(126.540578, 11.778993)"><g><path d="M 0.9375 0 L 0.9375 -7.765625 L 5.625 -7.765625 L 5.625 -6.9375 L 1.875 -6.9375 L 1.875 -4.3125 L 5.390625 -4.3125 L 5.390625 -3.484375 L 1.875 -3.484375 L 1.875 -0.828125 L 5.6875 -0.828125 L 5.6875 0 Z M 0.9375 0 "/></g></g></g><g fill="#ffffff" fill-opacity="1"><g transform="translate(132.926965, 11.778993)"><g/></g></g><g fill="#ffffff" fill-opacity="1"><g transform="translate(135.930547, 11.778993)"><g><path d="M 0.515625 -6.9375 L 0.515625 -7.765625 L 6.34375 -7.765625 L 6.34375 -6.9375 L 3.90625 -6.9375 L 3.90625 0 L 2.953125 0 L 2.953125 -6.9375 Z M 0.515625 -6.9375 "/></g></g></g><g fill="#ffffff" fill-opacity="1"><g transform="translate(142.787199, 11.778993)"><g><path d="M 0.9375 0 L 0.9375 -7.765625 L 3.5625 -7.765625 C 4.175781 -7.765625 4.675781 -7.660156 5.0625 -7.453125 C 5.445312 -7.253906 5.734375 -6.972656 5.921875 -6.609375 C 6.109375 -6.253906 6.203125 -5.847656 6.203125 -5.390625 C 6.203125 -4.867188 6.082031 -4.414062 5.84375 -4.03125 C 5.613281 -3.65625 5.25 -3.378906 4.75 -3.203125 L 6.515625 0 L 5.421875 0 L 3.78125 -3.046875 C 3.71875 -3.035156 3.648438 -3.03125 3.578125 -3.03125 L 1.875 -3.03125 L 1.875 0 Z M 1.875 -3.890625 L 3.546875 -3.890625 C 4.171875 -3.890625 4.613281 -4.019531 4.875 -4.28125 C 5.144531 -4.550781 5.28125 -4.921875 5.28125 -5.390625 C 5.28125 -5.859375 5.144531 -6.234375 4.875 -6.515625 C 4.613281 -6.796875 4.164062 -6.9375 3.53125 -6.9375 L 1.875 -6.9375 Z M 1.875 -3.890625 "/></g></g></g><g fill="#ffffff" fill-opacity="1"><g transform="translate(149.613509, 11.778993)"><g><path d="M 1.875 -7.765625 L 1.875 0 L 0.9375 0 L 0.9375 -7.765625 Z M 1.875 -7.765625 "/></g></g></g><g fill="#ffffff" fill-opacity="1"><g transform="translate(152.435044, 11.778993)"><g><path d="M 0.9375 0 L 0.9375 -7.765625 L 3.65625 -7.765625 C 4.195312 -7.765625 4.644531 -7.671875 5 -7.484375 C 5.351562 -7.304688 5.613281 -7.0625 5.78125 -6.75 C 5.957031 -6.4375 6.046875 -6.085938 6.046875 -5.703125 C 6.046875 -5.367188 5.984375 -5.09375 5.859375 -4.875 C 5.742188 -4.65625 5.585938 -4.484375 5.390625 -4.359375 C 5.203125 -4.234375 5 -4.140625 4.78125 -4.078125 L 4.78125 -4.015625 C 5.019531 -3.992188 5.257812 -3.90625 5.5 -3.75 C 5.738281 -3.601562 5.9375 -3.382812 6.09375 -3.09375 C 6.257812 -2.8125 6.34375 -2.46875 6.34375 -2.0625 C 6.34375 -1.675781 6.253906 -1.328125 6.078125 -1.015625 C 5.898438 -0.703125 5.617188 -0.453125 5.234375 -0.265625 C 4.859375 -0.0859375 4.363281 0 3.75 0 Z M 1.875 -0.828125 L 3.75 -0.828125 C 4.363281 -0.828125 4.800781 -0.945312 5.0625 -1.1875 C 5.320312 -1.425781 5.453125 -1.71875 5.453125 -2.0625 C 5.453125 -2.320312 5.382812 -2.5625 5.25 -2.78125 C 5.113281 -3.007812 4.921875 -3.191406 4.671875 -3.328125 C 4.421875 -3.460938 4.128906 -3.53125 3.796875 -3.53125 L 1.875 -3.53125 Z M 1.875 -4.359375 L 3.625 -4.359375 C 4.050781 -4.359375 4.410156 -4.476562 4.703125 -4.71875 C 4.992188 -4.96875 5.140625 -5.296875 5.140625 -5.703125 C 5.140625 -6.046875 5.019531 -6.335938 4.78125 -6.578125 C 4.550781 -6.816406 4.175781 -6.9375 3.65625 -6.9375 L 1.875 -6.9375 Z M 1.875 -4.359375 "/></g></g></g><g fill="#ffffff" fill-opacity="1"><g transform="translate(159.382702, 11.778993)"><g><path d="M 6.046875 -7.765625 L 6.984375 -7.765625 L 6.984375 -2.625 C 6.984375 -2.039062 6.84375 -1.539062 6.5625 -1.125 C 6.289062 -0.71875 5.925781 -0.40625 5.46875 -0.1875 C 5.007812 0.03125 4.507812 0.140625 3.96875 0.140625 C 3.414062 0.140625 2.910156 0.03125 2.453125 -0.1875 C 1.992188 -0.40625 1.625 -0.71875 1.34375 -1.125 C 1.070312 -1.539062 0.9375 -2.039062 0.9375 -2.625 L 0.9375 -7.765625 L 1.875 -7.765625 L 1.875 -2.625 C 1.875 -2.21875 1.96875 -1.875 2.15625 -1.59375 C 2.351562 -1.320312 2.609375 -1.113281 2.921875 -0.96875 C 3.242188 -0.820312 3.59375 -0.75 3.96875 -0.75 C 4.332031 -0.75 4.671875 -0.820312 4.984375 -0.96875 C 5.304688 -1.113281 5.5625 -1.320312 5.75 -1.59375 C 5.945312 -1.875 6.046875 -2.21875 6.046875 -2.625 Z M 6.046875 -7.765625 "/></g></g></g><g fill="#ffffff" fill-opacity="1"><g transform="translate(167.301213, 11.778993)"><g><path d="M 0.515625 -6.9375 L 0.515625 -7.765625 L 6.34375 -7.765625 L 6.34375 -6.9375 L 3.90625 -6.9375 L 3.90625 0 L 2.953125 0 L 2.953125 -6.9375 Z M 0.515625 -6.9375 "/></g></g></g><g fill="#ffffff" fill-opacity="1"><g transform="translate(174.157865, 11.778993)"><g><path d="M 1.265625 0 L 0.265625 0 L 3.125 -7.765625 L 4.09375 -7.765625 L 6.953125 0 L 5.96875 0 L 5.1875 -2.203125 L 2.046875 -2.203125 Z M 2.34375 -3.03125 L 4.890625 -3.03125 L 3.640625 -6.546875 L 3.578125 -6.546875 Z M 3.203125 -8.5625 L 4.125 -10.3125 L 5.171875 -10.3125 L 3.984375 -8.5625 Z M 3.203125 -8.5625 "/></g></g></g><g fill="#ffffff" fill-opacity="1"><g transform="translate(181.378578, 11.778993)"><g><path d="M 0.9375 0 L 0.9375 -7.765625 L 3.5625 -7.765625 C 4.175781 -7.765625 4.675781 -7.660156 5.0625 -7.453125 C 5.445312 -7.253906 5.734375 -6.972656 5.921875 -6.609375 C 6.109375 -6.253906 6.203125 -5.847656 6.203125 -5.390625 C 6.203125 -4.867188 6.082031 -4.414062 5.84375 -4.03125 C 5.613281 -3.65625 5.25 -3.378906 4.75 -3.203125 L 6.515625 0 L 5.421875 0 L 3.78125 -3.046875 C 3.71875 -3.035156 3.648438 -3.03125 3.578125 -3.03125 L 1.875 -3.03125 L 1.875 0 Z M 1.875 -3.890625 L 3.546875 -3.890625 C 4.171875 -3.890625 4.613281 -4.019531 4.875 -4.28125 C 5.144531 -4.550781 5.28125 -4.921875 5.28125 -5.390625 C 5.28125 -5.859375 5.144531 -6.234375 4.875 -6.515625 C 4.613281 -6.796875 4.164062 -6.9375 3.53125 -6.9375 L 1.875 -6.9375 Z M 1.875 -3.890625 "/></g></g></g><g fill="#ffffff" fill-opacity="1"><g transform="translate(188.204889, 11.778993)"><g><path d="M 1.875 -7.765625 L 1.875 0 L 0.9375 0 L 0.9375 -7.765625 Z M 1.875 -7.765625 "/></g></g></g><g fill="#ffffff" fill-opacity="1"><g transform="translate(191.026423, 11.778993)"><g><path d="M 1.265625 0 L 0.265625 0 L 3.125 -7.765625 L 4.09375 -7.765625 L 6.953125 0 L 5.96875 0 L 5.1875 -2.203125 L 2.046875 -2.203125 Z M 2.34375 -3.03125 L 4.890625 -3.03125 L 3.640625 -6.546875 L 3.578125 -6.546875 Z M 2.34375 -3.03125 "/></g></g></g></g></g></g><g clip-path="url(#98f1732c97)"><path fill="#ffffff" d="M 260.375 13.410156 L 264.253906 13.410156 L 256.175781 38.441406 L 255.003906 34.816406 L 251.65625 24.4375 L 242.609375 24.4375 L 242.65625 24.585938 L 242.609375 24.585938 L 234.046875 51.09375 L 232.875 47.464844 L 229.523438 37.089844 L 223.648438 37.089844 C 223.429688 35.601562 223.320312 34.066406 223.320312 32.515625 C 223.320312 14.851562 237.640625 0.53125 255.304688 0.53125 C 260.242188 0.53125 264.921875 1.65625 269.105469 3.652344 Z M 260.375 13.410156 " fill-opacity="1" fill-rule="nonzero"/></g><g clip-path="url(#9d97be197e)"><path fill="#ffffff" d="M 287.292969 32.503906 C 287.292969 50.171875 272.972656 64.492188 255.304688 64.492188 C 249.769531 64.492188 244.566406 63.089844 240.03125 60.609375 L 247.167969 38.527344 L 250.382812 48.503906 L 251.667969 52.457031 L 260.710938 52.457031 L 273.3125 13.421875 L 277.023438 13.421875 L 273.277344 6.046875 C 281.730469 11.789062 287.292969 21.5 287.292969 32.503906 Z M 287.292969 32.503906 " fill-opacity="1" fill-rule="nonzero"/></g><g fill="#ffffff" fill-opacity="1"><g transform="translate(53.273977, 57.591709)"><g><path d="M 17.84375 -30.3125 C 23.320312 -30.3125 27.378906 -29.039062 30.015625 -26.5 C 32.660156 -23.957031 33.984375 -20.101562 33.984375 -14.9375 C 33.984375 -9.78125 32.660156 -5.929688 30.015625 -3.390625 C 27.378906 -0.847656 23.320312 0.421875 17.84375 0.421875 C 12.363281 0.421875 8.300781 -0.847656 5.65625 -3.390625 C 3.019531 -5.929688 1.703125 -9.78125 1.703125 -14.9375 C 1.703125 -20.101562 3.019531 -23.957031 5.65625 -26.5 C 8.300781 -29.039062 12.363281 -30.3125 17.84375 -30.3125 Z M 17.84375 -29.9375 C 16.675781 -29.9375 15.601562 -29.472656 14.625 -28.546875 C 13.644531 -27.628906 12.789062 -26.421875 12.0625 -24.921875 C 11.34375 -23.429688 10.785156 -21.8125 10.390625 -20.0625 C 9.992188 -18.320312 9.796875 -16.613281 9.796875 -14.9375 C 9.796875 -13.289062 9.992188 -11.585938 10.390625 -9.828125 C 10.785156 -8.078125 11.34375 -6.453125 12.0625 -4.953125 C 12.789062 -3.460938 13.644531 -2.253906 14.625 -1.328125 C 15.601562 -0.410156 16.675781 0.046875 17.84375 0.046875 C 19.007812 0.046875 20.082031 -0.410156 21.0625 -1.328125 C 22.039062 -2.253906 22.890625 -3.460938 23.609375 -4.953125 C 24.335938 -6.453125 24.898438 -8.078125 25.296875 -9.828125 C 25.691406 -11.585938 25.890625 -13.289062 25.890625 -14.9375 C 25.890625 -16.613281 25.691406 -18.320312 25.296875 -20.0625 C 24.898438 -21.8125 24.335938 -23.429688 23.609375 -24.921875 C 22.890625 -26.421875 22.039062 -27.628906 21.0625 -28.546875 C 20.082031 -29.472656 19.007812 -29.9375 17.84375 -29.9375 Z M 17.84375 -29.9375 "/></g></g></g><g fill="#ffffff" fill-opacity="1"><g transform="translate(85.840396, 57.591709)"><g><path d="M 2.46875 -29.8125 L 10.734375 -29.8125 C 11.265625 -29.8125 11.789062 -29.507812 12.3125 -28.90625 L 27.03125 -11.03125 L 27.125 -11.03125 L 27.125 -21.625 L 21.921875 -28.4375 C 21.785156 -28.613281 21.703125 -28.765625 21.671875 -28.890625 C 21.640625 -29.015625 21.625 -29.148438 21.625 -29.296875 L 21.625 -29.5 C 21.625 -29.707031 21.722656 -29.8125 21.921875 -29.8125 L 26.78125 -29.8125 C 27.40625 -29.8125 27.71875 -29.441406 27.71875 -28.703125 L 27.71875 -1.109375 C 27.71875 -0.367188 27.40625 0 26.78125 0 L 25.15625 0 C 24.625 0 24.054688 -0.367188 23.453125 -1.109375 L 4.515625 -25.890625 L 4.515625 -9.796875 L 10.9375 -1.359375 C 11.132812 -1.078125 11.234375 -0.796875 11.234375 -0.515625 L 11.234375 -0.296875 C 11.234375 -0.0976562 11.132812 0 10.9375 0 L 4.859375 0 C 4.234375 0 3.921875 -0.367188 3.921875 -1.109375 L 3.921875 -26.703125 L 2.390625 -28.703125 C 2.273438 -28.867188 2.195312 -29.007812 2.15625 -29.125 C 2.113281 -29.238281 2.09375 -29.335938 2.09375 -29.421875 L 2.09375 -29.5 C 2.09375 -29.707031 2.21875 -29.8125 2.46875 -29.8125 Z M 2.46875 -29.8125 "/></g></g></g><g fill="#ffffff" fill-opacity="1"><g transform="translate(114.277385, 57.591709)"><g><path d="M 27.375 -28.703125 L 27.375 -20.6875 C 27.375 -20.175781 27.175781 -19.921875 26.78125 -19.921875 L 26.53125 -19.921875 C 26.332031 -19.921875 26.140625 -20.035156 25.953125 -20.265625 C 25.765625 -20.492188 25.554688 -20.75 25.328125 -21.03125 L 19.125 -29.203125 L 17.75 -29.203125 L 17.75 -1.109375 C 17.75 -0.367188 17.4375 0 16.8125 0 L 11.40625 0 C 10.78125 0 10.46875 -0.367188 10.46875 -1.109375 L 10.46875 -29.203125 L 9.109375 -29.203125 L 2.890625 -21.03125 C 2.691406 -20.75 2.492188 -20.492188 2.296875 -20.265625 C 2.097656 -20.035156 1.898438 -19.921875 1.703125 -19.921875 L 1.453125 -19.921875 C 1.054688 -19.921875 0.859375 -20.175781 0.859375 -20.6875 L 0.859375 -28.703125 C 0.859375 -29.441406 1.164062 -29.8125 1.78125 -29.8125 L 26.4375 -29.8125 C 27.0625 -29.8125 27.375 -29.441406 27.375 -28.703125 Z M 27.375 -28.703125 "/></g></g></g><g fill="#ffffff" fill-opacity="1"><g transform="translate(188.647461, 57.591709)"><g><path d="M 7.875 0 L 1.1875 0 C 0.851562 0 0.628906 -0.113281 0.515625 -0.34375 C 0.398438 -0.570312 0.398438 -0.828125 0.515625 -1.109375 L 12.859375 -28.703125 C 13.003906 -29.015625 13.207031 -29.273438 13.46875 -29.484375 C 13.738281 -29.703125 14.019531 -29.8125 14.3125 -29.8125 L 16.90625 -29.8125 C 17.269531 -29.8125 17.585938 -29.703125 17.859375 -29.484375 C 18.128906 -29.273438 18.320312 -29.015625 18.4375 -28.703125 L 30.78125 -1.109375 C 30.894531 -0.828125 30.894531 -0.570312 30.78125 -0.34375 C 30.664062 -0.113281 30.441406 0 30.109375 0 L 23.890625 0 C 23.515625 0 23.195312 -0.101562 22.9375 -0.3125 C 22.6875 -0.53125 22.492188 -0.796875 22.359375 -1.109375 L 19.203125 -8.125 L 5.65625 -8.125 L 8.8125 -1.109375 C 8.957031 -0.796875 8.953125 -0.53125 8.796875 -0.3125 C 8.640625 -0.101562 8.332031 0 7.875 0 Z M 18.953125 -8.734375 L 11.75 -24.859375 L 4.984375 -9.671875 L 5.40625 -8.734375 Z M 18.953125 -8.734375 "/></g></g></g><g transform="matrix(1, 0, 0, 1, 139, 3)"><g clip-path="url(#69369d23af)"><g clip-path="url(#b97d392c13)"><g fill="#ffffff" fill-opacity="1"><g transform="translate(0.418374, 56.493656)"><g><path d="M 46.25 -12.5625 L 46.25 -2.078125 C 46.25 -0.691406 45.660156 0 44.484375 0 L 8.96875 0 C 7.789062 0 7.203125 -0.691406 7.203125 -2.078125 L 7.203125 -53.9375 C 7.203125 -55.320312 7.789062 -56.015625 8.96875 -56.015625 L 19.125 -56.015625 C 20.300781 -56.015625 20.890625 -55.320312 20.890625 -53.9375 L 20.890625 -1.125 L 26.640625 -1.125 L 40.40625 -12.71875 C 40.988281 -13.144531 41.597656 -13.570312 42.234375 -14 C 42.878906 -14.425781 43.472656 -14.640625 44.015625 -14.640625 L 44.484375 -14.640625 C 45.660156 -14.640625 46.25 -13.945312 46.25 -12.5625 Z M 46.25 -12.5625 "/></g></g></g></g></g></g><g clip-path="url(#85c05e3b2b)"><g transform="matrix(1, 0, 0, 1, 0, 2)"><g clip-path="url(#7f70b9f6ed)"><g clip-path="url(#886cf8ff64)"><g fill="#ffffff" fill-opacity="1"><g transform="translate(0.362844, 57.493656)"><g><path d="M 3.203125 -28.078125 C 3.203125 -37.785156 5.773438 -45.023438 10.921875 -49.796875 C 16.066406 -54.578125 23.492188 -56.96875 33.203125 -56.96875 L 51.84375 -56.171875 C 52.59375 -56.117188 53.070312 -55.914062 53.28125 -55.5625 C 53.5 -55.21875 53.609375 -54.726562 53.609375 -54.09375 L 53.609375 -43.6875 C 53.609375 -42.726562 53.234375 -42.085938 52.484375 -41.765625 L 51.53125 -41.375 C 51.375 -41.3125 51.226562 -41.265625 51.09375 -41.234375 C 50.957031 -41.210938 50.8125 -41.203125 50.65625 -41.203125 C 50.007812 -41.203125 49.421875 -41.472656 48.890625 -42.015625 L 34.328125 -55.84375 C 32.140625 -55.84375 30.082031 -55.003906 28.15625 -53.328125 C 26.238281 -51.648438 24.546875 -49.421875 23.078125 -46.640625 C 21.617188 -43.867188 20.472656 -40.867188 19.640625 -37.640625 C 18.816406 -34.421875 18.40625 -31.234375 18.40625 -28.078125 C 18.40625 -24.984375 18.816406 -21.8125 19.640625 -18.5625 C 20.472656 -15.3125 21.617188 -12.296875 23.078125 -9.515625 C 24.546875 -6.742188 26.238281 -4.515625 28.15625 -2.828125 C 30.082031 -1.148438 32.140625 -0.3125 34.328125 -0.3125 L 48.890625 -14.15625 C 49.421875 -14.695312 50.007812 -14.96875 50.65625 -14.96875 C 50.8125 -14.96875 50.957031 -14.953125 51.09375 -14.921875 C 51.226562 -14.898438 51.375 -14.859375 51.53125 -14.796875 L 52.484375 -14.40625 C 53.234375 -14.082031 53.609375 -13.441406 53.609375 -12.484375 L 53.609375 -2.078125 C 53.609375 -1.441406 53.5 -0.960938 53.28125 -0.640625 C 53.070312 -0.316406 52.59375 -0.101562 51.84375 0 L 33.203125 0.796875 C 23.492188 0.796875 16.066406 -1.585938 10.921875 -6.359375 C 5.773438 -11.128906 3.203125 -18.367188 3.203125 -28.078125 Z M 3.203125 -28.078125 "/></g></g></g></g></g></g></g></g></g><g transform="matrix(1, 0, 0, 1, 27, 30)"><g clip-path="url(#dedfbee2df)"><g clip-path="url(#e0f77c6dec)"><g transform="matrix(1, 0, 0, 1, 49, 74)"><g clip-path="url(#300b312d37)"><g fill="#ffffff" fill-opacity="1"><g transform="translate(0.891026, 11.778993)"><g><path d="M 1.265625 0 L 0.265625 0 L 3.125 -7.765625 L 4.09375 -7.765625 L 6.953125 0 L 5.96875 0 L 5.1875 -2.203125 L 2.046875 -2.203125 Z M 2.34375 -3.03125 L 4.890625 -3.03125 L 3.640625 -6.546875 L 3.578125 -6.546875 Z M 2.34375 -3.03125 "/></g></g></g><g fill="#ffffff" fill-opacity="1"><g transform="translate(8.111739, 11.778993)"><g><path d="M 5.1875 -5.828125 C 5.144531 -6.210938 4.960938 -6.507812 4.640625 -6.71875 C 4.316406 -6.9375 3.921875 -7.046875 3.453125 -7.046875 C 2.929688 -7.046875 2.515625 -6.921875 2.203125 -6.671875 C 1.890625 -6.429688 1.734375 -6.125 1.734375 -5.75 C 1.734375 -5.476562 1.816406 -5.253906 1.984375 -5.078125 C 2.160156 -4.910156 2.363281 -4.78125 2.59375 -4.6875 C 2.820312 -4.59375 3.035156 -4.519531 3.234375 -4.46875 L 4.015625 -4.25 C 4.222656 -4.195312 4.453125 -4.125 4.703125 -4.03125 C 4.953125 -3.9375 5.191406 -3.804688 5.421875 -3.640625 C 5.648438 -3.484375 5.835938 -3.28125 5.984375 -3.03125 C 6.128906 -2.78125 6.203125 -2.472656 6.203125 -2.109375 C 6.203125 -1.691406 6.09375 -1.3125 5.875 -0.96875 C 5.65625 -0.632812 5.335938 -0.363281 4.921875 -0.15625 C 4.503906 0.0390625 4 0.140625 3.40625 0.140625 C 2.5625 0.140625 1.894531 -0.0546875 1.40625 -0.453125 C 0.914062 -0.847656 0.648438 -1.363281 0.609375 -2 L 1.578125 -2 C 1.597656 -1.707031 1.695312 -1.460938 1.875 -1.265625 C 2.050781 -1.078125 2.269531 -0.9375 2.53125 -0.84375 C 2.800781 -0.757812 3.09375 -0.71875 3.40625 -0.71875 C 3.757812 -0.71875 4.078125 -0.773438 4.359375 -0.890625 C 4.648438 -1.003906 4.878906 -1.164062 5.046875 -1.375 C 5.210938 -1.59375 5.296875 -1.84375 5.296875 -2.125 C 5.296875 -2.382812 5.222656 -2.59375 5.078125 -2.75 C 4.929688 -2.914062 4.738281 -3.046875 4.5 -3.140625 C 4.269531 -3.242188 4.019531 -3.335938 3.75 -3.421875 L 2.796875 -3.6875 C 2.179688 -3.863281 1.695312 -4.113281 1.34375 -4.4375 C 0.988281 -4.757812 0.8125 -5.179688 0.8125 -5.703125 C 0.8125 -6.140625 0.929688 -6.519531 1.171875 -6.84375 C 1.410156 -7.175781 1.726562 -7.429688 2.125 -7.609375 C 2.53125 -7.785156 2.984375 -7.875 3.484375 -7.875 C 3.984375 -7.875 4.425781 -7.785156 4.8125 -7.609375 C 5.195312 -7.429688 5.503906 -7.1875 5.734375 -6.875 C 5.960938 -6.570312 6.085938 -6.222656 6.109375 -5.828125 Z M 5.1875 -5.828125 "/></g></g></g><g fill="#ffffff" fill-opacity="1"><g transform="translate(14.922871, 11.778993)"><g><path d="M 5.1875 -5.828125 C 5.144531 -6.210938 4.960938 -6.507812 4.640625 -6.71875 C 4.316406 -6.9375 3.921875 -7.046875 3.453125 -7.046875 C 2.929688 -7.046875 2.515625 -6.921875 2.203125 -6.671875 C 1.890625 -6.429688 1.734375 -6.125 1.734375 -5.75 C 1.734375 -5.476562 1.816406 -5.253906 1.984375 -5.078125 C 2.160156 -4.910156 2.363281 -4.78125 2.59375 -4.6875 C 2.820312 -4.59375 3.035156 -4.519531 3.234375 -4.46875 L 4.015625 -4.25 C 4.222656 -4.195312 4.453125 -4.125 4.703125 -4.03125 C 4.953125 -3.9375 5.191406 -3.804688 5.421875 -3.640625 C 5.648438 -3.484375 5.835938 -3.28125 5.984375 -3.03125 C 6.128906 -2.78125 6.203125 -2.472656 6.203125 -2.109375 C 6.203125 -1.691406 6.09375 -1.3125 5.875 -0.96875 C 5.65625 -0.632812 5.335938 -0.363281 4.921875 -0.15625 C 4.503906 0.0390625 4 0.140625 3.40625 0.140625 C 2.5625 0.140625 1.894531 -0.0546875 1.40625 -0.453125 C 0.914062 -0.847656 0.648438 -1.363281 0.609375 -2 L 1.578125 -2 C 1.597656 -1.707031 1.695312 -1.460938 1.875 -1.265625 C 2.050781 -1.078125 2.269531 -0.9375 2.53125 -0.84375 C 2.800781 -0.757812 3.09375 -0.71875 3.40625 -0.71875 C 3.757812 -0.71875 4.078125 -0.773438 4.359375 -0.890625 C 4.648438 -1.003906 4.878906 -1.164062 5.046875 -1.375 C 5.210938 -1.59375 5.296875 -1.84375 5.296875 -2.125 C 5.296875 -2.382812 5.222656 -2.59375 5.078125 -2.75 C 4.929688 -2.914062 4.738281 -3.046875 4.5 -3.140625 C 4.269531 -3.242188 4.019531 -3.335938 3.75 -3.421875 L 2.796875 -3.6875 C 2.179688 -3.863281 1.695312 -4.113281 1.34375 -4.4375 C 0.988281 -4.757812 0.8125 -5.179688 0.8125 -5.703125 C 0.8125 -6.140625 0.929688 -6.519531 1.171875 -6.84375 C 1.410156 -7.175781 1.726562 -7.429688 2.125 -7.609375 C 2.53125 -7.785156 2.984375 -7.875 3.484375 -7.875 C 3.984375 -7.875 4.425781 -7.785156 4.8125 -7.609375 C 5.195312 -7.429688 5.503906 -7.1875 5.734375 -6.875 C 5.960938 -6.570312 6.085938 -6.222656 6.109375 -5.828125 Z M 5.1875 -5.828125 "/></g></g></g><g fill="#ffffff" fill-opacity="1"><g transform="translate(21.734002, 11.778993)"><g><path d="M 0.9375 0 L 0.9375 -7.765625 L 5.625 -7.765625 L 5.625 -6.9375 L 1.875 -6.9375 L 1.875 -4.3125 L 5.390625 -4.3125 L 5.390625 -3.484375 L 1.875 -3.484375 L 1.875 -0.828125 L 5.6875 -0.828125 L 5.6875 0 Z M 0.9375 0 "/></g></g></g><g fill="#ffffff" fill-opacity="1"><g transform="translate(28.120389, 11.778993)"><g><path d="M 5.1875 -5.828125 C 5.144531 -6.210938 4.960938 -6.507812 4.640625 -6.71875 C 4.316406 -6.9375 3.921875 -7.046875 3.453125 -7.046875 C 2.929688 -7.046875 2.515625 -6.921875 2.203125 -6.671875 C 1.890625 -6.429688 1.734375 -6.125 1.734375 -5.75 C 1.734375 -5.476562 1.816406 -5.253906 1.984375 -5.078125 C 2.160156 -4.910156 2.363281 -4.78125 2.59375 -4.6875 C 2.820312 -4.59375 3.035156 -4.519531 3.234375 -4.46875 L 4.015625 -4.25 C 4.222656 -4.195312 4.453125 -4.125 4.703125 -4.03125 C 4.953125 -3.9375 5.191406 -3.804688 5.421875 -3.640625 C 5.648438 -3.484375 5.835938 -3.28125 5.984375 -3.03125 C 6.128906 -2.78125 6.203125 -2.472656 6.203125 -2.109375 C 6.203125 -1.691406 6.09375 -1.3125 5.875 -0.96875 C 5.65625 -0.632812 5.335938 -0.363281 4.921875 -0.15625 C 4.503906 0.0390625 4 0.140625 3.40625 0.140625 C 2.5625 0.140625 1.894531 -0.0546875 1.40625 -0.453125 C 0.914062 -0.847656 0.648438 -1.363281 0.609375 -2 L 1.578125 -2 C 1.597656 -1.707031 1.695312 -1.460938 1.875 -1.265625 C 2.050781 -1.078125 2.269531 -0.9375 2.53125 -0.84375 C 2.800781 -0.757812 3.09375 -0.71875 3.40625 -0.71875 C 3.757812 -0.71875 4.078125 -0.773438 4.359375 -0.890625 C 4.648438 -1.003906 4.878906 -1.164062 5.046875 -1.375 C 5.210938 -1.59375 5.296875 -1.84375 5.296875 -2.125 C 5.296875 -2.382812 5.222656 -2.59375 5.078125 -2.75 C 4.929688 -2.914062 4.738281 -3.046875 4.5 -3.140625 C 4.269531 -3.242188 4.019531 -3.335938 3.75 -3.421875 L 2.796875 -3.6875 C 2.179688 -3.863281 1.695312 -4.113281 1.34375 -4.4375 C 0.988281 -4.757812 0.8125 -5.179688 0.8125 -5.703125 C 0.8125 -6.140625 0.929688 -6.519531 1.171875 -6.84375 C 1.410156 -7.175781 1.726562 -7.429688 2.125 -7.609375 C 2.53125 -7.785156 2.984375 -7.875 3.484375 -7.875 C 3.984375 -7.875 4.425781 -7.785156 4.8125 -7.609375 C 5.195312 -7.429688 5.503906 -7.1875 5.734375 -6.875 C 5.960938 -6.570312 6.085938 -6.222656 6.109375 -5.828125 Z M 5.1875 -5.828125 "/></g></g></g><g fill="#ffffff" fill-opacity="1"><g transform="translate(34.93152, 11.778993)"><g><path d="M 5.1875 -5.828125 C 5.144531 -6.210938 4.960938 -6.507812 4.640625 -6.71875 C 4.316406 -6.9375 3.921875 -7.046875 3.453125 -7.046875 C 2.929688 -7.046875 2.515625 -6.921875 2.203125 -6.671875 C 1.890625 -6.429688 1.734375 -6.125 1.734375 -5.75 C 1.734375 -5.476562 1.816406 -5.253906 1.984375 -5.078125 C 2.160156 -4.910156 2.363281 -4.78125 2.59375 -4.6875 C 2.820312 -4.59375 3.035156 -4.519531 3.234375 -4.46875 L 4.015625 -4.25 C 4.222656 -4.195312 4.453125 -4.125 4.703125 -4.03125 C 4.953125 -3.9375 5.191406 -3.804688 5.421875 -3.640625 C 5.648438 -3.484375 5.835938 -3.28125 5.984375 -3.03125 C 6.128906 -2.78125 6.203125 -2.472656 6.203125 -2.109375 C 6.203125 -1.691406 6.09375 -1.3125 5.875 -0.96875 C 5.65625 -0.632812 5.335938 -0.363281 4.921875 -0.15625 C 4.503906 0.0390625 4 0.140625 3.40625 0.140625 C 2.5625 0.140625 1.894531 -0.0546875 1.40625 -0.453125 C 0.914062 -0.847656 0.648438 -1.363281 0.609375 -2 L 1.578125 -2 C 1.597656 -1.707031 1.695312 -1.460938 1.875 -1.265625 C 2.050781 -1.078125 2.269531 -0.9375 2.53125 -0.84375 C 2.800781 -0.757812 3.09375 -0.71875 3.40625 -0.71875 C 3.757812 -0.71875 4.078125 -0.773438 4.359375 -0.890625 C 4.648438 -1.003906 4.878906 -1.164062 5.046875 -1.375 C 5.210938 -1.59375 5.296875 -1.84375 5.296875 -2.125 C 5.296875 -2.382812 5.222656 -2.59375 5.078125 -2.75 C 4.929688 -2.914062 4.738281 -3.046875 4.5 -3.140625 C 4.269531 -3.242188 4.019531 -3.335938 3.75 -3.421875 L 2.796875 -3.6875 C 2.179688 -3.863281 1.695312 -4.113281 1.34375 -4.4375 C 0.988281 -4.757812 0.8125 -5.179688 0.8125 -5.703125 C 0.8125 -6.140625 0.929688 -6.519531 1.171875 -6.84375 C 1.410156 -7.175781 1.726562 -7.429688 2.125 -7.609375 C 2.53125 -7.785156 2.984375 -7.875 3.484375 -7.875 C 3.984375 -7.875 4.425781 -7.785156 4.8125 -7.609375 C 5.195312 -7.429688 5.503906 -7.1875 5.734375 -6.875 C 5.960938 -6.570312 6.085938 -6.222656 6.109375 -5.828125 Z M 5.1875 -5.828125 "/></g></g></g><g fill="#ffffff" fill-opacity="1"><g transform="translate(41.742652, 11.778993)"><g><path d="M 7.5 -3.890625 C 7.5 -3.066406 7.347656 -2.351562 7.046875 -1.75 C 6.753906 -1.15625 6.347656 -0.695312 5.828125 -0.375 C 5.316406 -0.0507812 4.726562 0.109375 4.0625 0.109375 C 3.40625 0.109375 2.816406 -0.0507812 2.296875 -0.375 C 1.785156 -0.695312 1.378906 -1.15625 1.078125 -1.75 C 0.785156 -2.351562 0.640625 -3.066406 0.640625 -3.890625 C 0.640625 -4.703125 0.785156 -5.40625 1.078125 -6 C 1.378906 -6.601562 1.785156 -7.066406 2.296875 -7.390625 C 2.816406 -7.710938 3.40625 -7.875 4.0625 -7.875 C 4.726562 -7.875 5.316406 -7.710938 5.828125 -7.390625 C 6.347656 -7.066406 6.753906 -6.601562 7.046875 -6 C 7.347656 -5.40625 7.5 -4.703125 7.5 -3.890625 Z M 6.59375 -3.890625 C 6.59375 -4.554688 6.476562 -5.117188 6.25 -5.578125 C 6.03125 -6.046875 5.726562 -6.398438 5.34375 -6.640625 C 4.96875 -6.878906 4.539062 -7 4.0625 -7 C 3.59375 -7 3.164062 -6.878906 2.78125 -6.640625 C 2.40625 -6.398438 2.101562 -6.046875 1.875 -5.578125 C 1.65625 -5.117188 1.546875 -4.554688 1.546875 -3.890625 C 1.546875 -3.210938 1.65625 -2.640625 1.875 -2.171875 C 2.101562 -1.710938 2.40625 -1.363281 2.78125 -1.125 C 3.164062 -0.894531 3.59375 -0.78125 4.0625 -0.78125 C 4.539062 -0.78125 4.96875 -0.894531 5.34375 -1.125 C 5.726562 -1.363281 6.03125 -1.710938 6.25 -2.171875 C 6.476562 -2.640625 6.59375 -3.210938 6.59375 -3.890625 Z M 6.59375 -3.890625 "/></g></g></g><g fill="#ffffff" fill-opacity="1"><g transform="translate(49.873552, 11.778993)"><g><path d="M 0.9375 0 L 0.9375 -7.765625 L 3.5625 -7.765625 C 4.175781 -7.765625 4.675781 -7.660156 5.0625 -7.453125 C 5.445312 -7.253906 5.734375 -6.972656 5.921875 -6.609375 C 6.109375 -6.253906 6.203125 -5.847656 6.203125 -5.390625 C 6.203125 -4.867188 6.082031 -4.414062 5.84375 -4.03125 C 5.613281 -3.65625 5.25 -3.378906 4.75 -3.203125 L 6.515625 0 L 5.421875 0 L 3.78125 -3.046875 C 3.71875 -3.035156 3.648438 -3.03125 3.578125 -3.03125 L 1.875 -3.03125 L 1.875 0 Z M 1.875 -3.890625 L 3.546875 -3.890625 C 4.171875 -3.890625 4.613281 -4.019531 4.875 -4.28125 C 5.144531 -4.550781 5.28125 -4.921875 5.28125 -5.390625 C 5.28125 -5.859375 5.144531 -6.234375 4.875 -6.515625 C 4.613281 -6.796875 4.164062 -6.9375 3.53125 -6.9375 L 1.875 -6.9375 Z M 1.875 -3.890625 "/></g></g></g><g fill="#ffffff" fill-opacity="1"><g transform="translate(56.699863, 11.778993)"><g><path d="M 1.875 -7.765625 L 1.875 0 L 0.9375 0 L 0.9375 -7.765625 Z M 1.875 -7.765625 "/></g></g></g><g fill="#ffffff" fill-opacity="1"><g transform="translate(59.521397, 11.778993)"><g><path d="M 1.265625 0 L 0.265625 0 L 3.125 -7.765625 L 4.09375 -7.765625 L 6.953125 0 L 5.96875 0 L 5.1875 -2.203125 L 2.046875 -2.203125 Z M 2.34375 -3.03125 L 4.890625 -3.03125 L 3.640625 -6.546875 L 3.578125 -6.546875 Z M 2.34375 -3.03125 "/></g></g></g><g fill="#ffffff" fill-opacity="1"><g transform="translate(66.74211, 11.778993)"><g/></g></g><g fill="#ffffff" fill-opacity="1"><g transform="translate(69.745692, 11.778993)"><g><path d="M 7.203125 -5.34375 L 6.25 -5.34375 C 6.175781 -5.707031 6.03125 -6.007812 5.8125 -6.25 C 5.601562 -6.5 5.34375 -6.6875 5.03125 -6.8125 C 4.726562 -6.9375 4.40625 -7 4.0625 -7 C 3.59375 -7 3.164062 -6.878906 2.78125 -6.640625 C 2.40625 -6.398438 2.101562 -6.046875 1.875 -5.578125 C 1.65625 -5.117188 1.546875 -4.554688 1.546875 -3.890625 C 1.546875 -3.210938 1.65625 -2.640625 1.875 -2.171875 C 2.101562 -1.710938 2.40625 -1.363281 2.78125 -1.125 C 3.164062 -0.894531 3.59375 -0.78125 4.0625 -0.78125 C 4.40625 -0.78125 4.726562 -0.84375 5.03125 -0.96875 C 5.34375 -1.09375 5.601562 -1.273438 5.8125 -1.515625 C 6.03125 -1.765625 6.175781 -2.066406 6.25 -2.421875 L 7.203125 -2.421875 C 7.097656 -1.890625 6.894531 -1.4375 6.59375 -1.0625 C 6.300781 -0.6875 5.9375 -0.394531 5.5 -0.1875 C 5.0625 0.0078125 4.582031 0.109375 4.0625 0.109375 C 3.40625 0.109375 2.816406 -0.0507812 2.296875 -0.375 C 1.785156 -0.695312 1.378906 -1.15625 1.078125 -1.75 C 0.785156 -2.351562 0.640625 -3.066406 0.640625 -3.890625 C 0.640625 -4.703125 0.785156 -5.40625 1.078125 -6 C 1.378906 -6.601562 1.785156 -7.066406 2.296875 -7.390625 C 2.816406 -7.710938 3.40625 -7.875 4.0625 -7.875 C 4.582031 -7.875 5.0625 -7.773438 5.5 -7.578125 C 5.9375 -7.378906 6.300781 -7.085938 6.59375 -6.703125 C 6.894531 -6.328125 7.097656 -5.875 7.203125 -5.34375 Z M 7.203125 -5.34375 "/></g></g></g><g fill="#ffffff" fill-opacity="1"><g transform="translate(77.512514, 11.778993)"><g><path d="M 7.5 -3.890625 C 7.5 -3.066406 7.347656 -2.351562 7.046875 -1.75 C 6.753906 -1.15625 6.347656 -0.695312 5.828125 -0.375 C 5.316406 -0.0507812 4.726562 0.109375 4.0625 0.109375 C 3.40625 0.109375 2.816406 -0.0507812 2.296875 -0.375 C 1.785156 -0.695312 1.378906 -1.15625 1.078125 -1.75 C 0.785156 -2.351562 0.640625 -3.066406 0.640625 -3.890625 C 0.640625 -4.703125 0.785156 -5.40625 1.078125 -6 C 1.378906 -6.601562 1.785156 -7.066406 2.296875 -7.390625 C 2.816406 -7.710938 3.40625 -7.875 4.0625 -7.875 C 4.726562 -7.875 5.316406 -7.710938 5.828125 -7.390625 C 6.347656 -7.066406 6.753906 -6.601562 7.046875 -6 C 7.347656 -5.40625 7.5 -4.703125 7.5 -3.890625 Z M 6.59375 -3.890625 C 6.59375 -4.554688 6.476562 -5.117188 6.25 -5.578125 C 6.03125 -6.046875 5.726562 -6.398438 5.34375 -6.640625 C 4.96875 -6.878906 4.539062 -7 4.0625 -7 C 3.59375 -7 3.164062 -6.878906 2.78125 -6.640625 C 2.40625 -6.398438 2.101562 -6.046875 1.875 -5.578125 C 1.65625 -5.117188 1.546875 -4.554688 1.546875 -3.890625 C 1.546875 -3.210938 1.65625 -2.640625 1.875 -2.171875 C 2.101562 -1.710938 2.40625 -1.363281 2.78125 -1.125 C 3.164062 -0.894531 3.59375 -0.78125 4.0625 -0.78125 C 4.539062 -0.78125 4.96875 -0.894531 5.34375 -1.125 C 5.726562 -1.363281 6.03125 -1.710938 6.25 -2.171875 C 6.476562 -2.640625 6.59375 -3.210938 6.59375 -3.890625 Z M 6.59375 -3.890625 "/></g></g></g><g fill="#ffffff" fill-opacity="1"><g transform="translate(85.643414, 11.778993)"><g><path d="M 7.109375 -7.765625 L 7.109375 0 L 6.1875 0 L 1.953125 -6.109375 L 1.875 -6.109375 L 1.875 0 L 0.9375 0 L 0.9375 -7.765625 L 1.859375 -7.765625 L 6.109375 -1.65625 L 6.171875 -1.65625 L 6.171875 -7.765625 Z M 7.109375 -7.765625 "/></g></g></g><g fill="#ffffff" fill-opacity="1"><g transform="translate(93.683291, 11.778993)"><g><path d="M 0.515625 -6.9375 L 0.515625 -7.765625 L 6.34375 -7.765625 L 6.34375 -6.9375 L 3.90625 -6.9375 L 3.90625 0 L 2.953125 0 L 2.953125 -6.9375 Z M 0.515625 -6.9375 "/></g></g></g><g fill="#ffffff" fill-opacity="1"><g transform="translate(100.539943, 11.778993)"><g><path d="M 1.265625 0 L 0.265625 0 L 3.125 -7.765625 L 4.09375 -7.765625 L 6.953125 0 L 5.96875 0 L 5.1875 -2.203125 L 2.046875 -2.203125 Z M 2.34375 -3.03125 L 4.890625 -3.03125 L 3.640625 -6.546875 L 3.578125 -6.546875 Z M 3.203125 -8.5625 L 4.125 -10.3125 L 5.171875 -10.3125 L 3.984375 -8.5625 Z M 3.203125 -8.5625 "/></g></g></g><g fill="#ffffff" fill-opacity="1"><g transform="translate(107.760656, 11.778993)"><g><path d="M 0.9375 0 L 0.9375 -7.765625 L 3.65625 -7.765625 C 4.195312 -7.765625 4.644531 -7.671875 5 -7.484375 C 5.351562 -7.304688 5.613281 -7.0625 5.78125 -6.75 C 5.957031 -6.4375 6.046875 -6.085938 6.046875 -5.703125 C 6.046875 -5.367188 5.984375 -5.09375 5.859375 -4.875 C 5.742188 -4.65625 5.585938 -4.484375 5.390625 -4.359375 C 5.203125 -4.234375 5 -4.140625 4.78125 -4.078125 L 4.78125 -4.015625 C 5.019531 -3.992188 5.257812 -3.90625 5.5 -3.75 C 5.738281 -3.601562 5.9375 -3.382812 6.09375 -3.09375 C 6.257812 -2.8125 6.34375 -2.46875 6.34375 -2.0625 C 6.34375 -1.675781 6.253906 -1.328125 6.078125 -1.015625 C 5.898438 -0.703125 5.617188 -0.453125 5.234375 -0.265625 C 4.859375 -0.0859375 4.363281 0 3.75 0 Z M 1.875 -0.828125 L 3.75 -0.828125 C 4.363281 -0.828125 4.800781 -0.945312 5.0625 -1.1875 C 5.320312 -1.425781 5.453125 -1.71875 5.453125 -2.0625 C 5.453125 -2.320312 5.382812 -2.5625 5.25 -2.78125 C 5.113281 -3.007812 4.921875 -3.191406 4.671875 -3.328125 C 4.421875 -3.460938 4.128906 -3.53125 3.796875 -3.53125 L 1.875 -3.53125 Z M 1.875 -4.359375 L 3.625 -4.359375 C 4.050781 -4.359375 4.410156 -4.476562 4.703125 -4.71875 C 4.992188 -4.96875 5.140625 -5.296875 5.140625 -5.703125 C 5.140625 -6.046875 5.019531 -6.335938 4.78125 -6.578125 C 4.550781 -6.816406 4.175781 -6.9375 3.65625 -6.9375 L 1.875 -6.9375 Z M 1.875 -4.359375 "/></g></g></g><g fill="#ffffff" fill-opacity="1"><g transform="translate(114.708314, 11.778993)"><g><path d="M 1.875 -7.765625 L 1.875 0 L 0.9375 0 L 0.9375 -7.765625 Z M 1.875 -7.765625 "/></g></g></g><g fill="#ffffff" fill-opacity="1"><g transform="translate(117.529848, 11.778993)"><g><path d="M 0.9375 0 L 0.9375 -7.765625 L 1.875 -7.765625 L 1.875 -0.828125 L 5.5 -0.828125 L 5.5 0 Z M 0.9375 0 "/></g></g></g><g fill="#ffffff" fill-opacity="1"><g transform="translate(123.536995, 11.778993)"><g/></g></g><g fill="#ffffff" fill-opacity="1"><g transform="translate(126.540578, 11.778993)"><g><path d="M 0.9375 0 L 0.9375 -7.765625 L 5.625 -7.765625 L 5.625 -6.9375 L 1.875 -6.9375 L 1.875 -4.3125 L 5.390625 -4.3125 L 5.390625 -3.484375 L 1.875 -3.484375 L 1.875 -0.828125 L 5.6875 -0.828125 L 5.6875 0 Z M 0.9375 0 "/></g></g></g><g fill="#ffffff" fill-opacity="1"><g transform="translate(132.926965, 11.778993)"><g/></g></g><g fill="#ffffff" fill-opacity="1"><g transform="translate(135.930547, 11.778993)"><g><path d="M 0.515625 -6.9375 L 0.515625 -7.765625 L 6.34375 -7.765625 L 6.34375 -6.9375 L 3.90625 -6.9375 L 3.90625 0 L 2.953125 0 L 2.953125 -6.9375 Z M 0.515625 -6.9375 "/></g></g></g><g fill="#ffffff" fill-opacity="1"><g transform="translate(142.787199, 11.778993)"><g><path d="M 0.9375 0 L 0.9375 -7.765625 L 3.5625 -7.765625 C 4.175781 -7.765625 4.675781 -7.660156 5.0625 -7.453125 C 5.445312 -7.253906 5.734375 -6.972656 5.921875 -6.609375 C 6.109375 -6.253906 6.203125 -5.847656 6.203125 -5.390625 C 6.203125 -4.867188 6.082031 -4.414062 5.84375 -4.03125 C 5.613281 -3.65625 5.25 -3.378906 4.75 -3.203125 L 6.515625 0 L 5.421875 0 L 3.78125 -3.046875 C 3.71875 -3.035156 3.648438 -3.03125 3.578125 -3.03125 L 1.875 -3.03125 L 1.875 0 Z M 1.875 -3.890625 L 3.546875 -3.890625 C 4.171875 -3.890625 4.613281 -4.019531 4.875 -4.28125 C 5.144531 -4.550781 5.28125 -4.921875 5.28125 -5.390625 C 5.28125 -5.859375 5.144531 -6.234375 4.875 -6.515625 C 4.613281 -6.796875 4.164062 -6.9375 3.53125 -6.9375 L 1.875 -6.9375 Z M 1.875 -3.890625 "/></g></g></g><g fill="#ffffff" fill-opacity="1"><g transform="translate(149.613509, 11.778993)"><g><path d="M 1.875 -7.765625 L 1.875 0 L 0.9375 0 L 0.9375 -7.765625 Z M 1.875 -7.765625 "/></g></g></g><g fill="#ffffff" fill-opacity="1"><g transform="translate(152.435044, 11.778993)"><g><path d="M 0.9375 0 L 0.9375 -7.765625 L 3.65625 -7.765625 C 4.195312 -7.765625 4.644531 -7.671875 5 -7.484375 C 5.351562 -7.304688 5.613281 -7.0625 5.78125 -6.75 C 5.957031 -6.4375 6.046875 -6.085938 6.046875 -5.703125 C 6.046875 -5.367188 5.984375 -5.09375 5.859375 -4.875 C 5.742188 -4.65625 5.585938 -4.484375 5.390625 -4.359375 C 5.203125 -4.234375 5 -4.140625 4.78125 -4.078125 L 4.78125 -4.015625 C 5.019531 -3.992188 5.257812 -3.90625 5.5 -3.75 C 5.738281 -3.601562 5.9375 -3.382812 6.09375 -3.09375 C 6.257812 -2.8125 6.34375 -2.46875 6.34375 -2.0625 C 6.34375 -1.675781 6.253906 -1.328125 6.078125 -1.015625 C 5.898438 -0.703125 5.617188 -0.453125 5.234375 -0.265625 C 4.859375 -0.0859375 4.363281 0 3.75 0 Z M 1.875 -0.828125 L 3.75 -0.828125 C 4.363281 -0.828125 4.800781 -0.945312 5.0625 -1.1875 C 5.320312 -1.425781 5.453125 -1.71875 5.453125 -2.0625 C 5.453125 -2.320312 5.382812 -2.5625 5.25 -2.78125 C 5.113281 -3.007812 4.921875 -3.191406 4.671875 -3.328125 C 4.421875 -3.460938 4.128906 -3.53125 3.796875 -3.53125 L 1.875 -3.53125 Z M 1.875 -4.359375 L 3.625 -4.359375 C 4.050781 -4.359375 4.410156 -4.476562 4.703125 -4.71875 C 4.992188 -4.96875 5.140625 -5.296875 5.140625 -5.703125 C 5.140625 -6.046875 5.019531 -6.335938 4.78125 -6.578125 C 4.550781 -6.816406 4.175781 -6.9375 3.65625 -6.9375 L 1.875 -6.9375 Z M 1.875 -4.359375 "/></g></g></g><g fill="#ffffff" fill-opacity="1"><g transform="translate(159.382702, 11.778993)"><g><path d="M 6.046875 -7.765625 L 6.984375 -7.765625 L 6.984375 -2.625 C 6.984375 -2.039062 6.84375 -1.539062 6.5625 -1.125 C 6.289062 -0.71875 5.925781 -0.40625 5.46875 -0.1875 C 5.007812 0.03125 4.507812 0.140625 3.96875 0.140625 C 3.414062 0.140625 2.910156 0.03125 2.453125 -0.1875 C 1.992188 -0.40625 1.625 -0.71875 1.34375 -1.125 C 1.070312 -1.539062 0.9375 -2.039062 0.9375 -2.625 L 0.9375 -7.765625 L 1.875 -7.765625 L 1.875 -2.625 C 1.875 -2.21875 1.96875 -1.875 2.15625 -1.59375 C 2.351562 -1.320312 2.609375 -1.113281 2.921875 -0.96875 C 3.242188 -0.820312 3.59375 -0.75 3.96875 -0.75 C 4.332031 -0.75 4.671875 -0.820312 4.984375 -0.96875 C 5.304688 -1.113281 5.5625 -1.320312 5.75 -1.59375 C 5.945312 -1.875 6.046875 -2.21875 6.046875 -2.625 Z M 6.046875 -7.765625 "/></g></g></g><g fill="#ffffff" fill-opacity="1"><g transform="translate(167.301213, 11.778993)"><g><path d="M 0.515625 -6.9375 L 0.515625 -7.765625 L 6.34375 -7.765625 L 6.34375 -6.9375 L 3.90625 -6.9375 L 3.90625 0 L 2.953125 0 L 2.953125 -6.9375 Z M 0.515625 -6.9375 "/></g></g></g><g fill="#ffffff" fill-opacity="1"><g transform="translate(174.157865, 11.778993)"><g><path d="M 1.265625 0 L 0.265625 0 L 3.125 -7.765625 L 4.09375 -7.765625 L 6.953125 0 L 5.96875 0 L 5.1875 -2.203125 L 2.046875 -2.203125 Z M 2.34375 -3.03125 L 4.890625 -3.03125 L 3.640625 -6.546875 L 3.578125 -6.546875 Z M 3.203125 -8.5625 L 4.125 -10.3125 L 5.171875 -10.3125 L 3.984375 -8.5625 Z M 3.203125 -8.5625 "/></g></g></g><g fill="#ffffff" fill-opacity="1"><g transform="translate(181.378578, 11.778993)"><g><path d="M 0.9375 0 L 0.9375 -7.765625 L 3.5625 -7.765625 C 4.175781 -7.765625 4.675781 -7.660156 5.0625 -7.453125 C 5.445312 -7.253906 5.734375 -6.972656 5.921875 -6.609375 C 6.109375 -6.253906 6.203125 -5.847656 6.203125 -5.390625 C 6.203125 -4.867188 6.082031 -4.414062 5.84375 -4.03125 C 5.613281 -3.65625 5.25 -3.378906 4.75 -3.203125 L 6.515625 0 L 5.421875 0 L 3.78125 -3.046875 C 3.71875 -3.035156 3.648438 -3.03125 3.578125 -3.03125 L 1.875 -3.03125 L 1.875 0 Z M 1.875 -3.890625 L 3.546875 -3.890625 C 4.171875 -3.890625 4.613281 -4.019531 4.875 -4.28125 C 5.144531 -4.550781 5.28125 -4.921875 5.28125 -5.390625 C 5.28125 -5.859375 5.144531 -6.234375 4.875 -6.515625 C 4.613281 -6.796875 4.164062 -6.9375 3.53125 -6.9375 L 1.875 -6.9375 Z M 1.875 -3.890625 "/></g></g></g><g fill="#ffffff" fill-opacity="1"><g transform="translate(188.204889, 11.778993)"><g><path d="M 1.875 -7.765625 L 1.875 0 L 0.9375 0 L 0.9375 -7.765625 Z M 1.875 -7.765625 "/></g></g></g><g fill="#ffffff" fill-opacity="1"><g transform="translate(191.026423, 11.778993)"><g><path d="M 1.265625 0 L 0.265625 0 L 3.125 -7.765625 L 4.09375 -7.765625 L 6.953125 0 L 5.96875 0 L 5.1875 -2.203125 L 2.046875 -2.203125 Z M 2.34375 -3.03125 L 4.890625 -3.03125 L 3.640625 -6.546875 L 3.578125 -6.546875 Z M 2.34375 -3.03125 "/></g></g></g></g></g></g><g clip-path="url(#720d5bc475)"><path fill="#ffffff" d="M 260.375 13.410156 L 264.253906 13.410156 L 256.175781 38.441406 L 255.003906 34.816406 L 251.65625 24.4375 L 242.609375 24.4375 L 242.65625 24.585938 L 242.609375 24.585938 L 234.046875 51.09375 L 232.875 47.464844 L 229.523438 37.089844 L 223.648438 37.089844 C 223.429688 35.601562 223.320312 34.066406 223.320312 32.515625 C 223.320312 14.851562 237.640625 0.53125 255.304688 0.53125 C 260.242188 0.53125 264.921875 1.65625 269.105469 3.652344 Z M 260.375 13.410156 " fill-opacity="1" fill-rule="nonzero"/></g><g clip-path="url(#a792f25ade)"><path fill="#ffffff" d="M 287.292969 32.503906 C 287.292969 50.171875 272.972656 64.492188 255.304688 64.492188 C 249.769531 64.492188 244.566406 63.089844 240.03125 60.609375 L 247.167969 38.527344 L 250.382812 48.503906 L 251.667969 52.457031 L 260.710938 52.457031 L 273.3125 13.421875 L 277.023438 13.421875 L 273.277344 6.046875 C 281.730469 11.789062 287.292969 21.5 287.292969 32.503906 Z M 287.292969 32.503906 " fill-opacity="1" fill-rule="nonzero"/></g><g fill="#ffffff" fill-opacity="1"><g transform="translate(53.273977, 57.591709)"><g><path d="M 17.84375 -30.3125 C 23.320312 -30.3125 27.378906 -29.039062 30.015625 -26.5 C 32.660156 -23.957031 33.984375 -20.101562 33.984375 -14.9375 C 33.984375 -9.78125 32.660156 -5.929688 30.015625 -3.390625 C 27.378906 -0.847656 23.320312 0.421875 17.84375 0.421875 C 12.363281 0.421875 8.300781 -0.847656 5.65625 -3.390625 C 3.019531 -5.929688 1.703125 -9.78125 1.703125 -14.9375 C 1.703125 -20.101562 3.019531 -23.957031 5.65625 -26.5 C 8.300781 -29.039062 12.363281 -30.3125 17.84375 -30.3125 Z M 17.84375 -29.9375 C 16.675781 -29.9375 15.601562 -29.472656 14.625 -28.546875 C 13.644531 -27.628906 12.789062 -26.421875 12.0625 -24.921875 C 11.34375 -23.429688 10.785156 -21.8125 10.390625 -20.0625 C 9.992188 -18.320312 9.796875 -16.613281 9.796875 -14.9375 C 9.796875 -13.289062 9.992188 -11.585938 10.390625 -9.828125 C 10.785156 -8.078125 11.34375 -6.453125 12.0625 -4.953125 C 12.789062 -3.460938 13.644531 -2.253906 14.625 -1.328125 C 15.601562 -0.410156 16.675781 0.046875 17.84375 0.046875 C 19.007812 0.046875 20.082031 -0.410156 21.0625 -1.328125 C 22.039062 -2.253906 22.890625 -3.460938 23.609375 -4.953125 C 24.335938 -6.453125 24.898438 -8.078125 25.296875 -9.828125 C 25.691406 -11.585938 25.890625 -13.289062 25.890625 -14.9375 C 25.890625 -16.613281 25.691406 -18.320312 25.296875 -20.0625 C 24.898438 -21.8125 24.335938 -23.429688 23.609375 -24.921875 C 22.890625 -26.421875 22.039062 -27.628906 21.0625 -28.546875 C 20.082031 -29.472656 19.007812 -29.9375 17.84375 -29.9375 Z M 17.84375 -29.9375 "/></g></g></g><g fill="#ffffff" fill-opacity="1"><g transform="translate(85.840396, 57.591709)"><g><path d="M 2.46875 -29.8125 L 10.734375 -29.8125 C 11.265625 -29.8125 11.789062 -29.507812 12.3125 -28.90625 L 27.03125 -11.03125 L 27.125 -11.03125 L 27.125 -21.625 L 21.921875 -28.4375 C 21.785156 -28.613281 21.703125 -28.765625 21.671875 -28.890625 C 21.640625 -29.015625 21.625 -29.148438 21.625 -29.296875 L 21.625 -29.5 C 21.625 -29.707031 21.722656 -29.8125 21.921875 -29.8125 L 26.78125 -29.8125 C 27.40625 -29.8125 27.71875 -29.441406 27.71875 -28.703125 L 27.71875 -1.109375 C 27.71875 -0.367188 27.40625 0 26.78125 0 L 25.15625 0 C 24.625 0 24.054688 -0.367188 23.453125 -1.109375 L 4.515625 -25.890625 L 4.515625 -9.796875 L 10.9375 -1.359375 C 11.132812 -1.078125 11.234375 -0.796875 11.234375 -0.515625 L 11.234375 -0.296875 C 11.234375 -0.0976562 11.132812 0 10.9375 0 L 4.859375 0 C 4.234375 0 3.921875 -0.367188 3.921875 -1.109375 L 3.921875 -26.703125 L 2.390625 -28.703125 C 2.273438 -28.867188 2.195312 -29.007812 2.15625 -29.125 C 2.113281 -29.238281 2.09375 -29.335938 2.09375 -29.421875 L 2.09375 -29.5 C 2.09375 -29.707031 2.21875 -29.8125 2.46875 -29.8125 Z M 2.46875 -29.8125 "/></g></g></g><g fill="#ffffff" fill-opacity="1"><g transform="translate(114.277385, 57.591709)"><g><path d="M 27.375 -28.703125 L 27.375 -20.6875 C 27.375 -20.175781 27.175781 -19.921875 26.78125 -19.921875 L 26.53125 -19.921875 C 26.332031 -19.921875 26.140625 -20.035156 25.953125 -20.265625 C 25.765625 -20.492188 25.554688 -20.75 25.328125 -21.03125 L 19.125 -29.203125 L 17.75 -29.203125 L 17.75 -1.109375 C 17.75 -0.367188 17.4375 0 16.8125 0 L 11.40625 0 C 10.78125 0 10.46875 -0.367188 10.46875 -1.109375 L 10.46875 -29.203125 L 9.109375 -29.203125 L 2.890625 -21.03125 C 2.691406 -20.75 2.492188 -20.492188 2.296875 -20.265625 C 2.097656 -20.035156 1.898438 -19.921875 1.703125 -19.921875 L 1.453125 -19.921875 C 1.054688 -19.921875 0.859375 -20.175781 0.859375 -20.6875 L 0.859375 -28.703125 C 0.859375 -29.441406 1.164062 -29.8125 1.78125 -29.8125 L 26.4375 -29.8125 C 27.0625 -29.8125 27.375 -29.441406 27.375 -28.703125 Z M 27.375 -28.703125 "/></g></g></g><g fill="#ffffff" fill-opacity="1"><g transform="translate(188.647461, 57.591709)"><g><path d="M 7.875 0 L 1.1875 0 C 0.851562 0 0.628906 -0.113281 0.515625 -0.34375 C 0.398438 -0.570312 0.398438 -0.828125 0.515625 -1.109375 L 12.859375 -28.703125 C 13.003906 -29.015625 13.207031 -29.273438 13.46875 -29.484375 C 13.738281 -29.703125 14.019531 -29.8125 14.3125 -29.8125 L 16.90625 -29.8125 C 17.269531 -29.8125 17.585938 -29.703125 17.859375 -29.484375 C 18.128906 -29.273438 18.320312 -29.015625 18.4375 -28.703125 L 30.78125 -1.109375 C 30.894531 -0.828125 30.894531 -0.570312 30.78125 -0.34375 C 30.664062 -0.113281 30.441406 0 30.109375 0 L 23.890625 0 C 23.515625 0 23.195312 -0.101562 22.9375 -0.3125 C 22.6875 -0.53125 22.492188 -0.796875 22.359375 -1.109375 L 19.203125 -8.125 L 5.65625 -8.125 L 8.8125 -1.109375 C 8.957031 -0.796875 8.953125 -0.53125 8.796875 -0.3125 C 8.640625 -0.101562 8.332031 0 7.875 0 Z M 18.953125 -8.734375 L 11.75 -24.859375 L 4.984375 -9.671875 L 5.40625 -8.734375 Z M 18.953125 -8.734375 "/></g></g></g><g transform="matrix(1, 0, 0, 1, 139, 3)"><g clip-path="url(#7eb413334c)"><g clip-path="url(#eda3691f44)"><g fill="#ffffff" fill-opacity="1"><g transform="translate(0.418374, 56.493656)"><g><path d="M 46.25 -12.5625 L 46.25 -2.078125 C 46.25 -0.691406 45.660156 0 44.484375 0 L 8.96875 0 C 7.789062 0 7.203125 -0.691406 7.203125 -2.078125 L 7.203125 -53.9375 C 7.203125 -55.320312 7.789062 -56.015625 8.96875 -56.015625 L 19.125 -56.015625 C 20.300781 -56.015625 20.890625 -55.320312 20.890625 -53.9375 L 20.890625 -1.125 L 26.640625 -1.125 L 40.40625 -12.71875 C 40.988281 -13.144531 41.597656 -13.570312 42.234375 -14 C 42.878906 -14.425781 43.472656 -14.640625 44.015625 -14.640625 L 44.484375 -14.640625 C 45.660156 -14.640625 46.25 -13.945312 46.25 -12.5625 Z M 46.25 -12.5625 "/></g></g></g></g></g></g><g clip-path="url(#cfcc86623c)"><g transform="matrix(1, 0, 0, 1, 0, 2)"><g clip-path="url(#8b879ab906)"><g clip-path="url(#83cdc9702e)"><g fill="#ffffff" fill-opacity="1"><g transform="translate(0.362844, 57.493656)"><g><path d="M 3.203125 -28.078125 C 3.203125 -37.785156 5.773438 -45.023438 10.921875 -49.796875 C 16.066406 -54.578125 23.492188 -56.96875 33.203125 -56.96875 L 51.84375 -56.171875 C 52.59375 -56.117188 53.070312 -55.914062 53.28125 -55.5625 C 53.5 -55.21875 53.609375 -54.726562 53.609375 -54.09375 L 53.609375 -43.6875 C 53.609375 -42.726562 53.234375 -42.085938 52.484375 -41.765625 L 51.53125 -41.375 C 51.375 -41.3125 51.226562 -41.265625 51.09375 -41.234375 C 50.957031 -41.210938 50.8125 -41.203125 50.65625 -41.203125 C 50.007812 -41.203125 49.421875 -41.472656 48.890625 -42.015625 L 34.328125 -55.84375 C 32.140625 -55.84375 30.082031 -55.003906 28.15625 -53.328125 C 26.238281 -51.648438 24.546875 -49.421875 23.078125 -46.640625 C 21.617188 -43.867188 20.472656 -40.867188 19.640625 -37.640625 C 18.816406 -34.421875 18.40625 -31.234375 18.40625 -28.078125 C 18.40625 -24.984375 18.816406 -21.8125 19.640625 -18.5625 C 20.472656 -15.3125 21.617188 -12.296875 23.078125 -9.515625 C 24.546875 -6.742188 26.238281 -4.515625 28.15625 -2.828125 C 30.082031 -1.148438 32.140625 -0.3125 34.328125 -0.3125 L 48.890625 -14.15625 C 49.421875 -14.695312 50.007812 -14.96875 50.65625 -14.96875 C 50.8125 -14.96875 50.957031 -14.953125 51.09375 -14.921875 C 51.226562 -14.898438 51.375 -14.859375 51.53125 -14.796875 L 52.484375 -14.40625 C 53.234375 -14.082031 53.609375 -13.441406 53.609375 -12.484375 L 53.609375 -2.078125 C 53.609375 -1.441406 53.5 -0.960938 53.28125 -0.640625 C 53.070312 -0.316406 52.59375 -0.101562 51.84375 0 L 33.203125 0.796875 C 23.492188 0.796875 16.066406 -1.585938 10.921875 -6.359375 C 5.773438 -11.128906 3.203125 -18.367188 3.203125 -28.078125 Z M 3.203125 -28.078125 "/></g></g></g></g></g></g></g></g></g></g></svg>