<svg xmlns="http://www.w3.org/2000/svg" xmlns:xlink="http://www.w3.org/1999/xlink" width="200" zoomAndPan="magnify" viewBox="0 0 150 149.999998" height="200" preserveAspectRatio="xMidYMid meet" version="1.0"><path fill="#946a29" d="M 66.324219 0 Z M 57.027344 45.160156 C 57.605469 45.394531 58.230469 45.578125 58.90625 45.703125 L 58.082031 47.746094 C 57.644531 48.839844 58.175781 50.085938 59.273438 50.523438 C 60.367188 50.960938 61.613281 50.429688 62.050781 49.335938 L 63.28125 46.273438 L 63.710938 46.332031 C 66.113281 46.636719 68.585938 46.167969 70.632812 45.167969 C 72.785156 44.121094 74.527344 42.457031 75.339844 40.441406 C 75.558594 39.898438 75.703125 39.339844 75.773438 38.785156 L 75.773438 38.777344 C 75.96875 37.234375 75.582031 35.765625 74.722656 34.515625 C 73.921875 33.355469 72.71875 32.402344 71.203125 31.796875 C 70.441406 31.488281 69.585938 31.265625 68.65625 31.148438 L 64.519531 30.625 C 63.976562 30.558594 63.472656 30.425781 63.023438 30.246094 C 62.304688 29.957031 61.757812 29.546875 61.433594 29.070312 C 61.167969 28.679688 61.042969 28.226562 61.101562 27.761719 L 61.109375 27.753906 C 61.132812 27.558594 61.183594 27.359375 61.265625 27.160156 C 61.660156 26.171875 62.636719 25.296875 63.882812 24.691406 C 65.234375 24.035156 66.84375 23.722656 68.390625 23.914062 L 70.339844 24.160156 C 70.417969 24.175781 70.492188 24.183594 70.570312 24.191406 L 72.523438 24.4375 C 73.070312 24.507812 73.570312 24.636719 74.019531 24.816406 C 74.738281 25.105469 75.28125 25.519531 75.609375 25.996094 C 75.878906 26.382812 76 26.835938 75.941406 27.304688 C 75.917969 27.488281 75.863281 27.691406 75.777344 27.902344 C 75.335938 29 75.871094 30.242188 76.964844 30.683594 C 78.058594 31.121094 79.304688 30.589844 79.742188 29.492188 C 79.960938 28.949219 80.105469 28.394531 80.175781 27.839844 L 80.175781 27.832031 C 80.371094 26.289062 79.984375 24.816406 79.125 23.574219 C 78.328125 22.414062 77.121094 21.460938 75.609375 20.855469 C 75.03125 20.621094 74.402344 20.4375 73.730469 20.308594 L 74.550781 18.265625 C 74.988281 17.171875 74.457031 15.925781 73.359375 15.488281 C 72.265625 15.046875 71.019531 15.582031 70.582031 16.675781 L 69.347656 19.734375 L 68.90625 19.679688 C 66.511719 19.378906 64.042969 19.84375 61.996094 20.84375 C 59.84375 21.890625 58.097656 23.554688 57.285156 25.570312 C 57.058594 26.128906 56.914062 26.6875 56.855469 27.234375 C 56.660156 28.785156 57.046875 30.25 57.902344 31.5 C 58.703125 32.660156 59.910156 33.609375 61.421875 34.21875 C 62.1875 34.527344 63.042969 34.746094 63.972656 34.863281 L 68.109375 35.386719 C 68.652344 35.453125 69.152344 35.582031 69.605469 35.765625 C 70.320312 36.050781 70.863281 36.464844 71.195312 36.941406 C 71.460938 37.328125 71.582031 37.78125 71.523438 38.25 C 71.5 38.433594 71.445312 38.636719 71.359375 38.851562 C 70.960938 39.839844 69.984375 40.714844 68.742188 41.320312 C 67.386719 41.980469 65.773438 42.292969 64.234375 42.097656 L 62.289062 41.855469 C 62.203125 41.839844 62.125 41.828125 62.042969 41.824219 L 60.097656 41.578125 C 59.554688 41.507812 59.050781 41.378906 58.601562 41.199219 C 57.886719 40.910156 57.339844 40.496094 57.011719 40.019531 C 56.746094 39.632812 56.621094 39.179688 56.679688 38.710938 C 56.703125 38.527344 56.761719 38.324219 56.847656 38.109375 C 57.285156 37.015625 56.753906 35.769531 55.65625 35.332031 C 54.5625 34.894531 53.316406 35.425781 52.878906 36.519531 C 52.660156 37.066406 52.519531 37.621094 52.449219 38.175781 L 52.449219 38.183594 C 52.253906 39.726562 52.640625 41.199219 53.496094 42.441406 C 54.308594 43.601562 55.515625 44.554688 57.027344 45.160156 Z M 66.324219 8.597656 Z M 10.132812 33.003906 C 10.132812 25.90625 16.691406 19.648438 27.292969 15.285156 C 37.324219 11.152344 51.128906 8.59375 66.324219 8.59375 C 81.515625 8.59375 95.320312 11.152344 105.351562 15.285156 C 115.953125 19.648438 122.511719 25.90625 122.511719 33.003906 C 122.511719 40.101562 115.953125 46.359375 105.351562 50.722656 C 95.320312 54.855469 81.515625 57.414062 66.324219 57.414062 C 51.128906 57.414062 37.324219 54.855469 27.292969 50.722656 C 16.691406 46.359375 10.132812 40.101562 10.132812 33.003906 Z M 14.414062 33.003906 C 14.414062 38.203125 19.957031 43.082031 28.917969 46.773438 C 38.445312 50.699219 51.667969 53.125 66.324219 53.125 C 80.976562 53.125 94.199219 50.695312 103.730469 46.773438 C 112.6875 43.082031 118.230469 38.203125 118.230469 33.003906 C 118.230469 27.804688 112.6875 22.921875 103.730469 19.234375 C 94.199219 15.308594 80.976562 12.882812 66.324219 12.882812 C 51.667969 12.882812 38.445312 15.3125 28.917969 19.234375 C 19.957031 22.921875 14.414062 27.804688 14.414062 33.003906 Z M 150 63.410156 L 150 86.585938 C 150 91.980469 147.484375 97.039062 143.011719 101.492188 C 142.914062 101.613281 142.800781 101.726562 142.675781 101.824219 C 141.761719 102.707031 140.769531 103.566406 139.703125 104.402344 L 139.707031 116.996094 C 139.707031 126.410156 132.054688 134.796875 119.6875 140.742188 C 107.796875 146.464844 91.421875 150 73.386719 150 C 55.355469 150 38.976562 146.460938 27.085938 140.742188 C 14.71875 134.792969 7.070312 126.410156 7.070312 116.996094 L 7.070312 93.820312 C 7.070312 93.820312 7.070312 93.820312 7.070312 93.816406 C 7.070312 90.417969 8.078125 87.136719 9.953125 84.046875 C 11.347656 81.75 13.222656 79.570312 15.515625 77.535156 C 12.347656 75.667969 9.59375 73.617188 7.320312 71.414062 C 7.199219 71.316406 7.089844 71.210938 6.992188 71.09375 C 2.515625 66.636719 0 61.578125 0 56.1875 L 0 33.003906 C 0 23.589844 7.652344 15.207031 20.015625 9.253906 C 31.914062 3.539062 48.289062 0 66.324219 0 C 84.355469 0 100.734375 3.539062 112.625 9.257812 C 124.992188 15.207031 132.640625 23.59375 132.640625 33.007812 L 132.640625 41.023438 C 137.847656 43.832031 142.066406 47.109375 145.03125 50.714844 C 148.238281 54.609375 150 58.894531 150 63.410156 Z M 132.640625 45.925781 L 132.640625 51.214844 C 134.765625 52.84375 136.472656 54.609375 137.683594 56.484375 C 139.109375 58.671875 139.867188 60.996094 139.867188 63.414062 C 139.867188 70.375 133.5625 76.523438 123.328125 80.871094 C 113.671875 84.976562 100.339844 87.59375 85.5625 87.796875 C 85.46875 87.808594 85.371094 87.820312 85.273438 87.835938 C 85.09375 87.863281 84.914062 87.890625 84.734375 87.914062 C 83.984375 88.019531 83.226562 88.121094 82.464844 88.214844 C 82.410156 88.222656 82.355469 88.230469 82.296875 88.238281 C 82.292969 88.238281 82.289062 88.238281 82.285156 88.238281 C 82.273438 88.238281 82.265625 88.242188 82.25 88.242188 C 82.152344 88.253906 82.050781 88.265625 81.953125 88.273438 C 81.277344 88.355469 80.601562 88.429688 79.921875 88.5 C 79.808594 88.511719 79.695312 88.523438 79.582031 88.535156 C 78.804688 88.613281 78.027344 88.679688 77.242188 88.742188 C 77.167969 88.75 77.09375 88.757812 77.015625 88.761719 C 76.902344 88.769531 76.78125 88.78125 76.664062 88.789062 C 76.40625 88.808594 76.152344 88.828125 75.890625 88.84375 C 75.773438 88.851562 75.652344 88.859375 75.53125 88.867188 C 72.519531 89.074219 69.445312 89.183594 66.324219 89.183594 C 63.222656 89.183594 60.167969 89.074219 57.179688 88.871094 C 57.027344 88.859375 56.867188 88.851562 56.71875 88.839844 C 56.484375 88.828125 56.246094 88.808594 56.011719 88.789062 C 55.882812 88.777344 55.75 88.769531 55.625 88.757812 L 55.046875 88.710938 C 54.902344 88.699219 54.757812 88.6875 54.613281 88.671875 L 54.332031 88.648438 C 54.40625 88.667969 54.472656 88.6875 54.542969 88.703125 C 55.183594 88.863281 55.828125 89.019531 56.484375 89.171875 C 56.484375 89.171875 56.488281 89.171875 56.488281 89.171875 C 56.9375 89.273438 57.390625 89.375 57.839844 89.472656 C 57.898438 89.484375 57.957031 89.492188 58.011719 89.507812 C 61.253906 90.203125 64.640625 90.769531 68.148438 91.195312 C 68.171875 91.199219 68.191406 91.199219 68.210938 91.203125 C 73.160156 91.800781 78.335938 92.121094 83.679688 92.121094 C 89.003906 92.121094 94.167969 91.808594 99.097656 91.210938 C 99.144531 91.203125 99.191406 91.199219 99.238281 91.195312 C 101.3125 90.945312 103.351562 90.644531 105.332031 90.296875 C 106.6875 90.058594 108.019531 89.796875 109.324219 89.519531 C 109.40625 89.496094 109.488281 89.480469 109.574219 89.46875 C 109.578125 89.46875 109.585938 89.464844 109.589844 89.464844 C 110.980469 89.164062 112.347656 88.835938 113.679688 88.488281 C 115.699219 87.964844 117.644531 87.386719 119.519531 86.761719 C 119.628906 86.710938 119.746094 86.671875 119.863281 86.644531 C 122.824219 85.640625 125.589844 84.523438 128.136719 83.300781 C 128.675781 83.042969 129.203125 82.777344 129.71875 82.511719 C 129.824219 82.445312 129.9375 82.386719 130.054688 82.339844 C 133.898438 80.316406 137.148438 78.054688 139.675781 75.617188 C 139.777344 75.496094 139.894531 75.382812 140.015625 75.28125 C 143.667969 71.640625 145.710938 67.613281 145.710938 63.40625 C 145.710938 59.914062 144.296875 56.539062 141.730469 53.417969 C 139.507812 50.714844 136.425781 48.191406 132.640625 45.925781 Z M 126.347656 47.195312 C 126.277344 47.273438 126.203125 47.347656 126.132812 47.425781 L 126.132812 63.710938 C 126.257812 63.507812 126.378906 63.296875 126.492188 63.085938 C 126.566406 62.949219 126.636719 62.808594 126.707031 62.671875 C 126.753906 62.578125 126.800781 62.492188 126.84375 62.402344 C 126.933594 62.21875 127.019531 62.039062 127.097656 61.855469 C 127.117188 61.820312 127.132812 61.78125 127.152344 61.742188 C 127.238281 61.546875 127.316406 61.351562 127.394531 61.15625 C 127.40625 61.121094 127.421875 61.089844 127.433594 61.058594 C 127.507812 60.863281 127.578125 60.664062 127.640625 60.464844 C 127.652344 60.425781 127.667969 60.390625 127.679688 60.347656 C 127.742188 60.15625 127.800781 59.964844 127.851562 59.773438 C 127.867188 59.722656 127.878906 59.671875 127.894531 59.621094 C 127.941406 59.441406 127.988281 59.261719 128.027344 59.082031 C 128.042969 59.015625 128.058594 58.941406 128.070312 58.875 C 128.105469 58.710938 128.136719 58.546875 128.167969 58.375 C 128.183594 58.28125 128.195312 58.191406 128.207031 58.097656 C 128.230469 57.953125 128.253906 57.804688 128.269531 57.660156 C 128.285156 57.53125 128.292969 57.410156 128.300781 57.28125 C 128.3125 57.164062 128.324219 57.046875 128.332031 56.929688 C 128.34375 56.710938 128.351562 56.492188 128.351562 56.277344 C 128.351562 56.246094 128.355469 56.21875 128.355469 56.191406 L 128.355469 44.839844 C 128.308594 44.898438 128.261719 44.957031 128.210938 45.019531 C 128.066406 45.210938 127.917969 45.402344 127.757812 45.59375 C 127.6875 45.683594 127.613281 45.769531 127.539062 45.859375 C 127.386719 46.039062 127.234375 46.222656 127.074219 46.398438 C 126.992188 46.488281 126.910156 46.582031 126.828125 46.671875 C 126.675781 46.84375 126.515625 47.019531 126.347656 47.195312 Z M 79.453125 84.246094 C 79.605469 84.234375 79.753906 84.214844 79.90625 84.199219 L 79.90625 65.324219 C 77.871094 65.53125 75.800781 65.695312 73.703125 65.808594 L 73.703125 84.699219 C 74.398438 84.660156 75.097656 84.613281 75.792969 84.566406 C 75.898438 84.558594 76.011719 84.550781 76.121094 84.539062 C 76.390625 84.519531 76.660156 84.5 76.929688 84.476562 C 77.6875 84.417969 78.4375 84.347656 79.183594 84.273438 C 79.273438 84.265625 79.359375 84.253906 79.453125 84.246094 Z M 56.769531 84.5625 C 57.488281 84.613281 58.210938 84.660156 58.933594 84.703125 L 58.933594 65.8125 C 56.839844 65.699219 54.769531 65.535156 52.734375 65.328125 L 52.734375 84.203125 C 52.859375 84.214844 52.984375 84.234375 53.109375 84.242188 C 53.234375 84.253906 53.363281 84.269531 53.488281 84.285156 C 54.207031 84.355469 54.929688 84.421875 55.65625 84.480469 C 55.988281 84.507812 56.3125 84.53125 56.644531 84.558594 C 56.683594 84.554688 56.730469 84.558594 56.769531 84.5625 Z M 112.035156 93.300781 L 112.035156 112.085938 C 114.175781 111.570312 116.246094 110.992188 118.234375 110.363281 L 118.234375 91.648438 C 116.234375 92.253906 114.167969 92.804688 112.035156 93.300781 Z M 122.515625 90.25 L 122.515625 108.890625 C 124.492188 108.140625 126.367188 107.34375 128.136719 106.492188 C 128.332031 106.398438 128.523438 106.300781 128.714844 106.207031 L 128.714844 87.75 C 126.761719 88.640625 124.691406 89.480469 122.515625 90.25 Z M 107.75 94.203125 C 105.726562 94.589844 103.65625 94.929688 101.546875 95.21875 L 101.546875 114.078125 C 103.660156 113.777344 105.730469 113.429688 107.75 113.027344 Z M 97.265625 114.609375 L 97.265625 95.734375 C 95.230469 95.941406 93.160156 96.105469 91.066406 96.21875 L 91.066406 115.105469 C 93.164062 114.984375 95.230469 114.820312 97.265625 114.609375 Z M 83.675781 96.417969 C 82.640625 96.417969 81.605469 96.402344 80.578125 96.378906 L 80.578125 115.261719 C 81.40625 115.28125 82.234375 115.296875 83.0625 115.308594 C 83.269531 115.308594 83.472656 115.3125 83.675781 115.3125 C 84.714844 115.3125 85.75 115.300781 86.777344 115.273438 L 86.777344 96.382812 C 85.75 96.40625 84.71875 96.417969 83.675781 96.417969 Z M 116.164062 54.90625 C 115.992188 55.003906 115.820312 55.097656 115.640625 55.195312 L 115.640625 73.441406 C 116.488281 72.921875 117.308594 72.394531 118.078125 71.855469 C 119.464844 70.878906 120.71875 69.867188 121.84375 68.824219 L 121.84375 51.203125 C 121.828125 51.214844 121.816406 51.226562 121.804688 51.234375 C 121.726562 51.292969 121.640625 51.347656 121.5625 51.410156 C 121.328125 51.585938 121.085938 51.765625 120.839844 51.9375 C 120.726562 52.019531 120.609375 52.097656 120.496094 52.179688 C 120.28125 52.332031 120.0625 52.484375 119.84375 52.632812 C 119.710938 52.722656 119.578125 52.808594 119.445312 52.898438 C 119.234375 53.035156 119.023438 53.175781 118.808594 53.3125 C 118.664062 53.402344 118.523438 53.496094 118.375 53.585938 C 118.167969 53.71875 117.953125 53.851562 117.734375 53.980469 C 117.585938 54.070312 117.433594 54.160156 117.28125 54.253906 C 117.0625 54.386719 116.84375 54.515625 116.621094 54.640625 C 116.472656 54.734375 116.320312 54.820312 116.164062 54.90625 Z M 111.359375 57.34375 C 109.402344 58.238281 107.332031 59.074219 105.15625 59.847656 L 105.15625 78.476562 C 106.003906 78.152344 106.84375 77.820312 107.675781 77.472656 C 108.953125 76.933594 110.183594 76.375 111.355469 75.796875 L 111.355469 57.34375 Z M 100.875 61.246094 C 98.875 61.84375 96.804688 62.394531 94.671875 62.894531 L 94.671875 81.679688 C 95.570312 81.460938 96.460938 81.234375 97.351562 80.988281 L 97.472656 80.960938 C 97.523438 80.953125 97.570312 80.9375 97.617188 80.925781 C 98.34375 80.722656 99.066406 80.515625 99.78125 80.296875 C 99.867188 80.273438 99.957031 80.246094 100.042969 80.21875 C 100.324219 80.132812 100.59375 80.042969 100.871094 79.953125 L 100.871094 61.246094 Z M 90.390625 63.796875 C 88.367188 64.183594 86.300781 64.527344 84.1875 64.816406 L 84.1875 83.671875 C 84.386719 83.644531 84.589844 83.617188 84.789062 83.585938 C 84.976562 83.5625 85.160156 83.53125 85.34375 83.503906 C 85.625 83.464844 85.90625 83.417969 86.183594 83.375 C 86.375 83.34375 86.570312 83.3125 86.757812 83.28125 C 86.90625 83.253906 87.054688 83.226562 87.210938 83.203125 C 88.277344 83.023438 89.335938 82.828125 90.386719 82.617188 L 90.386719 63.796875 Z M 69.421875 84.867188 L 69.421875 65.972656 C 68.390625 65.996094 67.359375 66.011719 66.320312 66.011719 C 65.28125 66.011719 64.246094 66 63.21875 65.972656 L 63.21875 84.867188 C 64.246094 84.890625 65.28125 84.902344 66.320312 84.902344 C 67.359375 84.902344 68.390625 84.890625 69.421875 84.867188 Z M 59.605469 112.929688 C 61.640625 113.335938 63.710938 113.691406 65.808594 113.996094 L 65.808594 95.222656 C 63.699219 94.933594 61.628906 94.59375 59.605469 94.207031 Z M 70.089844 95.730469 L 70.089844 114.535156 C 72.140625 114.761719 74.210938 114.9375 76.292969 115.066406 L 76.292969 96.21875 C 74.195312 96.101562 72.128906 95.9375 70.089844 95.730469 Z M 23.824219 94.027344 L 23.867188 94.097656 L 23.867188 81.644531 C 23.753906 81.597656 23.632812 81.550781 23.515625 81.503906 C 23.230469 81.386719 22.953125 81.257812 22.671875 81.136719 C 22.492188 81.054688 22.3125 80.980469 22.132812 80.902344 C 21.972656 80.832031 21.800781 80.765625 21.640625 80.6875 L 21.640625 86.585938 C 21.640625 87.058594 21.667969 87.527344 21.71875 87.996094 C 21.734375 88.109375 21.75 88.222656 21.765625 88.335938 C 21.777344 88.425781 21.789062 88.515625 21.800781 88.601562 C 21.820312 88.714844 21.839844 88.824219 21.859375 88.933594 C 21.890625 89.097656 21.914062 89.257812 21.953125 89.417969 C 22.039062 89.769531 22.128906 90.101562 22.222656 90.417969 C 22.289062 90.628906 22.359375 90.84375 22.429688 91.0625 C 22.566406 91.460938 22.722656 91.84375 22.894531 92.230469 C 22.964844 92.382812 23.035156 92.535156 23.109375 92.679688 C 23.109375 92.683594 23.109375 92.691406 23.113281 92.695312 C 23.144531 92.761719 23.179688 92.824219 23.207031 92.886719 C 23.367188 93.203125 23.539062 93.523438 23.734375 93.867188 C 23.765625 93.921875 23.792969 93.976562 23.824219 94.027344 Z M 37.964844 62.894531 C 35.832031 62.398438 33.765625 61.84375 31.761719 61.246094 L 31.761719 79.953125 L 32.25 80.109375 L 34.28125 80.710938 C 34.296875 80.714844 34.308594 80.722656 34.320312 80.726562 C 34.433594 80.757812 34.542969 80.789062 34.652344 80.820312 C 35.03125 80.925781 35.40625 81.027344 35.773438 81.125 C 35.820312 81.136719 35.863281 81.144531 35.90625 81.15625 C 36.125 81.214844 36.335938 81.269531 36.550781 81.328125 C 36.859375 81.40625 37.167969 81.484375 37.476562 81.558594 C 37.640625 81.601562 37.804688 81.636719 37.96875 81.675781 L 37.96875 62.894531 Z M 30.082031 100.890625 C 30.320312 101.078125 30.554688 101.265625 30.796875 101.449219 C 30.890625 101.5 30.96875 101.566406 31.042969 101.632812 L 32.101562 102.390625 C 32.492188 102.664062 32.921875 102.949219 33.382812 103.246094 L 34.300781 103.820312 C 34.316406 103.828125 34.335938 103.835938 34.351562 103.847656 L 34.351562 85.601562 C 34.203125 85.519531 34.054688 85.441406 33.90625 85.359375 C 33.703125 85.246094 33.507812 85.128906 33.308594 85.011719 C 33.15625 84.925781 33.003906 84.839844 32.859375 84.753906 L 30.992188 84.191406 C 30.355469 83.992188 29.707031 83.78125 29.050781 83.566406 C 28.960938 83.539062 28.871094 83.511719 28.789062 83.476562 C 28.699219 83.445312 28.613281 83.414062 28.523438 83.386719 C 28.445312 83.359375 28.363281 83.328125 28.28125 83.300781 C 28.238281 83.289062 28.191406 83.273438 28.152344 83.257812 L 28.152344 99.171875 C 28.707031 99.722656 29.324219 100.277344 30.082031 100.890625 Z M 44.839844 108.800781 L 44.839844 90.25 C 44.753906 90.222656 44.664062 90.191406 44.578125 90.15625 C 44.339844 90.070312 44.109375 89.984375 43.871094 89.898438 C 43.625 89.804688 43.371094 89.714844 43.125 89.621094 C 42.890625 89.53125 42.667969 89.441406 42.433594 89.351562 C 42.191406 89.257812 41.949219 89.160156 41.707031 89.066406 C 41.484375 88.976562 41.257812 88.882812 41.035156 88.789062 C 40.796875 88.691406 40.558594 88.59375 40.324219 88.492188 C 40.101562 88.398438 39.886719 88.300781 39.667969 88.207031 C 39.433594 88.105469 39.199219 88.003906 38.96875 87.898438 C 38.859375 87.851562 38.75 87.796875 38.636719 87.746094 L 38.636719 106.152344 C 40.605469 107.109375 42.675781 107.992188 44.839844 108.800781 Z M 48.449219 83.671875 L 48.449219 64.816406 C 46.339844 64.527344 44.269531 64.183594 42.246094 63.796875 L 42.246094 82.617188 C 42.5 82.664062 42.75 82.722656 43 82.769531 C 43.03125 82.777344 43.0625 82.78125 43.089844 82.789062 C 43.847656 82.933594 44.613281 83.070312 45.382812 83.199219 C 45.566406 83.226562 45.746094 83.261719 45.929688 83.292969 C 46.082031 83.316406 46.238281 83.339844 46.390625 83.367188 C 46.710938 83.414062 47.023438 83.46875 47.34375 83.515625 C 47.492188 83.539062 47.644531 83.5625 47.792969 83.582031 C 48.015625 83.613281 48.234375 83.644531 48.449219 83.671875 Z M 21.277344 57.339844 L 21.277344 75.796875 C 21.335938 75.824219 21.398438 75.855469 21.457031 75.886719 C 21.554688 75.933594 21.648438 75.980469 21.746094 76.027344 C 22.824219 76.546875 23.957031 77.054688 25.15625 77.554688 C 25.917969 77.871094 26.695312 78.175781 27.480469 78.472656 L 27.480469 59.84375 C 25.308594 59.070312 23.234375 58.234375 21.277344 57.339844 Z M 53.886719 92.957031 C 53.664062 92.902344 53.441406 92.847656 53.21875 92.785156 C 52.902344 92.703125 52.582031 92.625 52.265625 92.542969 C 52.015625 92.476562 51.769531 92.40625 51.519531 92.339844 C 51.238281 92.261719 50.953125 92.1875 50.671875 92.109375 C 50.417969 92.035156 50.167969 91.960938 49.917969 91.886719 C 49.648438 91.808594 49.382812 91.734375 49.121094 91.652344 L 49.121094 110.269531 C 51.132812 110.898438 53.203125 111.472656 55.324219 111.984375 L 55.324219 93.300781 C 54.84375 93.1875 54.363281 93.074219 53.886719 92.957031 Z M 112.300781 80.097656 C 115.714844 79.191406 118.851562 78.136719 121.65625 76.941406 C 130.277344 73.277344 135.585938 68.492188 135.585938 63.417969 C 135.585938 61.84375 135.070312 60.296875 134.105469 58.8125 C 133.691406 58.171875 133.195312 57.546875 132.625 56.933594 C 132.625 56.953125 132.621094 56.972656 132.621094 56.992188 C 132.617188 57.046875 132.617188 57.097656 132.613281 57.148438 C 132.609375 57.234375 132.601562 57.320312 132.597656 57.40625 C 132.59375 57.484375 132.585938 57.5625 132.578125 57.640625 C 132.570312 57.71875 132.566406 57.796875 132.558594 57.878906 C 132.550781 57.960938 132.539062 58.039062 132.53125 58.121094 C 132.519531 58.207031 132.511719 58.289062 132.5 58.375 C 132.46875 58.625 132.429688 58.867188 132.390625 59.109375 C 132.378906 59.179688 132.367188 59.246094 132.351562 59.3125 C 132.300781 59.589844 132.242188 59.863281 132.179688 60.140625 C 132.171875 60.175781 132.164062 60.207031 132.15625 60.238281 C 131.769531 61.859375 131.15625 63.4375 130.328125 64.972656 C 130.304688 65.015625 130.277344 65.0625 130.253906 65.109375 C 130.121094 65.347656 129.984375 65.585938 129.839844 65.828125 C 129.792969 65.910156 129.742188 65.992188 129.695312 66.070312 C 129.574219 66.261719 129.453125 66.453125 129.328125 66.644531 C 129.25 66.757812 129.179688 66.875 129.101562 66.984375 C 129.011719 67.117188 128.914062 67.253906 128.820312 67.382812 C 127.886719 68.703125 126.796875 69.984375 125.554688 71.207031 C 125.503906 71.261719 125.457031 71.308594 125.402344 71.355469 C 123.964844 72.757812 122.335938 74.101562 120.535156 75.359375 C 118.699219 76.648438 116.6875 77.863281 114.527344 78.988281 C 114.523438 78.992188 114.519531 78.992188 114.515625 78.996094 C 114.507812 79 114.5 79.003906 114.488281 79.011719 C 114.09375 79.21875 113.695312 79.421875 113.292969 79.621094 C 113.214844 79.65625 113.140625 79.695312 113.066406 79.730469 C 112.816406 79.84375 112.558594 79.972656 112.300781 80.097656 Z M 10.792969 68.847656 C 12.546875 70.46875 14.628906 72.011719 16.996094 73.453125 L 16.996094 55.195312 C 16.820312 55.097656 16.644531 55.003906 16.472656 54.90625 C 16.324219 54.820312 16.175781 54.738281 16.027344 54.652344 C 15.796875 54.519531 15.574219 54.390625 15.347656 54.257812 C 15.203125 54.171875 15.058594 54.085938 14.914062 53.996094 C 14.6875 53.859375 14.46875 53.722656 14.25 53.585938 C 14.113281 53.5 13.976562 53.414062 13.839844 53.328125 C 13.617188 53.1875 13.394531 53.039062 13.175781 52.894531 C 13.054688 52.8125 12.929688 52.730469 12.804688 52.644531 C 12.574219 52.488281 12.34375 52.332031 12.121094 52.171875 C 12.015625 52.097656 11.910156 52.023438 11.808594 51.953125 C 11.546875 51.765625 11.292969 51.578125 11.035156 51.386719 C 10.972656 51.335938 10.910156 51.292969 10.84375 51.242188 C 10.828125 51.234375 10.8125 51.21875 10.792969 51.207031 Z M 17.859375 129.660156 C 19.617188 131.285156 21.699219 132.824219 24.058594 134.265625 L 24.058594 116.007812 C 23.890625 115.914062 23.722656 115.820312 23.554688 115.726562 C 23.390625 115.632812 23.226562 115.539062 23.066406 115.445312 C 22.851562 115.320312 22.640625 115.199219 22.433594 115.074219 C 22.273438 114.980469 22.117188 114.886719 21.964844 114.792969 C 21.753906 114.664062 21.542969 114.535156 21.335938 114.40625 C 21.1875 114.3125 21.042969 114.21875 20.894531 114.125 C 20.683594 113.988281 20.476562 113.851562 20.269531 113.714844 C 20.132812 113.625 19.996094 113.535156 19.863281 113.445312 C 19.644531 113.296875 19.433594 113.148438 19.21875 113 C 19.101562 112.917969 18.984375 112.832031 18.867188 112.75 C 18.621094 112.578125 18.386719 112.402344 18.148438 112.226562 C 18.066406 112.167969 17.984375 112.105469 17.90625 112.046875 C 17.890625 112.035156 17.875 112.023438 17.863281 112.015625 L 17.863281 129.660156 Z M 38.828125 122.054688 L 38.828125 140.765625 C 40.820312 141.398438 42.890625 141.972656 45.03125 142.492188 L 45.03125 123.703125 C 42.894531 123.210938 40.828125 122.660156 38.828125 122.054688 Z M 49.316406 143.433594 C 51.328125 143.835938 53.398438 144.183594 55.519531 144.484375 L 55.519531 125.625 C 53.40625 125.335938 51.335938 124.996094 49.316406 124.609375 Z M 59.800781 145.011719 C 61.832031 145.226562 63.898438 145.390625 66.003906 145.511719 L 66.003906 126.621094 C 63.90625 126.511719 61.835938 126.34375 59.800781 126.140625 Z M 80.769531 126.617188 L 80.769531 145.507812 C 82.871094 145.390625 84.941406 145.222656 86.96875 145.007812 L 86.96875 126.136719 C 84.9375 126.34375 82.867188 126.507812 80.769531 126.617188 Z M 91.257812 144.484375 C 93.371094 144.183594 95.441406 143.835938 97.457031 143.433594 L 97.457031 124.609375 C 95.4375 124.996094 93.371094 125.335938 91.257812 125.625 Z M 101.742188 142.492188 C 103.882812 141.976562 105.953125 141.398438 107.941406 140.765625 L 107.941406 122.0625 C 107.90625 122.074219 107.875 122.082031 107.847656 122.09375 C 105.878906 122.679688 103.839844 123.21875 101.742188 123.703125 Z M 122.710938 116.007812 L 122.710938 134.265625 C 125.074219 132.824219 127.15625 131.285156 128.914062 129.660156 L 128.914062 112.019531 C 128.90625 112.027344 128.894531 112.035156 128.882812 112.042969 C 128.660156 112.210938 128.425781 112.378906 128.199219 112.546875 C 128.003906 112.6875 127.8125 112.828125 127.613281 112.96875 C 127.359375 113.144531 127.101562 113.316406 126.847656 113.488281 C 126.65625 113.617188 126.472656 113.746094 126.28125 113.871094 C 126.003906 114.050781 125.714844 114.234375 125.429688 114.414062 C 125.246094 114.523438 125.070312 114.640625 124.886719 114.753906 C 124.578125 114.941406 124.265625 115.125 123.949219 115.308594 C 123.777344 115.410156 123.609375 115.511719 123.429688 115.613281 C 123.191406 115.742188 122.953125 115.875 122.710938 116.007812 Z M 136.367188 101.597656 C 137.390625 100.835938 138.335938 100.058594 139.207031 99.253906 L 139.207031 81.613281 C 139.191406 81.625 139.171875 81.636719 139.160156 81.652344 C 139.09375 81.703125 139.027344 81.75 138.964844 81.796875 C 138.710938 81.984375 138.457031 82.175781 138.195312 82.359375 C 138.089844 82.4375 137.984375 82.507812 137.878906 82.582031 C 137.65625 82.738281 137.425781 82.902344 137.195312 83.058594 C 137.070312 83.140625 136.945312 83.222656 136.824219 83.304688 C 136.601562 83.453125 136.382812 83.59375 136.160156 83.742188 C 136.023438 83.828125 135.890625 83.914062 135.75 84 C 135.527344 84.140625 135.308594 84.273438 135.082031 84.414062 C 134.941406 84.5 134.796875 84.585938 134.65625 84.671875 C 134.429688 84.804688 134.199219 84.9375 133.96875 85.074219 C 133.824219 85.15625 133.679688 85.242188 133.535156 85.324219 C 133.359375 85.421875 133.179688 85.519531 133.003906 85.617188 L 133.003906 103.808594 C 134.097656 103.164062 135.175781 102.492188 136.300781 101.652344 C 136.324219 101.621094 136.347656 101.613281 136.367188 101.597656 Z M 4.28125 33.003906 C 4.28125 35.332031 4.914062 37.609375 6.089844 39.792969 C 7.039062 41.550781 8.34375 43.25 9.972656 44.871094 C 10.097656 44.972656 10.214844 45.089844 10.320312 45.21875 C 12.847656 47.65625 16.09375 49.917969 19.9375 51.9375 C 20.054688 51.984375 20.167969 52.042969 20.273438 52.109375 C 20.792969 52.378906 21.320312 52.644531 21.859375 52.90625 C 24.410156 54.132812 27.183594 55.253906 30.144531 56.253906 C 30.253906 56.28125 30.363281 56.316406 30.464844 56.359375 C 33.589844 57.402344 36.921875 58.3125 40.433594 59.070312 C 40.511719 59.082031 40.589844 59.101562 40.664062 59.117188 C 43.898438 59.8125 47.28125 60.375 50.777344 60.800781 C 50.808594 60.804688 50.839844 60.808594 50.867188 60.8125 C 55.808594 61.410156 60.984375 61.730469 66.320312 61.730469 C 71.652344 61.730469 76.824219 61.410156 81.761719 60.816406 C 81.796875 60.8125 81.828125 60.808594 81.863281 60.804688 C 85.363281 60.382812 88.746094 59.816406 91.984375 59.121094 C 92.054688 59.105469 92.125 59.089844 92.199219 59.078125 C 95.707031 58.316406 99.042969 57.410156 102.167969 56.367188 C 102.273438 56.320312 102.378906 56.289062 102.492188 56.257812 C 105.453125 55.257812 108.230469 54.136719 110.777344 52.910156 C 111.320312 52.648438 111.847656 52.382812 112.367188 52.113281 C 112.46875 52.050781 112.578125 51.992188 112.691406 51.949219 C 116.539062 49.925781 119.789062 47.667969 122.316406 45.226562 C 122.417969 45.097656 122.535156 44.984375 122.664062 44.886719 C 124.707031 42.84375 126.246094 40.683594 127.207031 38.433594 C 127.957031 36.671875 128.355469 34.859375 128.355469 33.011719 C 128.355469 25.378906 121.640625 18.332031 110.777344 13.109375 C 99.445312 7.660156 83.726562 4.289062 66.320312 4.289062 C 48.90625 4.289062 33.191406 7.660156 21.859375 13.109375 C 11.003906 18.328125 4.28125 25.371094 4.28125 33.003906 Z M 4.28125 56.1875 C 4.28125 58.777344 5.058594 61.300781 6.507812 63.707031 L 6.507812 47.421875 C 6.433594 47.347656 6.367188 47.277344 6.296875 47.203125 C 6.128906 47.019531 5.957031 46.839844 5.796875 46.65625 C 5.71875 46.570312 5.640625 46.484375 5.566406 46.394531 C 5.402344 46.210938 5.246094 46.027344 5.09375 45.84375 C 5.019531 45.757812 4.949219 45.671875 4.878906 45.589844 C 4.722656 45.398438 4.570312 45.203125 4.421875 45.007812 C 4.375 44.949219 4.328125 44.890625 4.28125 44.832031 Z M 13.597656 86.253906 C 12.136719 88.660156 11.351562 91.199219 11.351562 93.816406 C 11.351562 95.089844 11.542969 96.34375 11.902344 97.578125 C 13.710938 103.746094 19.878906 109.363281 28.925781 113.71875 C 40.261719 119.167969 55.976562 122.539062 73.386719 122.539062 C 85.605469 122.539062 96.992188 120.875 106.625 117.992188 C 106.890625 117.914062 107.148438 117.832031 107.410156 117.75 C 107.707031 117.65625 108.007812 117.566406 108.304688 117.472656 C 108.582031 117.382812 108.855469 117.289062 109.132812 117.199219 C 109.355469 117.125 109.578125 117.050781 109.800781 116.976562 C 108.171875 117.328125 106.597656 117.617188 105.046875 117.867188 C 103.300781 118.160156 101.519531 118.414062 99.707031 118.636719 C 99.667969 118.640625 99.625 118.644531 99.585938 118.648438 C 95.007812 119.203125 90.242188 119.523438 85.347656 119.582031 C 85.34375 119.582031 85.34375 119.582031 85.339844 119.582031 C 84.789062 119.589844 84.234375 119.59375 83.679688 119.59375 C 78.203125 119.59375 72.875 119.265625 67.78125 118.648438 C 67.734375 118.644531 67.691406 118.640625 67.644531 118.636719 C 65.378906 118.359375 63.152344 118.023438 60.984375 117.636719 C 48.621094 116.464844 37.8125 113.5625 30.105469 109.574219 C 22.027344 105.394531 17.203125 99.929688 17.203125 93.816406 C 17.203125 93.132812 17.269531 92.421875 17.402344 91.703125 L 17.402344 91.695312 C 17.488281 91.21875 17.613281 90.742188 17.761719 90.273438 C 17.636719 89.710938 17.542969 89.144531 17.480469 88.570312 C 17.480469 88.558594 17.476562 88.546875 17.476562 88.535156 C 17.476562 88.53125 17.476562 88.523438 17.476562 88.519531 C 17.402344 87.886719 17.367188 87.242188 17.363281 86.601562 C 17.363281 86.597656 17.363281 86.59375 17.363281 86.589844 L 17.363281 81.636719 C 15.828125 83.113281 14.566406 84.660156 13.597656 86.253906 Z M 11.351562 116.996094 C 11.351562 119.585938 12.128906 122.109375 13.574219 124.523438 L 13.574219 108.234375 C 13.5 108.160156 13.429688 108.082031 13.359375 108.003906 C 13.191406 107.832031 13.03125 107.65625 12.875 107.480469 C 12.792969 107.386719 12.707031 107.296875 12.625 107.203125 C 12.46875 107.023438 12.320312 106.84375 12.167969 106.664062 C 12.09375 106.574219 12.015625 106.480469 11.941406 106.390625 C 11.789062 106.207031 11.644531 106.019531 11.496094 105.832031 C 11.449219 105.769531 11.394531 105.703125 11.347656 105.640625 L 11.347656 116.996094 Z M 28.921875 136.894531 C 30.695312 137.746094 32.570312 138.542969 34.546875 139.289062 L 34.546875 120.652344 C 32.375 119.878906 30.300781 119.042969 28.34375 118.152344 L 28.34375 136.605469 C 28.539062 136.707031 28.730469 136.800781 28.921875 136.894531 Z M 76.488281 145.679688 L 76.488281 126.785156 C 75.460938 126.804688 74.429688 126.820312 73.386719 126.820312 C 72.347656 126.820312 71.3125 126.808594 70.285156 126.785156 L 70.285156 145.675781 C 71.3125 145.699219 72.347656 145.714844 73.386719 145.714844 C 74.425781 145.71875 75.460938 145.703125 76.488281 145.679688 Z M 117.847656 136.894531 C 118.042969 136.800781 118.234375 136.703125 118.425781 136.609375 L 118.425781 118.15625 C 118.042969 118.332031 117.652344 118.503906 117.257812 118.671875 C 117.183594 118.707031 117.109375 118.738281 117.035156 118.773438 C 116.484375 119.015625 115.921875 119.246094 115.355469 119.476562 C 115.339844 119.484375 115.320312 119.488281 115.304688 119.492188 C 114.304688 119.894531 113.277344 120.28125 112.226562 120.65625 L 112.226562 139.289062 C 114.199219 138.546875 116.078125 137.746094 117.847656 136.894531 Z M 135.421875 107.386719 C 134.730469 107.832031 133.957031 108.273438 133.195312 108.6875 L 133.195312 124.523438 C 134.648438 122.113281 135.421875 119.585938 135.421875 116.996094 Z M 145.589844 75.398438 C 145.4375 75.601562 145.273438 75.800781 145.113281 76 C 145.046875 76.082031 144.980469 76.164062 144.910156 76.246094 C 144.753906 76.4375 144.59375 76.625 144.425781 76.8125 C 144.351562 76.894531 144.277344 76.980469 144.203125 77.0625 C 144.039062 77.246094 143.867188 77.429688 143.695312 77.613281 C 143.628906 77.683594 143.558594 77.761719 143.488281 77.832031 L 143.488281 94.117188 C 144.9375 91.710938 145.71875 89.183594 145.71875 86.589844 L 145.71875 75.238281 C 145.675781 75.292969 145.632812 75.34375 145.589844 75.398438 Z M 145.589844 75.398438 " fill-opacity="1" fill-rule="nonzero"/><path fill="#946a29" d="M 66.324219 0 Z M 57.027344 45.160156 C 57.605469 45.394531 58.230469 45.578125 58.90625 45.703125 L 58.082031 47.746094 C 57.644531 48.839844 58.175781 50.085938 59.273438 50.523438 C 60.367188 50.960938 61.613281 50.429688 62.050781 49.335938 L 63.28125 46.273438 L 63.710938 46.332031 C 66.113281 46.636719 68.585938 46.167969 70.632812 45.167969 C 72.785156 44.121094 74.527344 42.457031 75.339844 40.441406 C 75.558594 39.898438 75.703125 39.339844 75.773438 38.785156 L 75.773438 38.777344 C 75.96875 37.234375 75.582031 35.765625 74.722656 34.515625 C 73.921875 33.355469 72.71875 32.402344 71.203125 31.796875 C 70.441406 31.488281 69.585938 31.265625 68.65625 31.148438 L 64.519531 30.625 C 63.976562 30.558594 63.472656 30.425781 63.023438 30.246094 C 62.304688 29.957031 61.757812 29.546875 61.433594 29.070312 C 61.167969 28.679688 61.042969 28.226562 61.101562 27.761719 L 61.109375 27.753906 C 61.132812 27.558594 61.183594 27.359375 61.265625 27.160156 C 61.660156 26.171875 62.636719 25.296875 63.882812 24.691406 C 65.234375 24.035156 66.84375 23.722656 68.390625 23.914062 L 70.339844 24.160156 C 70.417969 24.175781 70.492188 24.183594 70.570312 24.191406 L 72.523438 24.4375 C 73.070312 24.507812 73.570312 24.636719 74.019531 24.816406 C 74.738281 25.105469 75.28125 25.519531 75.609375 25.996094 C 75.878906 26.382812 76 26.835938 75.941406 27.304688 C 75.917969 27.488281 75.863281 27.691406 75.777344 27.902344 C 75.335938 29 75.871094 30.242188 76.964844 30.683594 C 78.058594 31.121094 79.304688 30.589844 79.742188 29.492188 C 79.960938 28.949219 80.105469 28.394531 80.175781 27.839844 L 80.175781 27.832031 C 80.371094 26.289062 79.984375 24.816406 79.125 23.574219 C 78.328125 22.414062 77.121094 21.460938 75.609375 20.855469 C 75.03125 20.621094 74.402344 20.4375 73.730469 20.308594 L 74.550781 18.265625 C 74.988281 17.171875 74.457031 15.925781 73.359375 15.488281 C 72.265625 15.046875 71.019531 15.582031 70.582031 16.675781 L 69.347656 19.734375 L 68.90625 19.679688 C 66.511719 19.378906 64.042969 19.84375 61.996094 20.84375 C 59.84375 21.890625 58.097656 23.554688 57.285156 25.570312 C 57.058594 26.128906 56.914062 26.6875 56.855469 27.234375 C 56.660156 28.785156 57.046875 30.25 57.902344 31.5 C 58.703125 32.660156 59.910156 33.609375 61.421875 34.21875 C 62.1875 34.527344 63.042969 34.746094 63.972656 34.863281 L 68.109375 35.386719 C 68.652344 35.453125 69.152344 35.582031 69.605469 35.765625 C 70.320312 36.050781 70.863281 36.464844 71.195312 36.941406 C 71.460938 37.328125 71.582031 37.78125 71.523438 38.25 C 71.5 38.433594 71.445312 38.636719 71.359375 38.851562 C 70.960938 39.839844 69.984375 40.714844 68.742188 41.320312 C 67.386719 41.980469 65.773438 42.292969 64.234375 42.097656 L 62.289062 41.855469 C 62.203125 41.839844 62.125 41.828125 62.042969 41.824219 L 60.097656 41.578125 C 59.554688 41.507812 59.050781 41.378906 58.601562 41.199219 C 57.886719 40.910156 57.339844 40.496094 57.011719 40.019531 C 56.746094 39.632812 56.621094 39.179688 56.679688 38.710938 C 56.703125 38.527344 56.761719 38.324219 56.847656 38.109375 C 57.285156 37.015625 56.753906 35.769531 55.65625 35.332031 C 54.5625 34.894531 53.316406 35.425781 52.878906 36.519531 C 52.660156 37.066406 52.519531 37.621094 52.449219 38.175781 L 52.449219 38.183594 C 52.253906 39.726562 52.640625 41.199219 53.496094 42.441406 C 54.308594 43.601562 55.515625 44.554688 57.027344 45.160156 Z M 66.324219 8.597656 Z M 10.132812 33.003906 C 10.132812 25.90625 16.691406 19.648438 27.292969 15.285156 C 37.324219 11.152344 51.128906 8.59375 66.324219 8.59375 C 81.515625 8.59375 95.320312 11.152344 105.351562 15.285156 C 115.953125 19.648438 122.511719 25.90625 122.511719 33.003906 C 122.511719 40.101562 115.953125 46.359375 105.351562 50.722656 C 95.320312 54.855469 81.515625 57.414062 66.324219 57.414062 C 51.128906 57.414062 37.324219 54.855469 27.292969 50.722656 C 16.691406 46.359375 10.132812 40.101562 10.132812 33.003906 Z M 14.414062 33.003906 C 14.414062 38.203125 19.957031 43.082031 28.917969 46.773438 C 38.445312 50.699219 51.667969 53.125 66.324219 53.125 C 80.976562 53.125 94.199219 50.695312 103.730469 46.773438 C 112.6875 43.082031 118.230469 38.203125 118.230469 33.003906 C 118.230469 27.804688 112.6875 22.921875 103.730469 19.234375 C 94.199219 15.308594 80.976562 12.882812 66.324219 12.882812 C 51.667969 12.882812 38.445312 15.3125 28.917969 19.234375 C 19.957031 22.921875 14.414062 27.804688 14.414062 33.003906 Z M 150 63.410156 L 150 86.585938 C 150 91.980469 147.484375 97.039062 143.011719 101.492188 C 142.914062 101.613281 142.800781 101.726562 142.675781 101.824219 C 141.761719 102.707031 140.769531 103.566406 139.703125 104.402344 L 139.707031 116.996094 C 139.707031 126.410156 132.054688 134.796875 119.6875 140.742188 C 107.796875 146.464844 91.421875 150 73.386719 150 C 55.355469 150 38.976562 146.460938 27.085938 140.742188 C 14.71875 134.792969 7.070312 126.410156 7.070312 116.996094 L 7.070312 93.820312 C 7.070312 93.820312 7.070312 93.820312 7.070312 93.816406 C 7.070312 90.417969 8.078125 87.136719 9.953125 84.046875 C 11.347656 81.75 13.222656 79.570312 15.515625 77.535156 C 12.347656 75.667969 9.59375 73.617188 7.320312 71.414062 C 7.199219 71.316406 7.089844 71.210938 6.992188 71.09375 C 2.515625 66.636719 0 61.578125 0 56.1875 L 0 33.003906 C 0 23.589844 7.652344 15.207031 20.015625 9.253906 C 31.914062 3.539062 48.289062 0 66.324219 0 C 84.355469 0 100.734375 3.539062 112.625 9.257812 C 124.992188 15.207031 132.640625 23.59375 132.640625 33.007812 L 132.640625 41.023438 C 137.847656 43.832031 142.066406 47.109375 145.03125 50.714844 C 148.238281 54.609375 150 58.894531 150 63.410156 Z M 132.640625 45.925781 L 132.640625 51.214844 C 134.765625 52.84375 136.472656 54.609375 137.683594 56.484375 C 139.109375 58.671875 139.867188 60.996094 139.867188 63.414062 C 139.867188 70.375 133.5625 76.523438 123.328125 80.871094 C 113.671875 84.976562 100.339844 87.59375 85.5625 87.796875 C 85.46875 87.808594 85.371094 87.820312 85.273438 87.835938 C 85.09375 87.863281 84.914062 87.890625 84.734375 87.914062 C 83.984375 88.019531 83.226562 88.121094 82.464844 88.214844 C 82.410156 88.222656 82.355469 88.230469 82.296875 88.238281 C 82.292969 88.238281 82.289062 88.238281 82.285156 88.238281 C 82.273438 88.238281 82.265625 88.242188 82.25 88.242188 C 82.152344 88.253906 82.050781 88.265625 81.953125 88.273438 C 81.277344 88.355469 80.601562 88.429688 79.921875 88.5 C 79.808594 88.511719 79.695312 88.523438 79.582031 88.535156 C 78.804688 88.613281 78.027344 88.679688 77.242188 88.742188 C 77.167969 88.75 77.09375 88.757812 77.015625 88.761719 C 76.902344 88.769531 76.78125 88.78125 76.664062 88.789062 C 76.40625 88.808594 76.152344 88.828125 75.890625 88.84375 C 75.773438 88.851562 75.652344 88.859375 75.53125 88.867188 C 72.519531 89.074219 69.445312 89.183594 66.324219 89.183594 C 63.222656 89.183594 60.167969 89.074219 57.179688 88.871094 C 57.027344 88.859375 56.867188 88.851562 56.71875 88.839844 C 56.484375 88.828125 56.246094 88.808594 56.011719 88.789062 C 55.882812 88.777344 55.75 88.769531 55.625 88.757812 L 55.046875 88.710938 C 54.902344 88.699219 54.757812 88.6875 54.613281 88.671875 L 54.332031 88.648438 C 54.40625 88.667969 54.472656 88.6875 54.542969 88.703125 C 55.183594 88.863281 55.828125 89.019531 56.484375 89.171875 C 56.484375 89.171875 56.488281 89.171875 56.488281 89.171875 C 56.9375 89.273438 57.390625 89.375 57.839844 89.472656 C 57.898438 89.484375 57.957031 89.492188 58.011719 89.507812 C 61.253906 90.203125 64.640625 90.769531 68.148438 91.195312 C 68.171875 91.199219 68.191406 91.199219 68.210938 91.203125 C 73.160156 91.800781 78.335938 92.121094 83.679688 92.121094 C 89.003906 92.121094 94.167969 91.808594 99.097656 91.210938 C 99.144531 91.203125 99.191406 91.199219 99.238281 91.195312 C 101.3125 90.945312 103.351562 90.644531 105.332031 90.296875 C 106.6875 90.058594 108.019531 89.796875 109.324219 89.519531 C 109.40625 89.496094 109.488281 89.480469 109.574219 89.46875 C 109.578125 89.46875 109.585938 89.464844 109.589844 89.464844 C 110.980469 89.164062 112.347656 88.835938 113.679688 88.488281 C 115.699219 87.964844 117.644531 87.386719 119.519531 86.761719 C 119.628906 86.710938 119.746094 86.671875 119.863281 86.644531 C 122.824219 85.640625 125.589844 84.523438 128.136719 83.300781 C 128.675781 83.042969 129.203125 82.777344 129.71875 82.511719 C 129.824219 82.445312 129.9375 82.386719 130.054688 82.339844 C 133.898438 80.316406 137.148438 78.054688 139.675781 75.617188 C 139.777344 75.496094 139.894531 75.382812 140.015625 75.28125 C 143.667969 71.640625 145.710938 67.613281 145.710938 63.40625 C 145.710938 59.914062 144.296875 56.539062 141.730469 53.417969 C 139.507812 50.714844 136.425781 48.191406 132.640625 45.925781 Z M 126.347656 47.195312 C 126.277344 47.273438 126.203125 47.347656 126.132812 47.425781 L 126.132812 63.710938 C 126.257812 63.507812 126.378906 63.296875 126.492188 63.085938 C 126.566406 62.949219 126.636719 62.808594 126.707031 62.671875 C 126.753906 62.578125 126.800781 62.492188 126.84375 62.402344 C 126.933594 62.21875 127.019531 62.039062 127.097656 61.855469 C 127.117188 61.820312 127.132812 61.78125 127.152344 61.742188 C 127.238281 61.546875 127.316406 61.351562 127.394531 61.15625 C 127.40625 61.121094 127.421875 61.089844 127.433594 61.058594 C 127.507812 60.863281 127.578125 60.664062 127.640625 60.464844 C 127.652344 60.425781 127.667969 60.390625 127.679688 60.347656 C 127.742188 60.15625 127.800781 59.964844 127.851562 59.773438 C 127.867188 59.722656 127.878906 59.671875 127.894531 59.621094 C 127.941406 59.441406 127.988281 59.261719 128.027344 59.082031 C 128.042969 59.015625 128.058594 58.941406 128.070312 58.875 C 128.105469 58.710938 128.136719 58.546875 128.167969 58.375 C 128.183594 58.28125 128.195312 58.191406 128.207031 58.097656 C 128.230469 57.953125 128.253906 57.804688 128.269531 57.660156 C 128.285156 57.53125 128.292969 57.410156 128.300781 57.28125 C 128.3125 57.164062 128.324219 57.046875 128.332031 56.929688 C 128.34375 56.710938 128.351562 56.492188 128.351562 56.277344 C 128.351562 56.246094 128.355469 56.21875 128.355469 56.191406 L 128.355469 44.839844 C 128.308594 44.898438 128.261719 44.957031 128.210938 45.019531 C 128.066406 45.210938 127.917969 45.402344 127.757812 45.59375 C 127.6875 45.683594 127.613281 45.769531 127.539062 45.859375 C 127.386719 46.039062 127.234375 46.222656 127.074219 46.398438 C 126.992188 46.488281 126.910156 46.582031 126.828125 46.671875 C 126.675781 46.84375 126.515625 47.019531 126.347656 47.195312 Z M 79.453125 84.246094 C 79.605469 84.234375 79.753906 84.214844 79.90625 84.199219 L 79.90625 65.324219 C 77.871094 65.53125 75.800781 65.695312 73.703125 65.808594 L 73.703125 84.699219 C 74.398438 84.660156 75.097656 84.613281 75.792969 84.566406 C 75.898438 84.558594 76.011719 84.550781 76.121094 84.539062 C 76.390625 84.519531 76.660156 84.5 76.929688 84.476562 C 77.6875 84.417969 78.4375 84.347656 79.183594 84.273438 C 79.273438 84.265625 79.359375 84.253906 79.453125 84.246094 Z M 56.769531 84.5625 C 57.488281 84.613281 58.210938 84.660156 58.933594 84.703125 L 58.933594 65.8125 C 56.839844 65.699219 54.769531 65.535156 52.734375 65.328125 L 52.734375 84.203125 C 52.859375 84.214844 52.984375 84.234375 53.109375 84.242188 C 53.234375 84.253906 53.363281 84.269531 53.488281 84.285156 C 54.207031 84.355469 54.929688 84.421875 55.65625 84.480469 C 55.988281 84.507812 56.3125 84.53125 56.644531 84.558594 C 56.683594 84.554688 56.730469 84.558594 56.769531 84.5625 Z M 112.035156 93.300781 L 112.035156 112.085938 C 114.175781 111.570312 116.246094 110.992188 118.234375 110.363281 L 118.234375 91.648438 C 116.234375 92.253906 114.167969 92.804688 112.035156 93.300781 Z M 122.515625 90.25 L 122.515625 108.890625 C 124.492188 108.140625 126.367188 107.34375 128.136719 106.492188 C 128.332031 106.398438 128.523438 106.300781 128.714844 106.207031 L 128.714844 87.75 C 126.761719 88.640625 124.691406 89.480469 122.515625 90.25 Z M 107.75 94.203125 C 105.726562 94.589844 103.65625 94.929688 101.546875 95.21875 L 101.546875 114.078125 C 103.660156 113.777344 105.730469 113.429688 107.75 113.027344 Z M 97.265625 114.609375 L 97.265625 95.734375 C 95.230469 95.941406 93.160156 96.105469 91.066406 96.21875 L 91.066406 115.105469 C 93.164062 114.984375 95.230469 114.820312 97.265625 114.609375 Z M 83.675781 96.417969 C 82.640625 96.417969 81.605469 96.402344 80.578125 96.378906 L 80.578125 115.261719 C 81.40625 115.28125 82.234375 115.296875 83.0625 115.308594 C 83.269531 115.308594 83.472656 115.3125 83.675781 115.3125 C 84.714844 115.3125 85.75 115.300781 86.777344 115.273438 L 86.777344 96.382812 C 85.75 96.40625 84.71875 96.417969 83.675781 96.417969 Z M 116.164062 54.90625 C 115.992188 55.003906 115.820312 55.097656 115.640625 55.195312 L 115.640625 73.441406 C 116.488281 72.921875 117.308594 72.394531 118.078125 71.855469 C 119.464844 70.878906 120.71875 69.867188 121.84375 68.824219 L 121.84375 51.203125 C 121.828125 51.214844 121.816406 51.226562 121.804688 51.234375 C 121.726562 51.292969 121.640625 51.347656 121.5625 51.410156 C 121.328125 51.585938 121.085938 51.765625 120.839844 51.9375 C 120.726562 52.019531 120.609375 52.097656 120.496094 52.179688 C 120.28125 52.332031 120.0625 52.484375 119.84375 52.632812 C 119.710938 52.722656 119.578125 52.808594 119.445312 52.898438 C 119.234375 53.035156 119.023438 53.175781 118.808594 53.3125 C 118.664062 53.402344 118.523438 53.496094 118.375 53.585938 C 118.167969 53.71875 117.953125 53.851562 117.734375 53.980469 C 117.585938 54.070312 117.433594 54.160156 117.28125 54.253906 C 117.0625 54.386719 116.84375 54.515625 116.621094 54.640625 C 116.472656 54.734375 116.320312 54.820312 116.164062 54.90625 Z M 111.359375 57.34375 C 109.402344 58.238281 107.332031 59.074219 105.15625 59.847656 L 105.15625 78.476562 C 106.003906 78.152344 106.84375 77.820312 107.675781 77.472656 C 108.953125 76.933594 110.183594 76.375 111.355469 75.796875 L 111.355469 57.34375 Z M 100.875 61.246094 C 98.875 61.84375 96.804688 62.394531 94.671875 62.894531 L 94.671875 81.679688 C 95.570312 81.460938 96.460938 81.234375 97.351562 80.988281 L 97.472656 80.960938 C 97.523438 80.953125 97.570312 80.9375 97.617188 80.925781 C 98.34375 80.722656 99.066406 80.515625 99.78125 80.296875 C 99.867188 80.273438 99.957031 80.246094 100.042969 80.21875 C 100.324219 80.132812 100.59375 80.042969 100.871094 79.953125 L 100.871094 61.246094 Z M 90.390625 63.796875 C 88.367188 64.183594 86.300781 64.527344 84.1875 64.816406 L 84.1875 83.671875 C 84.386719 83.644531 84.589844 83.617188 84.789062 83.585938 C 84.976562 83.5625 85.160156 83.53125 85.34375 83.503906 C 85.625 83.464844 85.90625 83.417969 86.183594 83.375 C 86.375 83.34375 86.570312 83.3125 86.757812 83.28125 C 86.90625 83.253906 87.054688 83.226562 87.210938 83.203125 C 88.277344 83.023438 89.335938 82.828125 90.386719 82.617188 L 90.386719 63.796875 Z M 69.421875 84.867188 L 69.421875 65.972656 C 68.390625 65.996094 67.359375 66.011719 66.320312 66.011719 C 65.28125 66.011719 64.246094 66 63.21875 65.972656 L 63.21875 84.867188 C 64.246094 84.890625 65.28125 84.902344 66.320312 84.902344 C 67.359375 84.902344 68.390625 84.890625 69.421875 84.867188 Z M 59.605469 112.929688 C 61.640625 113.335938 63.710938 113.691406 65.808594 113.996094 L 65.808594 95.222656 C 63.699219 94.933594 61.628906 94.59375 59.605469 94.207031 Z M 70.089844 95.730469 L 70.089844 114.535156 C 72.140625 114.761719 74.210938 114.9375 76.292969 115.066406 L 76.292969 96.21875 C 74.195312 96.101562 72.128906 95.9375 70.089844 95.730469 Z M 23.824219 94.027344 L 23.867188 94.097656 L 23.867188 81.644531 C 23.753906 81.597656 23.632812 81.550781 23.515625 81.503906 C 23.230469 81.386719 22.953125 81.257812 22.671875 81.136719 C 22.492188 81.054688 22.3125 80.980469 22.132812 80.902344 C 21.972656 80.832031 21.800781 80.765625 21.640625 80.6875 L 21.640625 86.585938 C 21.640625 87.058594 21.667969 87.527344 21.71875 87.996094 C 21.734375 88.109375 21.75 88.222656 21.765625 88.335938 C 21.777344 88.425781 21.789062 88.515625 21.800781 88.601562 C 21.820312 88.714844 21.839844 88.824219 21.859375 88.933594 C 21.890625 89.097656 21.914062 89.257812 21.953125 89.417969 C 22.039062 89.769531 22.128906 90.101562 22.222656 90.417969 C 22.289062 90.628906 22.359375 90.84375 22.429688 91.0625 C 22.566406 91.460938 22.722656 91.84375 22.894531 92.230469 C 22.964844 92.382812 23.035156 92.535156 23.109375 92.679688 C 23.109375 92.683594 23.109375 92.691406 23.113281 92.695312 C 23.144531 92.761719 23.179688 92.824219 23.207031 92.886719 C 23.367188 93.203125 23.539062 93.523438 23.734375 93.867188 C 23.765625 93.921875 23.792969 93.976562 23.824219 94.027344 Z M 37.964844 62.894531 C 35.832031 62.398438 33.765625 61.84375 31.761719 61.246094 L 31.761719 79.953125 L 32.25 80.109375 L 34.28125 80.710938 C 34.296875 80.714844 34.308594 80.722656 34.320312 80.726562 C 34.433594 80.757812 34.542969 80.789062 34.652344 80.820312 C 35.03125 80.925781 35.40625 81.027344 35.773438 81.125 C 35.820312 81.136719 35.863281 81.144531 35.90625 81.15625 C 36.125 81.214844 36.335938 81.269531 36.550781 81.328125 C 36.859375 81.40625 37.167969 81.484375 37.476562 81.558594 C 37.640625 81.601562 37.804688 81.636719 37.96875 81.675781 L 37.96875 62.894531 Z M 30.082031 100.890625 C 30.320312 101.078125 30.554688 101.265625 30.796875 101.449219 C 30.890625 101.5 30.96875 101.566406 31.042969 101.632812 L 32.101562 102.390625 C 32.492188 102.664062 32.921875 102.949219 33.382812 103.246094 L 34.300781 103.820312 C 34.316406 103.828125 34.335938 103.835938 34.351562 103.847656 L 34.351562 85.601562 C 34.203125 85.519531 34.054688 85.441406 33.90625 85.359375 C 33.703125 85.246094 33.507812 85.128906 33.308594 85.011719 C 33.15625 84.925781 33.003906 84.839844 32.859375 84.753906 L 30.992188 84.191406 C 30.355469 83.992188 29.707031 83.78125 29.050781 83.566406 C 28.960938 83.539062 28.871094 83.511719 28.789062 83.476562 C 28.699219 83.445312 28.613281 83.414062 28.523438 83.386719 C 28.445312 83.359375 28.363281 83.328125 28.28125 83.300781 C 28.238281 83.289062 28.191406 83.273438 28.152344 83.257812 L 28.152344 99.171875 C 28.707031 99.722656 29.324219 100.277344 30.082031 100.890625 Z M 44.839844 108.800781 L 44.839844 90.25 C 44.753906 90.222656 44.664062 90.191406 44.578125 90.15625 C 44.339844 90.070312 44.109375 89.984375 43.871094 89.898438 C 43.625 89.804688 43.371094 89.714844 43.125 89.621094 C 42.890625 89.53125 42.667969 89.441406 42.433594 89.351562 C 42.191406 89.257812 41.949219 89.160156 41.707031 89.066406 C 41.484375 88.976562 41.257812 88.882812 41.035156 88.789062 C 40.796875 88.691406 40.558594 88.59375 40.324219 88.492188 C 40.101562 88.398438 39.886719 88.300781 39.667969 88.207031 C 39.433594 88.105469 39.199219 88.003906 38.96875 87.898438 C 38.859375 87.851562 38.75 87.796875 38.636719 87.746094 L 38.636719 106.152344 C 40.605469 107.109375 42.675781 107.992188 44.839844 108.800781 Z M 48.449219 83.671875 L 48.449219 64.816406 C 46.339844 64.527344 44.269531 64.183594 42.246094 63.796875 L 42.246094 82.617188 C 42.5 82.664062 42.75 82.722656 43 82.769531 C 43.03125 82.777344 43.0625 82.78125 43.089844 82.789062 C 43.847656 82.933594 44.613281 83.070312 45.382812 83.199219 C 45.566406 83.226562 45.746094 83.261719 45.929688 83.292969 C 46.082031 83.316406 46.238281 83.339844 46.390625 83.367188 C 46.710938 83.414062 47.023438 83.46875 47.34375 83.515625 C 47.492188 83.539062 47.644531 83.5625 47.792969 83.582031 C 48.015625 83.613281 48.234375 83.644531 48.449219 83.671875 Z M 21.277344 57.339844 L 21.277344 75.796875 C 21.335938 75.824219 21.398438 75.855469 21.457031 75.886719 C 21.554688 75.933594 21.648438 75.980469 21.746094 76.027344 C 22.824219 76.546875 23.957031 77.054688 25.15625 77.554688 C 25.917969 77.871094 26.695312 78.175781 27.480469 78.472656 L 27.480469 59.84375 C 25.308594 59.070312 23.234375 58.234375 21.277344 57.339844 Z M 53.886719 92.957031 C 53.664062 92.902344 53.441406 92.847656 53.21875 92.785156 C 52.902344 92.703125 52.582031 92.625 52.265625 92.542969 C 52.015625 92.476562 51.769531 92.40625 51.519531 92.339844 C 51.238281 92.261719 50.953125 92.1875 50.671875 92.109375 C 50.417969 92.035156 50.167969 91.960938 49.917969 91.886719 C 49.648438 91.808594 49.382812 91.734375 49.121094 91.652344 L 49.121094 110.269531 C 51.132812 110.898438 53.203125 111.472656 55.324219 111.984375 L 55.324219 93.300781 C 54.84375 93.1875 54.363281 93.074219 53.886719 92.957031 Z M 112.300781 80.097656 C 115.714844 79.191406 118.851562 78.136719 121.65625 76.941406 C 130.277344 73.277344 135.585938 68.492188 135.585938 63.417969 C 135.585938 61.84375 135.070312 60.296875 134.105469 58.8125 C 133.691406 58.171875 133.195312 57.546875 132.625 56.933594 C 132.625 56.953125 132.621094 56.972656 132.621094 56.992188 C 132.617188 57.046875 132.617188 57.097656 132.613281 57.148438 C 132.609375 57.234375 132.601562 57.320312 132.597656 57.40625 C 132.59375 57.484375 132.585938 57.5625 132.578125 57.640625 C 132.570312 57.71875 132.566406 57.796875 132.558594 57.878906 C 132.550781 57.960938 132.539062 58.039062 132.53125 58.121094 C 132.519531 58.207031 132.511719 58.289062 132.5 58.375 C 132.46875 58.625 132.429688 58.867188 132.390625 59.109375 C 132.378906 59.179688 132.367188 59.246094 132.351562 59.3125 C 132.300781 59.589844 132.242188 59.863281 132.179688 60.140625 C 132.171875 60.175781 132.164062 60.207031 132.15625 60.238281 C 131.769531 61.859375 131.15625 63.4375 130.328125 64.972656 C 130.304688 65.015625 130.277344 65.0625 130.253906 65.109375 C 130.121094 65.347656 129.984375 65.585938 129.839844 65.828125 C 129.792969 65.910156 129.742188 65.992188 129.695312 66.070312 C 129.574219 66.261719 129.453125 66.453125 129.328125 66.644531 C 129.25 66.757812 129.179688 66.875 129.101562 66.984375 C 129.011719 67.117188 128.914062 67.253906 128.820312 67.382812 C 127.886719 68.703125 126.796875 69.984375 125.554688 71.207031 C 125.503906 71.261719 125.457031 71.308594 125.402344 71.355469 C 123.964844 72.757812 122.335938 74.101562 120.535156 75.359375 C 118.699219 76.648438 116.6875 77.863281 114.527344 78.988281 C 114.523438 78.992188 114.519531 78.992188 114.515625 78.996094 C 114.507812 79 114.5 79.003906 114.488281 79.011719 C 114.09375 79.21875 113.695312 79.421875 113.292969 79.621094 C 113.214844 79.65625 113.140625 79.695312 113.066406 79.730469 C 112.816406 79.84375 112.558594 79.972656 112.300781 80.097656 Z M 10.792969 68.847656 C 12.546875 70.46875 14.628906 72.011719 16.996094 73.453125 L 16.996094 55.195312 C 16.820312 55.097656 16.644531 55.003906 16.472656 54.90625 C 16.324219 54.820312 16.175781 54.738281 16.027344 54.652344 C 15.796875 54.519531 15.574219 54.390625 15.347656 54.257812 C 15.203125 54.171875 15.058594 54.085938 14.914062 53.996094 C 14.6875 53.859375 14.46875 53.722656 14.25 53.585938 C 14.113281 53.5 13.976562 53.414062 13.839844 53.328125 C 13.617188 53.1875 13.394531 53.039062 13.175781 52.894531 C 13.054688 52.8125 12.929688 52.730469 12.804688 52.644531 C 12.574219 52.488281 12.34375 52.332031 12.121094 52.171875 C 12.015625 52.097656 11.910156 52.023438 11.808594 51.953125 C 11.546875 51.765625 11.292969 51.578125 11.035156 51.386719 C 10.972656 51.335938 10.910156 51.292969 10.84375 51.242188 C 10.828125 51.234375 10.8125 51.21875 10.792969 51.207031 Z M 17.859375 129.660156 C 19.617188 131.285156 21.699219 132.824219 24.058594 134.265625 L 24.058594 116.007812 C 23.890625 115.914062 23.722656 115.820312 23.554688 115.726562 C 23.390625 115.632812 23.226562 115.539062 23.066406 115.445312 C 22.851562 115.320312 22.640625 115.199219 22.433594 115.074219 C 22.273438 114.980469 22.117188 114.886719 21.964844 114.792969 C 21.753906 114.664062 21.542969 114.535156 21.335938 114.40625 C 21.1875 114.3125 21.042969 114.21875 20.894531 114.125 C 20.683594 113.988281 20.476562 113.851562 20.269531 113.714844 C 20.132812 113.625 19.996094 113.535156 19.863281 113.445312 C 19.644531 113.296875 19.433594 113.148438 19.21875 113 C 19.101562 112.917969 18.984375 112.832031 18.867188 112.75 C 18.621094 112.578125 18.386719 112.402344 18.148438 112.226562 C 18.066406 112.167969 17.984375 112.105469 17.90625 112.046875 C 17.890625 112.035156 17.875 112.023438 17.863281 112.015625 L 17.863281 129.660156 Z M 38.828125 122.054688 L 38.828125 140.765625 C 40.820312 141.398438 42.890625 141.972656 45.03125 142.492188 L 45.03125 123.703125 C 42.894531 123.210938 40.828125 122.660156 38.828125 122.054688 Z M 49.316406 143.433594 C 51.328125 143.835938 53.398438 144.183594 55.519531 144.484375 L 55.519531 125.625 C 53.40625 125.335938 51.335938 124.996094 49.316406 124.609375 Z M 59.800781 145.011719 C 61.832031 145.226562 63.898438 145.390625 66.003906 145.511719 L 66.003906 126.621094 C 63.90625 126.511719 61.835938 126.34375 59.800781 126.140625 Z M 80.769531 126.617188 L 80.769531 145.507812 C 82.871094 145.390625 84.941406 145.222656 86.96875 145.007812 L 86.96875 126.136719 C 84.9375 126.34375 82.867188 126.507812 80.769531 126.617188 Z M 91.257812 144.484375 C 93.371094 144.183594 95.441406 143.835938 97.457031 143.433594 L 97.457031 124.609375 C 95.4375 124.996094 93.371094 125.335938 91.257812 125.625 Z M 101.742188 142.492188 C 103.882812 141.976562 105.953125 141.398438 107.941406 140.765625 L 107.941406 122.0625 C 107.90625 122.074219 107.875 122.082031 107.847656 122.09375 C 105.878906 122.679688 103.839844 123.21875 101.742188 123.703125 Z M 122.710938 116.007812 L 122.710938 134.265625 C 125.074219 132.824219 127.15625 131.285156 128.914062 129.660156 L 128.914062 112.019531 C 128.90625 112.027344 128.894531 112.035156 128.882812 112.042969 C 128.660156 112.210938 128.425781 112.378906 128.199219 112.546875 C 128.003906 112.6875 127.8125 112.828125 127.613281 112.96875 C 127.359375 113.144531 127.101562 113.316406 126.847656 113.488281 C 126.65625 113.617188 126.472656 113.746094 126.28125 113.871094 C 126.003906 114.050781 125.714844 114.234375 125.429688 114.414062 C 125.246094 114.523438 125.070312 114.640625 124.886719 114.753906 C 124.578125 114.941406 124.265625 115.125 123.949219 115.308594 C 123.777344 115.410156 123.609375 115.511719 123.429688 115.613281 C 123.191406 115.742188 122.953125 115.875 122.710938 116.007812 Z M 136.367188 101.597656 C 137.390625 100.835938 138.335938 100.058594 139.207031 99.253906 L 139.207031 81.613281 C 139.191406 81.625 139.171875 81.636719 139.160156 81.652344 C 139.09375 81.703125 139.027344 81.75 138.964844 81.796875 C 138.710938 81.984375 138.457031 82.175781 138.195312 82.359375 C 138.089844 82.4375 137.984375 82.507812 137.878906 82.582031 C 137.65625 82.738281 137.425781 82.902344 137.195312 83.058594 C 137.070312 83.140625 136.945312 83.222656 136.824219 83.304688 C 136.601562 83.453125 136.382812 83.59375 136.160156 83.742188 C 136.023438 83.828125 135.890625 83.914062 135.75 84 C 135.527344 84.140625 135.308594 84.273438 135.082031 84.414062 C 134.941406 84.5 134.796875 84.585938 134.65625 84.671875 C 134.429688 84.804688 134.199219 84.9375 133.96875 85.074219 C 133.824219 85.15625 133.679688 85.242188 133.535156 85.324219 C 133.359375 85.421875 133.179688 85.519531 133.003906 85.617188 L 133.003906 103.808594 C 134.097656 103.164062 135.175781 102.492188 136.300781 101.652344 C 136.324219 101.621094 136.347656 101.613281 136.367188 101.597656 Z M 4.28125 33.003906 C 4.28125 35.332031 4.914062 37.609375 6.089844 39.792969 C 7.039062 41.550781 8.34375 43.25 9.972656 44.871094 C 10.097656 44.972656 10.214844 45.089844 10.320312 45.21875 C 12.847656 47.65625 16.09375 49.917969 19.9375 51.9375 C 20.054688 51.984375 20.167969 52.042969 20.273438 52.109375 C 20.792969 52.378906 21.320312 52.644531 21.859375 52.90625 C 24.410156 54.132812 27.183594 55.253906 30.144531 56.253906 C 30.253906 56.28125 30.363281 56.316406 30.464844 56.359375 C 33.589844 57.402344 36.921875 58.3125 40.433594 59.070312 C 40.511719 59.082031 40.589844 59.101562 40.664062 59.117188 C 43.898438 59.8125 47.28125 60.375 50.777344 60.800781 C 50.808594 60.804688 50.839844 60.808594 50.867188 60.8125 C 55.808594 61.410156 60.984375 61.730469 66.320312 61.730469 C 71.652344 61.730469 76.824219 61.410156 81.761719 60.816406 C 81.796875 60.8125 81.828125 60.808594 81.863281 60.804688 C 85.363281 60.382812 88.746094 59.816406 91.984375 59.121094 C 92.054688 59.105469 92.125 59.089844 92.199219 59.078125 C 95.707031 58.316406 99.042969 57.410156 102.167969 56.367188 C 102.273438 56.320312 102.378906 56.289062 102.492188 56.257812 C 105.453125 55.257812 108.230469 54.136719 110.777344 52.910156 C 111.320312 52.648438 111.847656 52.382812 112.367188 52.113281 C 112.46875 52.050781 112.578125 51.992188 112.691406 51.949219 C 116.539062 49.925781 119.789062 47.667969 122.316406 45.226562 C 122.417969 45.097656 122.535156 44.984375 122.664062 44.886719 C 124.707031 42.84375 126.246094 40.683594 127.207031 38.433594 C 127.957031 36.671875 128.355469 34.859375 128.355469 33.011719 C 128.355469 25.378906 121.640625 18.332031 110.777344 13.109375 C 99.445312 7.660156 83.726562 4.289062 66.320312 4.289062 C 48.90625 4.289062 33.191406 7.660156 21.859375 13.109375 C 11.003906 18.328125 4.28125 25.371094 4.28125 33.003906 Z M 4.28125 56.1875 C 4.28125 58.777344 5.058594 61.300781 6.507812 63.707031 L 6.507812 47.421875 C 6.433594 47.347656 6.367188 47.277344 6.296875 47.203125 C 6.128906 47.019531 5.957031 46.839844 5.796875 46.65625 C 5.71875 46.570312 5.640625 46.484375 5.566406 46.394531 C 5.402344 46.210938 5.246094 46.027344 5.09375 45.84375 C 5.019531 45.757812 4.949219 45.671875 4.878906 45.589844 C 4.722656 45.398438 4.570312 45.203125 4.421875 45.007812 C 4.375 44.949219 4.328125 44.890625 4.28125 44.832031 Z M 13.597656 86.253906 C 12.136719 88.660156 11.351562 91.199219 11.351562 93.816406 C 11.351562 95.089844 11.542969 96.34375 11.902344 97.578125 C 13.710938 103.746094 19.878906 109.363281 28.925781 113.71875 C 40.261719 119.167969 55.976562 122.539062 73.386719 122.539062 C 85.605469 122.539062 96.992188 120.875 106.625 117.992188 C 106.890625 117.914062 107.148438 117.832031 107.410156 117.75 C 107.707031 117.65625 108.007812 117.566406 108.304688 117.472656 C 108.582031 117.382812 108.855469 117.289062 109.132812 117.199219 C 109.355469 117.125 109.578125 117.050781 109.800781 116.976562 C 108.171875 117.328125 106.597656 117.617188 105.046875 117.867188 C 103.300781 118.160156 101.519531 118.414062 99.707031 118.636719 C 99.667969 118.640625 99.625 118.644531 99.585938 118.648438 C 95.007812 119.203125 90.242188 119.523438 85.347656 119.582031 C 85.34375 119.582031 85.34375 119.582031 85.339844 119.582031 C 84.789062 119.589844 84.234375 119.59375 83.679688 119.59375 C 78.203125 119.59375 72.875 119.265625 67.78125 118.648438 C 67.734375 118.644531 67.691406 118.640625 67.644531 118.636719 C 65.378906 118.359375 63.152344 118.023438 60.984375 117.636719 C 48.621094 116.464844 37.8125 113.5625 30.105469 109.574219 C 22.027344 105.394531 17.203125 99.929688 17.203125 93.816406 C 17.203125 93.132812 17.269531 92.421875 17.402344 91.703125 L 17.402344 91.695312 C 17.488281 91.21875 17.613281 90.742188 17.761719 90.273438 C 17.636719 89.710938 17.542969 89.144531 17.480469 88.570312 C 17.480469 88.558594 17.476562 88.546875 17.476562 88.535156 C 17.476562 88.53125 17.476562 88.523438 17.476562 88.519531 C 17.402344 87.886719 17.367188 87.242188 17.363281 86.601562 C 17.363281 86.597656 17.363281 86.59375 17.363281 86.589844 L 17.363281 81.636719 C 15.828125 83.113281 14.566406 84.660156 13.597656 86.253906 Z M 11.351562 116.996094 C 11.351562 119.585938 12.128906 122.109375 13.574219 124.523438 L 13.574219 108.234375 C 13.5 108.160156 13.429688 108.082031 13.359375 108.003906 C 13.191406 107.832031 13.03125 107.65625 12.875 107.480469 C 12.792969 107.386719 12.707031 107.296875 12.625 107.203125 C 12.46875 107.023438 12.320312 106.84375 12.167969 106.664062 C 12.09375 106.574219 12.015625 106.480469 11.941406 106.390625 C 11.789062 106.207031 11.644531 106.019531 11.496094 105.832031 C 11.449219 105.769531 11.394531 105.703125 11.347656 105.640625 L 11.347656 116.996094 Z M 28.921875 136.894531 C 30.695312 137.746094 32.570312 138.542969 34.546875 139.289062 L 34.546875 120.652344 C 32.375 119.878906 30.300781 119.042969 28.34375 118.152344 L 28.34375 136.605469 C 28.539062 136.707031 28.730469 136.800781 28.921875 136.894531 Z M 76.488281 145.679688 L 76.488281 126.785156 C 75.460938 126.804688 74.429688 126.820312 73.386719 126.820312 C 72.347656 126.820312 71.3125 126.808594 70.285156 126.785156 L 70.285156 145.675781 C 71.3125 145.699219 72.347656 145.714844 73.386719 145.714844 C 74.425781 145.71875 75.460938 145.703125 76.488281 145.679688 Z M 117.847656 136.894531 C 118.042969 136.800781 118.234375 136.703125 118.425781 136.609375 L 118.425781 118.15625 C 118.042969 118.332031 117.652344 118.503906 117.257812 118.671875 C 117.183594 118.707031 117.109375 118.738281 117.035156 118.773438 C 116.484375 119.015625 115.921875 119.246094 115.355469 119.476562 C 115.339844 119.484375 115.320312 119.488281 115.304688 119.492188 C 114.304688 119.894531 113.277344 120.28125 112.226562 120.65625 L 112.226562 139.289062 C 114.199219 138.546875 116.078125 137.746094 117.847656 136.894531 Z M 135.421875 107.386719 C 134.730469 107.832031 133.957031 108.273438 133.195312 108.6875 L 133.195312 124.523438 C 134.648438 122.113281 135.421875 119.585938 135.421875 116.996094 Z M 145.589844 75.398438 C 145.4375 75.601562 145.273438 75.800781 145.113281 76 C 145.046875 76.082031 144.980469 76.164062 144.910156 76.246094 C 144.753906 76.4375 144.59375 76.625 144.425781 76.8125 C 144.351562 76.894531 144.277344 76.980469 144.203125 77.0625 C 144.039062 77.246094 143.867188 77.429688 143.695312 77.613281 C 143.628906 77.683594 143.558594 77.761719 143.488281 77.832031 L 143.488281 94.117188 C 144.9375 91.710938 145.71875 89.183594 145.71875 86.589844 L 145.71875 75.238281 C 145.675781 75.292969 145.632812 75.34375 145.589844 75.398438 Z M 145.589844 75.398438 " fill-opacity="1" fill-rule="nonzero"/></svg>