<svg xmlns="http://www.w3.org/2000/svg" xmlns:xlink="http://www.w3.org/1999/xlink" width="90" zoomAndPan="magnify" viewBox="0 0 67.5 68.249996" height="91" preserveAspectRatio="xMidYMid meet" version="1.0"><defs><clipPath id="47e4e408d3"><path d="M 0.121094 0 L 66.886719 0 L 66.886719 66.765625 L 0.121094 66.765625 Z M 0.121094 0 " clip-rule="nonzero"/></clipPath><clipPath id="d3d7359afa"><path d="M 0.121094 0.769531 L 66.886719 0.769531 L 66.886719 67.507812 L 0.121094 67.507812 Z M 0.121094 0.769531 " clip-rule="nonzero"/></clipPath></defs><g clip-path="url(#47e4e408d3)"><path fill="#d6a945" d="M 65.84375 48.851562 C 66.328125 50.148438 66.613281 51.542969 66.65625 53.003906 C 66.664062 53.140625 66.664062 53.28125 66.664062 53.425781 C 66.664062 60.667969 60.789062 66.546875 53.542969 66.546875 C 24.039062 66.546875 0.121094 42.628906 0.121094 13.121094 C 0.121094 5.875 5.996094 0 13.242188 0 C 13.386719 0 13.523438 0 13.664062 0.0117188 C 15.121094 0.0546875 16.519531 0.335938 17.820312 0.824219 L 22.746094 22.148438 C 22.746094 22.160156 22.738281 22.164062 22.730469 22.171875 L 13.695312 26.230469 L 13.667969 26.242188 C 17.8125 38.867188 27.800781 48.851562 40.421875 52.996094 L 40.433594 52.96875 L 44.5 43.929688 L 65.84375 48.851562 " fill-opacity="1" fill-rule="nonzero"/></g><g clip-path="url(#d3d7359afa)"><path fill="#d6a945" d="M 65.84375 49.621094 C 66.328125 50.917969 66.613281 52.3125 66.65625 53.769531 C 66.664062 53.910156 66.664062 54.046875 66.664062 54.191406 C 66.664062 61.4375 60.789062 67.3125 53.542969 67.3125 C 24.039062 67.3125 0.121094 43.394531 0.121094 13.890625 C 0.121094 6.644531 5.996094 0.769531 13.242188 0.769531 C 13.386719 0.769531 13.523438 0.769531 13.664062 0.777344 C 15.121094 0.820312 16.519531 1.105469 17.820312 1.589844 L 22.746094 22.917969 C 22.746094 22.929688 22.738281 22.933594 22.730469 22.9375 L 13.695312 27 L 13.667969 27.011719 C 17.8125 39.632812 27.800781 49.621094 40.421875 53.765625 L 40.433594 53.738281 L 44.5 44.699219 L 65.84375 49.621094 " fill-opacity="1" fill-rule="nonzero"/></g></svg>