<svg xmlns="http://www.w3.org/2000/svg" xmlns:xlink="http://www.w3.org/1999/xlink" width="248" zoomAndPan="magnify" viewBox="0 0 186 179.999997" height="240" preserveAspectRatio="xMidYMid meet" version="1.0"><path fill="#1a1a1a" d="M 46.40625 39.042969 C 45.773438 37.953125 46.148438 36.5625 47.234375 35.929688 L 51.679688 33.359375 C 52.769531 32.726562 54.160156 33.101562 54.792969 34.1875 C 55.421875 35.277344 55.050781 36.671875 53.960938 37.300781 L 49.515625 39.875 C 49.15625 40.082031 48.765625 40.179688 48.378906 40.179688 C 47.589844 40.179688 46.828125 39.773438 46.40625 39.042969 Z M 71.328125 26.925781 C 71.714844 26.925781 72.105469 26.828125 72.464844 26.621094 L 76.910156 24.046875 C 78 23.414062 78.371094 22.023438 77.742188 20.933594 C 77.113281 19.84375 75.71875 19.472656 74.632812 20.105469 L 70.183594 22.675781 C 69.097656 23.308594 68.726562 24.699219 69.355469 25.789062 C 69.777344 26.519531 70.542969 26.925781 71.328125 26.925781 Z M 51.679688 46.460938 L 47.234375 49.035156 C 46.144531 49.664062 45.773438 51.058594 46.40625 52.148438 C 46.828125 52.878906 47.589844 53.285156 48.375 53.285156 C 48.761719 53.285156 49.15625 53.183594 49.515625 52.976562 L 53.960938 50.402344 C 55.050781 49.773438 55.421875 48.378906 54.789062 47.292969 C 54.160156 46.203125 52.769531 45.832031 51.679688 46.460938 Z M 74.628906 33.207031 L 70.183594 35.78125 C 69.097656 36.410156 68.726562 37.804688 69.355469 38.894531 C 69.777344 39.621094 70.539062 40.03125 71.328125 40.03125 C 71.714844 40.03125 72.105469 39.929688 72.464844 39.722656 L 76.910156 37.148438 C 78 36.519531 78.371094 35.125 77.742188 34.039062 C 77.113281 32.949219 75.71875 32.578125 74.628906 33.207031 Z M 71.328125 53.121094 C 71.714844 53.121094 72.105469 53.023438 72.464844 52.816406 L 76.910156 50.242188 C 78 49.613281 78.371094 48.21875 77.742188 47.132812 C 77.113281 46.042969 75.71875 45.671875 74.632812 46.300781 L 70.183594 48.875 C 69.097656 49.503906 68.726562 50.894531 69.355469 51.984375 C 69.777344 52.714844 70.542969 53.121094 71.328125 53.121094 Z M 48.378906 66.378906 C 48.765625 66.378906 49.15625 66.277344 49.515625 66.070312 L 53.960938 63.496094 C 55.050781 62.867188 55.421875 61.472656 54.792969 60.386719 C 54.160156 59.296875 52.769531 58.925781 51.679688 59.554688 L 47.234375 62.128906 C 46.148438 62.757812 45.773438 64.152344 46.40625 65.238281 C 46.828125 65.96875 47.589844 66.378906 48.378906 66.378906 Z M 71.328125 66.226562 C 71.714844 66.226562 72.105469 66.128906 72.464844 65.917969 L 76.910156 63.347656 C 78 62.714844 78.371094 61.324219 77.742188 60.234375 C 77.113281 59.148438 75.71875 58.773438 74.632812 59.402344 L 70.183594 61.976562 C 69.097656 62.609375 68.726562 64 69.355469 65.089844 C 69.777344 65.820312 70.542969 66.226562 71.328125 66.226562 Z M 48.378906 79.480469 C 48.765625 79.480469 49.15625 79.382812 49.515625 79.175781 L 53.960938 76.601562 C 55.050781 75.972656 55.421875 74.578125 54.792969 73.488281 C 54.160156 72.402344 52.769531 72.027344 51.679688 72.660156 L 47.234375 75.230469 C 46.148438 75.863281 45.773438 77.253906 46.40625 78.34375 C 46.828125 79.074219 47.589844 79.480469 48.378906 79.480469 Z M 74.628906 72.496094 L 70.183594 75.070312 C 69.097656 75.699219 68.726562 77.09375 69.355469 78.183594 C 69.777344 78.914062 70.539062 79.320312 71.328125 79.320312 C 71.714844 79.320312 72.105469 79.21875 72.464844 79.011719 L 76.910156 76.4375 C 78 75.808594 78.371094 74.417969 77.742188 73.328125 C 77.113281 72.238281 75.71875 71.867188 74.628906 72.496094 Z M 48.378906 92.574219 C 48.761719 92.574219 49.152344 92.476562 49.511719 92.269531 L 53.957031 89.707031 C 55.046875 89.078125 55.421875 87.6875 54.792969 86.597656 C 54.164062 85.507812 52.773438 85.132812 51.683594 85.761719 L 47.238281 88.324219 C 46.148438 88.949219 45.773438 90.34375 46.402344 91.433594 C 46.824219 92.164062 47.589844 92.574219 48.378906 92.574219 Z M 22.097656 70.574219 C 20.839844 70.574219 19.824219 71.59375 19.824219 72.851562 L 19.824219 106.082031 C 19.824219 107.339844 20.839844 108.359375 22.097656 108.359375 C 23.355469 108.359375 24.375 107.339844 24.375 106.082031 L 24.375 72.851562 C 24.375 71.59375 23.355469 70.574219 22.097656 70.574219 Z M 185.988281 175.4375 L 185.988281 179.992188 L 0.0117188 179.992188 L 0.0117188 175.4375 L 4.136719 175.4375 L 4.136719 152.195312 C 4.136719 152.195312 4.136719 152.191406 4.136719 152.191406 L 4.136719 126.773438 C 4.136719 125.960938 4.574219 125.210938 5.277344 124.800781 L 10.070312 122.035156 L 10.070312 67.835938 C 10.070312 67.023438 10.503906 66.269531 11.207031 65.863281 L 26.546875 57.003906 C 27.253906 56.59375 28.125 56.59375 28.832031 57.007812 L 35.140625 60.679688 L 35.140625 29.394531 C 35.140625 28.582031 35.574219 27.832031 36.277344 27.425781 L 83.222656 0.3125 C 83.925781 -0.09375 84.796875 -0.09375 85.5 0.3125 L 151.808594 38.613281 L 158.867188 42.679688 C 159.574219 43.085938 160.007812 43.839844 160.007812 44.65625 L 160.007812 134.796875 L 180.722656 146.757812 C 181.425781 147.164062 181.859375 147.917969 181.859375 148.730469 L 181.859375 175.4375 Z M 149.535156 42.558594 L 126.511719 29.257812 L 126.511719 115.453125 L 155.457031 132.167969 L 155.457031 45.96875 Z M 121.957031 112.824219 L 121.957031 26.628906 L 87.941406 6.980469 L 87.941406 93.183594 Z M 39.695312 30.710938 L 39.695312 104.925781 L 72.847656 85.78125 C 73.550781 85.375 74.417969 85.375 75.121094 85.78125 L 83.386719 90.554688 L 83.386719 5.476562 Z M 14.625 119.40625 L 35.140625 107.558594 L 35.140625 65.949219 L 27.683594 61.605469 L 14.625 69.152344 Z M 8.691406 128.089844 L 8.691406 149.210938 L 71.707031 131.015625 L 71.707031 91.699219 L 13.472656 125.328125 C 13.457031 125.339844 13.4375 125.351562 13.417969 125.359375 Z M 8.691406 175.4375 L 71.707031 175.4375 L 71.707031 135.757812 L 8.691406 153.953125 Z M 161.527344 153.820312 L 144.808594 145.769531 L 144.808594 175.4375 L 161.527344 175.4375 Z M 140.257812 143.578125 L 123.539062 135.523438 L 123.539062 175.4375 L 140.257812 175.4375 Z M 177.308594 175.4375 L 177.308594 150.042969 L 123.175781 118.789062 C 123.136719 118.765625 123.097656 118.742188 123.058594 118.71875 L 76.261719 91.699219 L 76.261719 132.773438 C 76.261719 132.773438 76.261719 132.777344 76.261719 132.777344 L 76.261719 175.4375 L 118.984375 175.4375 L 118.984375 131.902344 C 118.984375 131.117188 119.386719 130.390625 120.050781 129.972656 C 120.714844 129.554688 121.542969 129.507812 122.25 129.847656 L 164.792969 150.339844 C 165.578125 150.71875 166.082031 151.515625 166.082031 152.390625 L 166.082031 175.4375 Z M 177.308594 175.4375 " fill-opacity="1" fill-rule="nonzero"/><path fill="#1a1a1a" d="M 46.40625 39.042969 C 45.773438 37.953125 46.148438 36.5625 47.234375 35.929688 L 51.679688 33.359375 C 52.769531 32.726562 54.160156 33.101562 54.792969 34.1875 C 55.421875 35.277344 55.050781 36.671875 53.960938 37.300781 L 49.515625 39.875 C 49.15625 40.082031 48.765625 40.179688 48.378906 40.179688 C 47.589844 40.179688 46.828125 39.773438 46.40625 39.042969 Z M 71.328125 26.925781 C 71.714844 26.925781 72.105469 26.828125 72.464844 26.621094 L 76.910156 24.046875 C 78 23.414062 78.371094 22.023438 77.742188 20.933594 C 77.113281 19.84375 75.71875 19.472656 74.632812 20.105469 L 70.183594 22.675781 C 69.097656 23.308594 68.726562 24.699219 69.355469 25.789062 C 69.777344 26.519531 70.542969 26.925781 71.328125 26.925781 Z M 51.679688 46.460938 L 47.234375 49.035156 C 46.144531 49.664062 45.773438 51.058594 46.40625 52.148438 C 46.828125 52.878906 47.589844 53.285156 48.375 53.285156 C 48.761719 53.285156 49.15625 53.183594 49.515625 52.976562 L 53.960938 50.402344 C 55.050781 49.773438 55.421875 48.378906 54.789062 47.292969 C 54.160156 46.203125 52.769531 45.832031 51.679688 46.460938 Z M 74.628906 33.207031 L 70.183594 35.78125 C 69.097656 36.410156 68.726562 37.804688 69.355469 38.894531 C 69.777344 39.621094 70.539062 40.03125 71.328125 40.03125 C 71.714844 40.03125 72.105469 39.929688 72.464844 39.722656 L 76.910156 37.148438 C 78 36.519531 78.371094 35.125 77.742188 34.039062 C 77.113281 32.949219 75.71875 32.578125 74.628906 33.207031 Z M 71.328125 53.121094 C 71.714844 53.121094 72.105469 53.023438 72.464844 52.816406 L 76.910156 50.242188 C 78 49.613281 78.371094 48.21875 77.742188 47.132812 C 77.113281 46.042969 75.71875 45.671875 74.632812 46.300781 L 70.183594 48.875 C 69.097656 49.503906 68.726562 50.894531 69.355469 51.984375 C 69.777344 52.714844 70.542969 53.121094 71.328125 53.121094 Z M 48.378906 66.378906 C 48.765625 66.378906 49.15625 66.277344 49.515625 66.070312 L 53.960938 63.496094 C 55.050781 62.867188 55.421875 61.472656 54.792969 60.386719 C 54.160156 59.296875 52.769531 58.925781 51.679688 59.554688 L 47.234375 62.128906 C 46.148438 62.757812 45.773438 64.152344 46.40625 65.238281 C 46.828125 65.96875 47.589844 66.378906 48.378906 66.378906 Z M 71.328125 66.226562 C 71.714844 66.226562 72.105469 66.128906 72.464844 65.917969 L 76.910156 63.347656 C 78 62.714844 78.371094 61.324219 77.742188 60.234375 C 77.113281 59.148438 75.71875 58.773438 74.632812 59.402344 L 70.183594 61.976562 C 69.097656 62.609375 68.726562 64 69.355469 65.089844 C 69.777344 65.820312 70.542969 66.226562 71.328125 66.226562 Z M 48.378906 79.480469 C 48.765625 79.480469 49.15625 79.382812 49.515625 79.175781 L 53.960938 76.601562 C 55.050781 75.972656 55.421875 74.578125 54.792969 73.488281 C 54.160156 72.402344 52.769531 72.027344 51.679688 72.660156 L 47.234375 75.230469 C 46.148438 75.863281 45.773438 77.253906 46.40625 78.34375 C 46.828125 79.074219 47.589844 79.480469 48.378906 79.480469 Z M 74.628906 72.496094 L 70.183594 75.070312 C 69.097656 75.699219 68.726562 77.09375 69.355469 78.183594 C 69.777344 78.914062 70.539062 79.320312 71.328125 79.320312 C 71.714844 79.320312 72.105469 79.21875 72.464844 79.011719 L 76.910156 76.4375 C 78 75.808594 78.371094 74.417969 77.742188 73.328125 C 77.113281 72.238281 75.71875 71.867188 74.628906 72.496094 Z M 48.378906 92.574219 C 48.761719 92.574219 49.152344 92.476562 49.511719 92.269531 L 53.957031 89.707031 C 55.046875 89.078125 55.421875 87.6875 54.792969 86.597656 C 54.164062 85.507812 52.773438 85.132812 51.683594 85.761719 L 47.238281 88.324219 C 46.148438 88.949219 45.773438 90.34375 46.402344 91.433594 C 46.824219 92.164062 47.589844 92.574219 48.378906 92.574219 Z M 22.097656 70.574219 C 20.839844 70.574219 19.824219 71.59375 19.824219 72.851562 L 19.824219 106.082031 C 19.824219 107.339844 20.839844 108.359375 22.097656 108.359375 C 23.355469 108.359375 24.375 107.339844 24.375 106.082031 L 24.375 72.851562 C 24.375 71.59375 23.355469 70.574219 22.097656 70.574219 Z M 185.988281 175.4375 L 185.988281 179.992188 L 0.0117188 179.992188 L 0.0117188 175.4375 L 4.136719 175.4375 L 4.136719 152.195312 C 4.136719 152.195312 4.136719 152.191406 4.136719 152.191406 L 4.136719 126.773438 C 4.136719 125.960938 4.574219 125.210938 5.277344 124.800781 L 10.070312 122.035156 L 10.070312 67.835938 C 10.070312 67.023438 10.503906 66.269531 11.207031 65.863281 L 26.546875 57.003906 C 27.253906 56.59375 28.125 56.59375 28.832031 57.007812 L 35.140625 60.679688 L 35.140625 29.394531 C 35.140625 28.582031 35.574219 27.832031 36.277344 27.425781 L 83.222656 0.3125 C 83.925781 -0.09375 84.796875 -0.09375 85.5 0.3125 L 151.808594 38.613281 L 158.867188 42.679688 C 159.574219 43.085938 160.007812 43.839844 160.007812 44.65625 L 160.007812 134.796875 L 180.722656 146.757812 C 181.425781 147.164062 181.859375 147.917969 181.859375 148.730469 L 181.859375 175.4375 Z M 149.535156 42.558594 L 126.511719 29.257812 L 126.511719 115.453125 L 155.457031 132.167969 L 155.457031 45.96875 Z M 121.957031 112.824219 L 121.957031 26.628906 L 87.941406 6.980469 L 87.941406 93.183594 Z M 39.695312 30.710938 L 39.695312 104.925781 L 72.847656 85.78125 C 73.550781 85.375 74.417969 85.375 75.121094 85.78125 L 83.386719 90.554688 L 83.386719 5.476562 Z M 14.625 119.40625 L 35.140625 107.558594 L 35.140625 65.949219 L 27.683594 61.605469 L 14.625 69.152344 Z M 8.691406 128.089844 L 8.691406 149.210938 L 71.707031 131.015625 L 71.707031 91.699219 L 13.472656 125.328125 C 13.457031 125.339844 13.4375 125.351562 13.417969 125.359375 Z M 8.691406 175.4375 L 71.707031 175.4375 L 71.707031 135.757812 L 8.691406 153.953125 Z M 161.527344 153.820312 L 144.808594 145.769531 L 144.808594 175.4375 L 161.527344 175.4375 Z M 140.257812 143.578125 L 123.539062 135.523438 L 123.539062 175.4375 L 140.257812 175.4375 Z M 177.308594 175.4375 L 177.308594 150.042969 L 123.175781 118.789062 C 123.136719 118.765625 123.097656 118.742188 123.058594 118.71875 L 76.261719 91.699219 L 76.261719 132.773438 C 76.261719 132.773438 76.261719 132.777344 76.261719 132.777344 L 76.261719 175.4375 L 118.984375 175.4375 L 118.984375 131.902344 C 118.984375 131.117188 119.386719 130.390625 120.050781 129.972656 C 120.714844 129.554688 121.542969 129.507812 122.25 129.847656 L 164.792969 150.339844 C 165.578125 150.71875 166.082031 151.515625 166.082031 152.390625 L 166.082031 175.4375 Z M 177.308594 175.4375 " fill-opacity="1" fill-rule="nonzero"/></svg>