<svg xmlns="http://www.w3.org/2000/svg" xmlns:xlink="http://www.w3.org/1999/xlink" width="403" zoomAndPan="magnify" viewBox="0 0 302.25 302.249993" height="403" preserveAspectRatio="xMidYMid meet" version="1.0"><defs><clipPath id="0cbcbc9677"><path d="M 197 69 L 301.5 69 L 301.5 174 L 197 174 Z M 197 69 " clip-rule="nonzero"/></clipPath><clipPath id="38cb23df5f"><path d="M 197 69 L 301.5 69 L 301.5 174 L 197 174 Z M 197 69 " clip-rule="nonzero"/></clipPath></defs><path fill="#000000" d="M 258.601562 275.878906 L 5.957031 275.878906 C 4.171875 275.878906 2.980469 274.6875 2.980469 272.902344 L 2.980469 265.15625 C 2.980469 259.792969 7.746094 255.023438 13.703125 255.023438 L 250.855469 255.023438 C 256.8125 255.023438 261.578125 259.792969 261.578125 265.15625 L 261.578125 272.902344 C 261.578125 274.6875 259.792969 275.878906 258.601562 275.878906 Z M 8.9375 269.921875 L 255.621094 269.921875 L 255.621094 265.15625 C 255.621094 262.769531 253.238281 260.984375 250.855469 260.984375 L 13.703125 260.984375 C 11.320312 260.984375 8.9375 262.769531 8.9375 265.15625 Z M 8.9375 269.921875 " fill-opacity="1" fill-rule="evenodd"/><path fill="#000000" d="M 245.492188 260.984375 L 19.066406 260.984375 C 17.28125 260.984375 16.089844 259.792969 16.089844 258.003906 L 16.089844 250.257812 C 16.089844 244.894531 20.257812 240.128906 26.21875 240.128906 L 238.339844 240.128906 C 243.703125 240.128906 248.472656 244.894531 248.472656 250.257812 L 248.472656 258.003906 C 248.472656 259.792969 247.277344 260.984375 245.492188 260.984375 Z M 22.046875 255.023438 L 242.511719 255.023438 L 242.511719 250.257812 C 242.511719 247.875 240.726562 246.085938 238.339844 246.085938 L 26.21875 246.085938 C 23.835938 246.085938 22.046875 247.875 22.046875 250.257812 Z M 22.046875 255.023438 " fill-opacity="1" fill-rule="evenodd"/><path fill="#000000" d="M 181.140625 246.085938 L 83.417969 246.085938 C 81.632812 246.085938 80.441406 244.894531 80.441406 243.109375 L 80.441406 98.316406 C 80.441406 92.355469 85.804688 86.996094 91.761719 86.996094 L 166.839844 86.996094 C 168.03125 86.996094 169.816406 88.78125 169.816406 89.972656 C 169.816406 91.761719 168.03125 92.953125 166.839844 92.953125 L 91.761719 92.953125 C 88.78125 92.953125 86.398438 95.335938 86.398438 98.316406 L 86.398438 240.128906 L 178.160156 240.128906 L 178.160156 98.316406 C 177.5625 97.125 179.351562 95.335938 180.542969 95.335938 C 182.332031 95.335938 183.523438 96.527344 183.523438 98.316406 L 184.117188 98.316406 L 184.117188 243.109375 C 184.117188 244.894531 182.332031 246.085938 181.140625 246.085938 Z M 181.140625 246.085938 " fill-opacity="1" fill-rule="evenodd"/><path fill="#000000" d="M 83.417969 246.085938 L 33.964844 246.085938 C 32.175781 246.085938 30.984375 244.894531 30.984375 243.109375 L 30.984375 146.578125 C 30.984375 138.832031 36.941406 132.28125 44.6875 132.28125 L 83.417969 132.28125 C 85.207031 132.28125 86.398438 133.472656 86.398438 135.257812 L 86.398438 243.109375 C 86.398438 244.894531 85.207031 246.085938 83.417969 246.085938 Z M 36.941406 240.128906 L 80.441406 240.128906 L 80.441406 138.238281 L 44.6875 138.238281 C 40.519531 138.238281 36.941406 141.8125 36.941406 146.578125 Z M 36.941406 240.128906 " fill-opacity="1" fill-rule="evenodd"/><path fill="#000000" d="M 159.09375 124.535156 L 105.464844 124.535156 C 101.890625 124.535156 98.910156 122.148438 98.910156 118.574219 L 98.910156 108.445312 C 98.910156 104.871094 101.890625 101.890625 105.464844 101.890625 L 159.09375 101.890625 C 162.667969 101.890625 165.050781 104.871094 165.050781 108.445312 L 165.050781 118.574219 C 165.050781 122.148438 162.667969 124.535156 159.09375 124.535156 Z M 105.464844 107.847656 L 104.871094 118.574219 L 159.09375 118.574219 L 159.09375 108.445312 Z M 105.464844 107.847656 " fill-opacity="1" fill-rule="evenodd"/><path fill="#000000" d="M 66.140625 169.816406 L 51.242188 169.816406 C 48.265625 169.816406 45.878906 167.433594 45.878906 165.050781 L 45.878906 150.75 C 45.878906 148.367188 48.265625 145.984375 51.242188 145.984375 L 66.140625 145.984375 C 69.117188 145.984375 71.503906 148.367188 71.503906 150.75 L 71.503906 165.050781 C 71.503906 167.433594 69.117188 169.816406 66.140625 169.816406 Z M 51.839844 163.859375 L 65.542969 163.859375 L 65.542969 151.941406 L 51.839844 151.941406 Z M 51.839844 163.859375 " fill-opacity="1" fill-rule="evenodd"/><path fill="#000000" d="M 66.140625 201.398438 L 51.242188 201.398438 C 48.265625 201.398438 45.878906 199.015625 45.878906 196.035156 L 45.878906 182.332031 C 45.878906 179.351562 48.265625 176.96875 51.242188 176.96875 L 66.140625 176.96875 C 69.117188 176.96875 71.503906 179.351562 71.503906 182.332031 L 71.503906 196.035156 C 71.503906 199.015625 69.117188 201.398438 66.140625 201.398438 Z M 51.839844 195.441406 L 65.542969 195.441406 L 65.542969 182.925781 L 51.839844 182.925781 Z M 51.839844 195.441406 " fill-opacity="1" fill-rule="evenodd"/><path fill="#000000" d="M 66.140625 232.382812 L 51.242188 232.382812 C 48.265625 232.382812 45.878906 230 45.878906 227.617188 L 45.878906 213.316406 C 45.878906 210.933594 48.265625 208.546875 51.242188 208.546875 L 66.140625 208.546875 C 69.117188 208.546875 71.503906 210.933594 71.503906 213.316406 L 71.503906 227.617188 C 71.503906 230 69.117188 232.382812 66.140625 232.382812 Z M 51.839844 226.425781 L 65.542969 226.425781 L 65.542969 214.507812 L 51.839844 214.507812 Z M 51.839844 226.425781 " fill-opacity="1" fill-rule="evenodd"/><path fill="#000000" d="M 83.417969 138.238281 L 52.433594 138.238281 C 50.648438 138.238281 49.457031 137.046875 49.457031 135.257812 L 49.457031 128.703125 C 49.457031 123.339844 53.625 119.171875 58.988281 119.171875 L 83.417969 119.171875 C 85.207031 119.171875 86.398438 120.957031 86.398438 122.148438 L 86.398438 135.257812 C 86.398438 137.046875 85.207031 138.238281 83.417969 138.238281 Z M 55.414062 132.28125 L 80.441406 132.28125 L 80.441406 125.128906 L 58.988281 125.128906 C 57.203125 125.128906 55.414062 126.917969 55.414062 128.703125 Z M 55.414062 132.28125 " fill-opacity="1" fill-rule="evenodd"/><path fill="#000000" d="M 96.527344 92.953125 C 94.742188 92.953125 93.550781 91.761719 93.550781 89.972656 L 93.550781 84.015625 C 93.550781 78.058594 98.316406 73.289062 103.679688 73.289062 L 157.304688 73.289062 C 159.09375 73.289062 160.285156 75.078125 160.285156 76.269531 C 160.285156 78.058594 159.09375 79.25 157.304688 79.25 L 103.679688 79.25 C 101.296875 79.25 99.507812 81.632812 99.507812 84.015625 L 99.507812 89.972656 C 99.507812 91.761719 98.316406 92.953125 96.527344 92.953125 Z M 96.527344 92.953125 " fill-opacity="1" fill-rule="evenodd"/><path fill="#000000" d="M 230.59375 246.085938 L 181.140625 246.085938 C 179.351562 246.085938 178.160156 244.894531 178.160156 243.109375 L 178.160156 135.257812 C 178.160156 133.472656 179.351562 132.28125 181.140625 132.28125 L 219.273438 132.28125 C 227.019531 132.28125 233.574219 138.832031 233.574219 146.578125 L 233.574219 243.109375 C 233.574219 244.894531 232.382812 246.085938 230.59375 246.085938 Z M 184.117188 240.128906 L 227.617188 240.128906 L 227.617188 146.578125 C 227.617188 141.8125 224.039062 138.238281 219.273438 138.238281 L 184.117188 138.238281 Z M 184.117188 240.128906 " fill-opacity="1" fill-rule="evenodd"/><path fill="#000000" d="M 213.316406 169.816406 L 198.417969 169.816406 C 195.441406 169.816406 193.054688 167.433594 193.054688 165.050781 L 193.054688 150.75 C 193.054688 148.367188 195.441406 145.984375 198.417969 145.984375 L 213.316406 145.984375 C 216.292969 145.984375 218.679688 148.367188 218.679688 150.75 L 218.679688 165.050781 C 218.679688 167.433594 216.292969 169.816406 213.316406 169.816406 Z M 199.015625 163.859375 L 212.71875 163.859375 L 212.71875 151.941406 L 199.015625 151.941406 Z M 199.015625 163.859375 " fill-opacity="1" fill-rule="evenodd"/><path fill="#000000" d="M 213.316406 201.398438 L 198.417969 201.398438 C 195.441406 201.398438 193.054688 199.015625 193.054688 196.035156 L 193.054688 182.332031 C 193.054688 179.351562 195.441406 176.96875 198.417969 176.96875 L 213.316406 176.96875 C 216.292969 176.96875 218.679688 179.351562 218.679688 182.332031 L 218.679688 196.035156 C 218.679688 199.015625 216.292969 201.398438 213.316406 201.398438 Z M 199.015625 195.441406 L 212.71875 195.441406 L 212.71875 182.925781 L 199.015625 182.925781 Z M 199.015625 195.441406 " fill-opacity="1" fill-rule="evenodd"/><path fill="#000000" d="M 213.316406 232.382812 L 198.417969 232.382812 C 195.441406 232.382812 193.054688 230 193.054688 227.617188 L 193.054688 213.316406 C 193.054688 210.933594 195.441406 208.546875 198.417969 208.546875 L 213.316406 208.546875 C 216.292969 208.546875 218.679688 210.933594 218.679688 213.316406 L 218.679688 227.617188 C 218.679688 230 216.292969 232.382812 213.316406 232.382812 Z M 199.015625 226.425781 L 212.71875 226.425781 L 212.71875 214.507812 L 199.015625 214.507812 Z M 199.015625 226.425781 " fill-opacity="1" fill-rule="evenodd"/><path fill="#000000" d="M 212.125 138.238281 L 181.140625 138.238281 C 179.351562 138.238281 178.160156 137.046875 178.160156 135.257812 L 178.160156 122.148438 C 178.160156 120.957031 179.351562 119.171875 181.140625 119.171875 L 205.570312 119.171875 C 210.933594 119.171875 215.101562 123.339844 215.101562 128.703125 L 215.101562 135.257812 C 215.101562 137.046875 213.910156 138.238281 212.125 138.238281 Z M 184.117188 132.28125 L 209.144531 132.28125 L 209.144531 128.703125 C 209.144531 126.917969 207.355469 125.128906 205.570312 125.128906 L 184.117188 125.128906 Z M 184.117188 132.28125 " fill-opacity="1" fill-rule="evenodd"/><path fill="#000000" d="M 54.222656 126.917969 L 14.300781 126.917969 C 6.554688 126.917969 0 120.957031 0 113.210938 L 0 64.351562 C 0 56.605469 6.554688 50.050781 14.300781 50.050781 L 95.933594 50.050781 C 103.679688 50.050781 110.234375 56.605469 110.234375 64.351562 L 110.234375 76.269531 C 110.234375 78.058594 108.445312 79.25 107.253906 79.25 C 105.464844 79.25 104.273438 78.058594 104.273438 76.269531 L 104.273438 64.351562 C 104.273438 59.585938 100.101562 56.011719 95.933594 56.011719 L 14.300781 56.011719 C 9.535156 56.011719 5.957031 59.585938 5.957031 64.351562 L 5.957031 113.210938 C 5.957031 117.382812 9.535156 120.957031 14.300781 120.957031 L 54.222656 120.957031 C 56.011719 120.957031 57.203125 122.746094 57.203125 123.9375 C 57.203125 125.726562 56.011719 126.917969 54.222656 126.917969 Z M 54.222656 126.917969 " fill-opacity="1" fill-rule="evenodd"/><path fill="#000000" d="M 96.527344 87.589844 L 73.289062 87.589844 C 71.503906 87.589844 70.3125 86.398438 70.3125 84.609375 C 70.3125 82.824219 71.503906 81.632812 73.289062 81.632812 L 96.527344 81.632812 C 98.316406 81.632812 99.507812 82.824219 99.507812 84.609375 C 99.507812 86.398438 98.316406 87.589844 96.527344 87.589844 Z M 36.941406 87.589844 L 12.511719 87.589844 C 8.9375 87.589844 4.765625 86.398438 1.789062 84.609375 C 0.597656 84.015625 0 83.417969 0 82.226562 L 0 64.351562 C 0 56.605469 6.554688 50.050781 14.300781 50.050781 L 95.933594 50.050781 C 103.679688 50.050781 110.234375 56.605469 110.234375 64.351562 L 110.234375 76.269531 C 110.234375 78.058594 108.445312 79.25 107.253906 79.25 C 105.464844 79.25 104.273438 78.058594 104.273438 76.269531 L 104.273438 64.351562 C 104.273438 59.585938 100.101562 56.011719 95.933594 56.011719 L 14.300781 56.011719 C 9.535156 56.011719 5.957031 59.585938 5.957031 64.351562 L 5.957031 80.441406 C 8.34375 81.035156 10.128906 81.632812 12.511719 81.632812 L 36.941406 81.632812 C 38.730469 81.632812 39.921875 82.824219 39.921875 84.609375 C 39.921875 86.398438 38.730469 87.589844 36.941406 87.589844 Z M 36.941406 87.589844 " fill-opacity="1" fill-rule="evenodd"/><path fill="#000000" d="M 69.117188 95.933594 L 41.113281 95.933594 C 36.941406 95.933594 33.964844 92.953125 33.964844 88.78125 L 33.964844 80.441406 C 33.964844 76.863281 36.941406 73.289062 41.113281 73.289062 L 69.117188 73.289062 C 73.289062 73.289062 76.269531 76.863281 76.269531 80.441406 L 76.269531 88.78125 C 76.269531 92.953125 73.289062 95.933594 69.117188 95.933594 Z M 41.113281 79.25 C 40.519531 79.25 39.921875 79.84375 39.921875 80.441406 L 39.921875 88.78125 C 39.921875 89.378906 40.519531 89.972656 41.113281 89.972656 L 69.117188 89.972656 C 69.714844 89.972656 70.3125 89.378906 70.3125 88.78125 L 70.3125 80.441406 C 70.3125 79.84375 69.714844 79.25 69.117188 79.25 Z M 41.113281 79.25 " fill-opacity="1" fill-rule="evenodd"/><path fill="#000000" d="M 61.371094 87.589844 L 48.859375 87.589844 C 47.074219 87.589844 45.878906 86.398438 45.878906 84.609375 C 45.878906 82.824219 47.074219 81.632812 48.859375 81.632812 L 61.371094 81.632812 C 63.160156 81.632812 64.351562 82.824219 64.351562 84.609375 C 64.351562 86.398438 63.160156 87.589844 61.371094 87.589844 Z M 61.371094 87.589844 " fill-opacity="1" fill-rule="evenodd"/><path fill="#000000" d="M 82.824219 56.011719 C 81.632812 56.011719 79.84375 54.820312 79.84375 53.03125 L 79.84375 49.457031 C 79.84375 43.496094 75.078125 38.132812 69.117188 38.132812 L 41.113281 38.132812 C 35.15625 38.132812 30.386719 43.496094 30.386719 49.457031 L 30.386719 53.03125 C 30.386719 54.820312 28.601562 56.011719 27.410156 56.011719 C 25.621094 56.011719 24.429688 54.820312 24.429688 53.03125 L 24.429688 49.457031 C 24.429688 39.921875 31.582031 32.175781 41.113281 32.175781 L 69.117188 32.175781 C 78.652344 32.175781 85.804688 39.921875 85.804688 49.457031 L 85.804688 53.03125 C 85.804688 54.820312 84.609375 56.011719 82.824219 56.011719 Z M 82.824219 56.011719 " fill-opacity="1" fill-rule="evenodd"/><path fill="#000000" d="M 83.417969 115 L 2.980469 115 C 1.789062 115 0 113.808594 0 112.019531 C 0 110.234375 1.789062 109.042969 2.980469 109.042969 L 83.417969 109.042969 C 85.207031 109.042969 86.398438 110.234375 86.398438 112.019531 C 86.398438 113.808594 85.207031 115 83.417969 115 Z M 83.417969 115 " fill-opacity="1" fill-rule="evenodd"/><g clip-path="url(#0cbcbc9677)"><path fill="#000000" d="M 253.832031 173.394531 L 244.894531 173.394531 C 241.320312 173.394531 238.339844 170.414062 238.339844 166.839844 L 238.339844 164.457031 C 235.363281 163.859375 232.382812 162.667969 229.402344 160.878906 C 227.617188 160.285156 227.019531 158.496094 228.210938 157.304688 C 228.808594 155.519531 230.59375 154.921875 231.785156 155.519531 C 235.363281 157.304688 238.339844 158.496094 241.917969 159.09375 C 243.109375 159.6875 244.300781 160.878906 244.300781 162.070312 L 244.300781 166.839844 C 244.300781 167.433594 244.300781 167.433594 244.894531 167.433594 L 253.832031 167.433594 C 254.429688 167.433594 254.429688 167.433594 254.429688 166.839844 L 254.429688 162.070312 C 254.429688 160.878906 255.621094 159.6875 256.8125 159.09375 C 261.578125 157.902344 266.347656 156.113281 270.515625 153.730469 C 271.710938 152.539062 273.496094 153.132812 274.09375 153.730469 L 277.667969 157.304688 C 278.261719 157.902344 278.261719 157.902344 278.859375 157.304688 L 285.414062 150.75 C 285.414062 150.75 285.414062 150.75 285.414062 150.15625 L 281.839844 146.578125 C 280.648438 145.386719 280.648438 144.195312 281.242188 143.003906 C 284.222656 138.832031 286.007812 134.066406 287.203125 129.300781 C 287.203125 128.109375 288.394531 126.917969 289.585938 126.917969 L 294.949219 126.917969 C 294.949219 126.917969 295.542969 126.320312 295.542969 126.320312 L 295.542969 116.789062 C 295.542969 116.789062 294.949219 116.191406 294.949219 116.191406 L 289.585938 116.191406 C 288.394531 116.191406 287.203125 115.59375 287.203125 113.808594 C 286.007812 109.042969 284.222656 104.273438 281.242188 100.699219 C 280.648438 99.507812 280.648438 97.71875 281.839844 96.527344 L 285.414062 92.953125 C 285.414062 92.953125 285.414062 92.355469 285.414062 92.355469 L 278.859375 85.804688 C 278.261719 85.804688 278.261719 85.804688 277.667969 85.804688 L 274.09375 89.378906 C 273.496094 90.570312 271.710938 90.570312 270.515625 89.378906 C 266.347656 86.996094 261.578125 85.207031 256.8125 84.015625 C 255.621094 84.015625 254.429688 82.824219 254.429688 81.035156 L 254.429688 76.269531 C 254.429688 75.671875 254.429688 75.671875 253.832031 75.671875 L 244.894531 75.671875 C 244.300781 75.671875 244.300781 75.671875 244.300781 76.269531 L 244.300781 81.035156 C 244.300781 82.824219 243.109375 84.015625 241.917969 84.015625 C 237.148438 85.207031 232.382812 86.996094 228.210938 89.378906 C 227.019531 90.570312 225.234375 90.570312 224.636719 89.378906 L 221.0625 85.804688 C 221.0625 85.804688 221.0625 85.804688 220.464844 85.804688 C 219.273438 85.207031 218.082031 84.015625 218.082031 82.226562 C 218.082031 80.441406 219.871094 79.25 221.65625 79.84375 C 222.847656 79.84375 224.039062 80.441406 225.234375 81.632812 L 227.019531 83.417969 C 230.59375 81.632812 234.171875 79.84375 238.339844 78.652344 L 238.339844 76.269531 C 238.339844 72.695312 241.320312 69.714844 244.894531 69.714844 L 253.832031 69.714844 C 257.410156 69.714844 260.386719 72.695312 260.386719 76.269531 L 260.386719 78.652344 C 264.558594 79.84375 268.132812 81.632812 271.710938 83.417969 L 273.496094 81.632812 C 275.878906 79.25 280.648438 79.25 283.03125 81.632812 L 289.585938 88.1875 C 290.777344 89.378906 291.371094 91.164062 291.371094 92.953125 C 291.371094 94.742188 290.777344 95.933594 289.585938 97.125 L 287.796875 99.507812 C 289.585938 102.488281 291.371094 106.65625 291.96875 110.234375 L 294.949219 110.234375 C 298.523438 110.234375 301.5 113.210938 301.5 116.789062 L 301.5 126.320312 C 301.5 129.894531 298.523438 132.875 294.949219 132.875 L 291.96875 132.875 C 291.371094 136.449219 289.585938 140.621094 287.796875 144.195312 L 289.585938 145.984375 C 290.777344 147.175781 291.371094 148.367188 291.371094 150.15625 C 291.371094 151.941406 290.777344 153.730469 289.585938 154.921875 L 283.03125 161.476562 C 280.648438 163.859375 275.878906 163.859375 273.496094 161.476562 L 271.710938 159.6875 C 268.132812 162.070312 264.558594 163.265625 260.386719 164.457031 L 260.386719 166.839844 C 260.386719 170.414062 257.410156 173.394531 253.832031 173.394531 Z M 200.207031 125.128906 C 199.015625 125.128906 197.226562 123.9375 197.226562 122.148438 L 197.226562 116.789062 C 197.226562 113.210938 200.207031 110.234375 203.78125 110.234375 L 206.761719 110.234375 C 207.355469 106.65625 209.144531 102.488281 210.933594 99.507812 L 209.144531 97.125 C 208.546875 96.527344 207.953125 95.335938 207.355469 94.144531 C 207.355469 92.953125 208.546875 91.164062 209.742188 90.570312 C 211.527344 90.570312 213.316406 91.164062 213.316406 92.953125 L 216.890625 96.527344 C 218.082031 97.71875 218.082031 99.507812 217.488281 100.699219 C 214.507812 104.871094 212.71875 109.042969 212.125 113.808594 C 211.527344 115.59375 210.335938 116.191406 209.144531 116.191406 L 203.78125 116.191406 C 203.78125 116.191406 203.1875 116.789062 203.1875 116.789062 L 203.1875 122.148438 C 203.1875 123.9375 201.996094 125.128906 200.207031 125.128906 Z M 200.207031 125.128906 " fill-opacity="1" fill-rule="evenodd"/></g><path fill="#000000" d="M 249.664062 147.773438 C 235.363281 147.773438 223.445312 135.855469 223.445312 121.554688 C 223.445312 107.253906 235.363281 95.933594 249.664062 95.933594 C 263.964844 95.933594 275.285156 107.253906 275.285156 121.554688 C 275.285156 135.855469 263.964844 147.773438 249.664062 147.773438 Z M 249.664062 101.890625 C 238.339844 101.890625 229.402344 110.828125 229.402344 121.554688 C 229.402344 132.875 238.339844 141.8125 249.664062 141.8125 C 260.386719 141.8125 269.324219 132.875 269.324219 121.554688 C 269.324219 110.828125 260.386719 101.890625 249.664062 101.890625 Z M 249.664062 101.890625 " fill-opacity="1" fill-rule="evenodd"/><path fill="#000000" d="M 190.671875 102.488281 C 169.816406 102.488281 152.539062 85.207031 152.539062 64.351562 C 152.539062 42.902344 169.816406 25.621094 190.671875 25.621094 C 212.125 25.621094 229.402344 42.902344 229.402344 64.351562 C 229.402344 85.207031 212.125 102.488281 190.671875 102.488281 Z M 190.671875 31.582031 C 172.796875 31.582031 158.496094 46.476562 158.496094 64.351562 C 158.496094 82.226562 172.796875 96.527344 190.671875 96.527344 C 208.546875 96.527344 223.445312 82.226562 223.445312 64.351562 C 223.445312 46.476562 208.546875 31.582031 190.671875 31.582031 Z M 190.671875 31.582031 " fill-opacity="1" fill-rule="evenodd"/><path fill="#000000" d="M 190.671875 87.589844 C 183.523438 87.589844 177.5625 81.632812 177.5625 74.480469 C 177.5625 72.695312 178.757812 71.503906 180.542969 71.503906 C 182.332031 71.503906 183.523438 72.695312 183.523438 74.480469 C 183.523438 78.652344 186.503906 81.632812 190.671875 81.632812 C 194.84375 81.632812 198.417969 78.652344 198.417969 74.480469 C 198.417969 70.3125 194.84375 67.332031 190.671875 67.332031 C 183.523438 67.332031 177.5625 61.371094 177.5625 53.625 C 177.5625 46.476562 183.523438 40.519531 190.671875 40.519531 C 198.417969 40.519531 204.378906 46.476562 204.378906 53.625 C 204.378906 55.414062 202.589844 56.605469 201.398438 56.605469 C 199.609375 56.605469 198.417969 55.414062 198.417969 53.625 C 198.417969 50.050781 194.84375 46.476562 190.671875 46.476562 C 186.503906 46.476562 183.523438 50.050781 183.523438 53.625 C 183.523438 57.796875 186.503906 61.371094 190.671875 61.371094 C 198.417969 61.371094 204.378906 67.332031 204.378906 74.480469 C 204.378906 81.632812 198.417969 87.589844 190.671875 87.589844 Z M 190.671875 87.589844 " fill-opacity="1" fill-rule="evenodd"/><path fill="#000000" d="M 190.671875 92.953125 C 188.886719 92.953125 187.695312 91.761719 187.695312 89.972656 L 187.695312 84.609375 C 187.695312 83.417969 188.886719 81.632812 190.671875 81.632812 C 192.460938 81.632812 193.652344 83.417969 193.652344 84.609375 L 193.652344 89.972656 C 193.652344 91.761719 192.460938 92.953125 190.671875 92.953125 Z M 190.671875 46.476562 C 188.886719 46.476562 187.695312 45.285156 187.695312 43.496094 L 187.695312 38.132812 C 187.695312 36.347656 188.886719 35.15625 190.671875 35.15625 C 192.460938 35.15625 193.652344 36.347656 193.652344 38.132812 L 193.652344 43.496094 C 193.652344 45.285156 192.460938 46.476562 190.671875 46.476562 Z M 190.671875 46.476562 " fill-opacity="1" fill-rule="evenodd"/><path fill="#000000" d="M 168.03125 246.085938 C 166.242188 246.085938 165.050781 244.894531 165.050781 243.109375 L 165.050781 234.171875 C 165.050781 230.59375 163.265625 226.425781 159.09375 226.425781 L 157.304688 226.425781 C 155.519531 226.425781 154.324219 225.234375 154.324219 223.445312 C 154.324219 222.253906 155.519531 220.464844 157.304688 220.464844 L 159.09375 220.464844 C 166.242188 220.464844 171.011719 226.425781 171.011719 234.171875 L 171.011719 243.109375 C 171.011719 244.894531 169.816406 246.085938 168.03125 246.085938 Z M 96.527344 246.085938 C 94.742188 246.085938 93.550781 244.894531 93.550781 243.109375 L 93.550781 234.171875 C 93.550781 226.425781 98.316406 220.464844 105.464844 220.464844 L 107.253906 220.464844 C 109.042969 220.464844 110.234375 222.253906 110.234375 223.445312 C 110.234375 225.234375 109.042969 226.425781 107.253906 226.425781 L 105.464844 226.425781 C 101.296875 226.425781 99.507812 230.59375 99.507812 234.171875 L 99.507812 243.109375 C 99.507812 244.894531 97.71875 246.085938 96.527344 246.085938 Z M 96.527344 246.085938 " fill-opacity="1" fill-rule="evenodd"/><path fill="#000000" d="M 110.234375 246.085938 C 109.042969 246.085938 107.847656 245.492188 107.253906 244.300781 C 106.65625 243.109375 106.0625 241.917969 106.0625 241.320312 C 106.0625 240.726562 105.464844 240.128906 104.871094 239.53125 C 103.679688 238.339844 102.488281 237.148438 103.082031 234.765625 C 103.082031 234.171875 103.679688 232.980469 104.871094 231.785156 C 102.488281 229.402344 103.082031 226.425781 103.679688 224.636719 C 107.253906 213.910156 120.363281 209.742188 120.957031 209.742188 C 122.148438 209.144531 123.9375 210.335938 124.535156 211.527344 C 125.128906 213.316406 123.9375 215.101562 122.148438 215.699219 C 122.148438 215.699219 111.425781 218.679688 109.636719 226.425781 C 109.636719 226.425781 109.636719 227.019531 109.042969 227.019531 C 109.042969 227.019531 109.042969 227.617188 109.042969 227.617188 L 110.234375 229.402344 C 110.828125 229.402344 110.828125 229.402344 110.828125 229.402344 C 111.425781 230.59375 112.019531 231.785156 111.425781 232.980469 C 111.425781 234.171875 110.828125 235.363281 109.636719 235.957031 C 110.828125 237.148438 111.425781 238.339844 112.019531 240.128906 C 112.019531 240.128906 112.019531 240.726562 112.617188 241.320312 C 113.210938 243.109375 112.617188 244.894531 111.425781 245.492188 C 110.828125 246.085938 110.234375 246.085938 110.234375 246.085938 Z M 110.234375 246.085938 " fill-opacity="1" fill-rule="evenodd"/><path fill="#000000" d="M 125.726562 246.085938 C 124.535156 246.085938 123.339844 244.894531 122.746094 243.703125 C 119.765625 233.574219 118.574219 225.828125 118.574219 215.699219 L 118.574219 209.144531 C 118.574219 207.355469 119.765625 206.164062 121.554688 206.164062 C 123.339844 206.164062 124.535156 207.355469 124.535156 209.144531 L 124.535156 215.699219 C 124.535156 225.234375 125.726562 232.382812 128.703125 241.917969 C 129.300781 243.703125 128.109375 245.492188 126.320312 246.085938 C 126.320312 246.085938 125.726562 246.085938 125.726562 246.085938 Z M 125.726562 246.085938 " fill-opacity="1" fill-rule="evenodd"/><path fill="#000000" d="M 138.832031 246.085938 C 138.238281 246.085938 138.238281 246.085938 137.640625 246.085938 C 136.449219 245.492188 135.257812 243.703125 135.855469 241.917969 C 138.832031 232.382812 140.027344 225.234375 140.027344 215.699219 L 140.027344 209.144531 C 140.027344 207.355469 141.21875 206.164062 143.003906 206.164062 C 144.195312 206.164062 145.984375 207.355469 145.984375 209.144531 L 145.984375 215.699219 C 145.984375 225.828125 144.792969 233.574219 141.21875 243.703125 C 141.21875 244.894531 140.027344 246.085938 138.832031 246.085938 Z M 138.832031 246.085938 " fill-opacity="1" fill-rule="evenodd"/><path fill="#000000" d="M 137.046875 213.316406 L 127.511719 213.316406 C 116.789062 213.316406 112.617188 203.78125 109.636719 196.632812 C 109.042969 195.441406 110.234375 193.652344 111.425781 193.054688 C 113.210938 192.460938 115 193.054688 115.59375 194.84375 C 118.574219 203.78125 122.148438 207.355469 127.511719 207.355469 L 137.046875 207.355469 C 142.410156 207.355469 145.984375 203.78125 148.964844 194.84375 C 149.558594 193.054688 151.347656 192.460938 152.539062 193.054688 C 154.324219 193.652344 154.921875 195.441406 154.324219 196.632812 C 151.941406 203.78125 147.773438 213.316406 137.046875 213.316406 Z M 137.046875 213.316406 " fill-opacity="1" fill-rule="evenodd"/><path fill="#000000" d="M 151.941406 199.015625 C 151.347656 199.015625 150.75 198.417969 150.15625 198.417969 C 148.964844 197.226562 148.367188 195.441406 148.964844 194.25 C 153.132812 188.886719 152.539062 187.097656 151.941406 184.714844 C 151.347656 182.925781 150.75 181.140625 150.75 179.351562 C 148.964844 179.351562 147.773438 179.351562 146.578125 178.757812 C 145.386719 178.160156 144.195312 176.96875 144.792969 173.988281 C 144.792969 173.988281 144.792969 173.394531 144.792969 173.394531 C 144.195312 173.394531 143.601562 173.394531 143.003906 172.796875 L 141.8125 172.796875 C 131.683594 168.625 126.320312 171.605469 124.535156 173.394531 C 123.9375 173.988281 123.9375 173.988281 123.9375 173.988281 C 122.746094 175.777344 120.363281 177.5625 117.980469 176.96875 C 117.980469 177.5625 117.382812 177.5625 117.382812 178.160156 C 117.382812 179.949219 117.382812 182.332031 115 183.523438 C 113.808594 184.117188 112.617188 184.117188 110.828125 183.523438 C 111.425781 186.503906 113.210938 191.269531 115 194.25 C 116.191406 195.441406 115.59375 197.226562 114.402344 198.417969 C 112.617188 199.015625 110.828125 199.015625 110.234375 197.226562 C 109.042969 196.035156 101.890625 184.117188 106.65625 177.5625 C 107.847656 176.371094 109.636719 175.777344 110.828125 176.371094 C 111.425781 176.96875 111.425781 176.96875 112.019531 176.96875 C 112.019531 174.585938 112.617188 171.011719 116.191406 169.222656 C 116.789062 169.222656 117.980469 169.222656 118.574219 169.816406 C 119.171875 169.816406 119.171875 169.816406 119.171875 169.816406 C 119.765625 169.816406 119.765625 169.222656 120.363281 169.222656 C 123.339844 166.242188 130.492188 162.070312 144.195312 166.839844 L 144.792969 167.433594 C 147.175781 168.03125 150.15625 169.222656 150.75 172.796875 C 151.347656 172.796875 153.132812 172.796875 154.324219 173.988281 C 155.519531 174.585938 156.710938 175.777344 156.710938 178.757812 C 156.710938 180.542969 157.304688 181.734375 157.304688 182.925781 C 158.496094 187.097656 159.09375 190.078125 154.324219 197.226562 C 153.730469 198.417969 152.539062 199.015625 151.941406 199.015625 Z M 151.941406 199.015625 " fill-opacity="1" fill-rule="evenodd"/><path fill="#000000" d="M 151.941406 199.015625 C 151.347656 199.015625 151.347656 199.015625 151.347656 199.015625 C 149.558594 198.417969 148.367188 196.632812 148.964844 195.441406 C 148.964844 194.25 147.773438 193.652344 146.578125 191.863281 C 145.984375 191.269531 144.792969 190.078125 144.195312 188.886719 C 142.410156 188.886719 140.621094 188.886719 138.238281 188.886719 C 130.492188 188.886719 118.574219 188.886719 115.59375 192.460938 C 115 192.460938 115 193.054688 115 194.25 C 115.59375 196.035156 114.402344 197.824219 112.617188 197.824219 C 110.828125 198.417969 109.636719 197.226562 109.042969 195.441406 C 108.445312 192.460938 109.042969 190.078125 110.828125 188.289062 C 115.59375 182.925781 128.109375 182.925781 138.238281 182.925781 C 141.8125 182.925781 145.386719 182.925781 147.175781 182.925781 C 148.367188 182.332031 149.558594 182.925781 150.15625 184.714844 C 150.75 185.308594 150.75 186.503906 150.15625 187.097656 C 150.15625 187.695312 150.75 187.695312 150.75 187.695312 C 152.539062 189.480469 155.519531 192.460938 154.921875 196.632812 C 154.324219 197.824219 153.132812 199.015625 151.941406 199.015625 Z M 151.941406 199.015625 " fill-opacity="1" fill-rule="evenodd"/><path fill="#000000" d="M 154.324219 246.085938 C 153.730469 246.085938 153.730469 246.085938 153.132812 245.492188 C 151.347656 244.894531 150.75 243.109375 151.941406 241.320312 C 152.539062 240.726562 152.539062 240.128906 152.539062 240.128906 C 152.539062 238.339844 153.730469 237.148438 154.921875 235.957031 C 153.730469 235.363281 153.132812 234.171875 153.132812 232.980469 C 152.539062 231.785156 153.132812 230.59375 153.730469 229.402344 L 155.519531 227.617188 C 155.519531 227.617188 154.921875 227.019531 154.921875 227.019531 C 154.921875 227.019531 154.921875 226.425781 154.921875 226.425781 C 152.539062 218.679688 141.8125 215.699219 141.8125 215.699219 C 140.027344 215.101562 139.429688 213.316406 140.027344 211.527344 C 140.621094 210.335938 141.8125 209.144531 143.601562 209.742188 C 144.195312 209.742188 157.304688 213.910156 160.878906 224.636719 C 161.476562 226.425781 161.476562 229.402344 159.6875 231.785156 C 160.878906 232.980469 161.476562 234.171875 161.476562 234.765625 C 162.070312 237.148438 160.285156 238.339844 159.6875 239.53125 C 159.09375 240.128906 158.496094 240.726562 158.496094 241.320312 C 158.496094 241.917969 157.902344 243.109375 157.304688 244.300781 C 156.710938 245.492188 155.519531 246.085938 154.324219 246.085938 Z M 154.324219 246.085938 " fill-opacity="1" fill-rule="evenodd"/><path fill="#000000" d="M 116.191406 159.6875 L 101.890625 159.6875 C 98.910156 159.6875 96.527344 157.304688 96.527344 154.324219 L 96.527344 138.832031 C 96.527344 136.449219 98.910156 134.066406 101.890625 134.066406 L 116.191406 134.066406 C 119.171875 134.066406 121.554688 136.449219 121.554688 138.832031 L 121.554688 154.324219 C 121.554688 157.304688 119.171875 159.6875 116.191406 159.6875 Z M 102.488281 153.730469 L 115.59375 153.730469 L 115.59375 140.027344 L 102.488281 140.027344 Z M 102.488281 153.730469 " fill-opacity="1" fill-rule="evenodd"/><path fill="#000000" d="M 162.667969 159.6875 L 148.367188 159.6875 C 145.386719 159.6875 143.003906 157.304688 143.003906 154.324219 L 143.003906 138.832031 C 143.003906 136.449219 145.386719 134.066406 148.367188 134.066406 L 162.667969 134.066406 C 165.648438 134.066406 168.03125 136.449219 168.03125 138.832031 L 168.03125 154.324219 C 168.03125 157.304688 165.648438 159.6875 162.667969 159.6875 Z M 148.964844 153.730469 L 162.070312 153.730469 L 162.070312 140.027344 L 148.964844 140.027344 Z M 148.964844 153.730469 " fill-opacity="1" fill-rule="evenodd"/><path fill="#000000" d="M 258.601562 275.878906 L 5.957031 275.878906 C 4.171875 275.878906 2.980469 274.6875 2.980469 272.902344 L 2.980469 265.15625 C 2.980469 259.792969 7.746094 255.023438 13.703125 255.023438 L 250.855469 255.023438 C 256.8125 255.023438 261.578125 259.792969 261.578125 265.15625 L 261.578125 272.902344 C 261.578125 274.6875 259.792969 275.878906 258.601562 275.878906 Z M 8.9375 269.921875 L 255.621094 269.921875 L 255.621094 265.15625 C 255.621094 262.769531 253.238281 260.984375 250.855469 260.984375 L 13.703125 260.984375 C 11.320312 260.984375 8.9375 262.769531 8.9375 265.15625 Z M 8.9375 269.921875 " fill-opacity="1" fill-rule="evenodd"/><path fill="#000000" d="M 245.492188 260.984375 L 19.066406 260.984375 C 17.28125 260.984375 16.089844 259.792969 16.089844 258.003906 L 16.089844 250.257812 C 16.089844 244.894531 20.257812 240.128906 26.21875 240.128906 L 238.339844 240.128906 C 243.703125 240.128906 248.472656 244.894531 248.472656 250.257812 L 248.472656 258.003906 C 248.472656 259.792969 247.277344 260.984375 245.492188 260.984375 Z M 22.046875 255.023438 L 242.511719 255.023438 L 242.511719 250.257812 C 242.511719 247.875 240.726562 246.085938 238.339844 246.085938 L 26.21875 246.085938 C 23.835938 246.085938 22.046875 247.875 22.046875 250.257812 Z M 22.046875 255.023438 " fill-opacity="1" fill-rule="evenodd"/><path fill="#000000" d="M 181.140625 246.085938 L 83.417969 246.085938 C 81.632812 246.085938 80.441406 244.894531 80.441406 243.109375 L 80.441406 98.316406 C 80.441406 92.355469 85.804688 86.996094 91.761719 86.996094 L 166.839844 86.996094 C 168.03125 86.996094 169.816406 88.78125 169.816406 89.972656 C 169.816406 91.761719 168.03125 92.953125 166.839844 92.953125 L 91.761719 92.953125 C 88.78125 92.953125 86.398438 95.335938 86.398438 98.316406 L 86.398438 240.128906 L 178.160156 240.128906 L 178.160156 98.316406 C 177.5625 97.125 179.351562 95.335938 180.542969 95.335938 C 182.332031 95.335938 183.523438 96.527344 183.523438 98.316406 L 184.117188 98.316406 L 184.117188 243.109375 C 184.117188 244.894531 182.332031 246.085938 181.140625 246.085938 Z M 181.140625 246.085938 " fill-opacity="1" fill-rule="evenodd"/><path fill="#000000" d="M 83.417969 246.085938 L 33.964844 246.085938 C 32.175781 246.085938 30.984375 244.894531 30.984375 243.109375 L 30.984375 146.578125 C 30.984375 138.832031 36.941406 132.28125 44.6875 132.28125 L 83.417969 132.28125 C 85.207031 132.28125 86.398438 133.472656 86.398438 135.257812 L 86.398438 243.109375 C 86.398438 244.894531 85.207031 246.085938 83.417969 246.085938 Z M 36.941406 240.128906 L 80.441406 240.128906 L 80.441406 138.238281 L 44.6875 138.238281 C 40.519531 138.238281 36.941406 141.8125 36.941406 146.578125 Z M 36.941406 240.128906 " fill-opacity="1" fill-rule="evenodd"/><path fill="#000000" d="M 159.09375 124.535156 L 105.464844 124.535156 C 101.890625 124.535156 98.910156 122.148438 98.910156 118.574219 L 98.910156 108.445312 C 98.910156 104.871094 101.890625 101.890625 105.464844 101.890625 L 159.09375 101.890625 C 162.667969 101.890625 165.050781 104.871094 165.050781 108.445312 L 165.050781 118.574219 C 165.050781 122.148438 162.667969 124.535156 159.09375 124.535156 Z M 105.464844 107.847656 L 104.871094 118.574219 L 159.09375 118.574219 L 159.09375 108.445312 Z M 105.464844 107.847656 " fill-opacity="1" fill-rule="evenodd"/><path fill="#000000" d="M 66.140625 169.816406 L 51.242188 169.816406 C 48.265625 169.816406 45.878906 167.433594 45.878906 165.050781 L 45.878906 150.75 C 45.878906 148.367188 48.265625 145.984375 51.242188 145.984375 L 66.140625 145.984375 C 69.117188 145.984375 71.503906 148.367188 71.503906 150.75 L 71.503906 165.050781 C 71.503906 167.433594 69.117188 169.816406 66.140625 169.816406 Z M 51.839844 163.859375 L 65.542969 163.859375 L 65.542969 151.941406 L 51.839844 151.941406 Z M 51.839844 163.859375 " fill-opacity="1" fill-rule="evenodd"/><path fill="#000000" d="M 66.140625 201.398438 L 51.242188 201.398438 C 48.265625 201.398438 45.878906 199.015625 45.878906 196.035156 L 45.878906 182.332031 C 45.878906 179.351562 48.265625 176.96875 51.242188 176.96875 L 66.140625 176.96875 C 69.117188 176.96875 71.503906 179.351562 71.503906 182.332031 L 71.503906 196.035156 C 71.503906 199.015625 69.117188 201.398438 66.140625 201.398438 Z M 51.839844 195.441406 L 65.542969 195.441406 L 65.542969 182.925781 L 51.839844 182.925781 Z M 51.839844 195.441406 " fill-opacity="1" fill-rule="evenodd"/><path fill="#000000" d="M 66.140625 232.382812 L 51.242188 232.382812 C 48.265625 232.382812 45.878906 230 45.878906 227.617188 L 45.878906 213.316406 C 45.878906 210.933594 48.265625 208.546875 51.242188 208.546875 L 66.140625 208.546875 C 69.117188 208.546875 71.503906 210.933594 71.503906 213.316406 L 71.503906 227.617188 C 71.503906 230 69.117188 232.382812 66.140625 232.382812 Z M 51.839844 226.425781 L 65.542969 226.425781 L 65.542969 214.507812 L 51.839844 214.507812 Z M 51.839844 226.425781 " fill-opacity="1" fill-rule="evenodd"/><path fill="#000000" d="M 83.417969 138.238281 L 52.433594 138.238281 C 50.648438 138.238281 49.457031 137.046875 49.457031 135.257812 L 49.457031 128.703125 C 49.457031 123.339844 53.625 119.171875 58.988281 119.171875 L 83.417969 119.171875 C 85.207031 119.171875 86.398438 120.957031 86.398438 122.148438 L 86.398438 135.257812 C 86.398438 137.046875 85.207031 138.238281 83.417969 138.238281 Z M 55.414062 132.28125 L 80.441406 132.28125 L 80.441406 125.128906 L 58.988281 125.128906 C 57.203125 125.128906 55.414062 126.917969 55.414062 128.703125 Z M 55.414062 132.28125 " fill-opacity="1" fill-rule="evenodd"/><path fill="#000000" d="M 96.527344 92.953125 C 94.742188 92.953125 93.550781 91.761719 93.550781 89.972656 L 93.550781 84.015625 C 93.550781 78.058594 98.316406 73.289062 103.679688 73.289062 L 157.304688 73.289062 C 159.09375 73.289062 160.285156 75.078125 160.285156 76.269531 C 160.285156 78.058594 159.09375 79.25 157.304688 79.25 L 103.679688 79.25 C 101.296875 79.25 99.507812 81.632812 99.507812 84.015625 L 99.507812 89.972656 C 99.507812 91.761719 98.316406 92.953125 96.527344 92.953125 Z M 96.527344 92.953125 " fill-opacity="1" fill-rule="evenodd"/><path fill="#000000" d="M 230.59375 246.085938 L 181.140625 246.085938 C 179.351562 246.085938 178.160156 244.894531 178.160156 243.109375 L 178.160156 135.257812 C 178.160156 133.472656 179.351562 132.28125 181.140625 132.28125 L 219.273438 132.28125 C 227.019531 132.28125 233.574219 138.832031 233.574219 146.578125 L 233.574219 243.109375 C 233.574219 244.894531 232.382812 246.085938 230.59375 246.085938 Z M 184.117188 240.128906 L 227.617188 240.128906 L 227.617188 146.578125 C 227.617188 141.8125 224.039062 138.238281 219.273438 138.238281 L 184.117188 138.238281 Z M 184.117188 240.128906 " fill-opacity="1" fill-rule="evenodd"/><path fill="#000000" d="M 213.316406 169.816406 L 198.417969 169.816406 C 195.441406 169.816406 193.054688 167.433594 193.054688 165.050781 L 193.054688 150.75 C 193.054688 148.367188 195.441406 145.984375 198.417969 145.984375 L 213.316406 145.984375 C 216.292969 145.984375 218.679688 148.367188 218.679688 150.75 L 218.679688 165.050781 C 218.679688 167.433594 216.292969 169.816406 213.316406 169.816406 Z M 199.015625 163.859375 L 212.71875 163.859375 L 212.71875 151.941406 L 199.015625 151.941406 Z M 199.015625 163.859375 " fill-opacity="1" fill-rule="evenodd"/><path fill="#000000" d="M 213.316406 201.398438 L 198.417969 201.398438 C 195.441406 201.398438 193.054688 199.015625 193.054688 196.035156 L 193.054688 182.332031 C 193.054688 179.351562 195.441406 176.96875 198.417969 176.96875 L 213.316406 176.96875 C 216.292969 176.96875 218.679688 179.351562 218.679688 182.332031 L 218.679688 196.035156 C 218.679688 199.015625 216.292969 201.398438 213.316406 201.398438 Z M 199.015625 195.441406 L 212.71875 195.441406 L 212.71875 182.925781 L 199.015625 182.925781 Z M 199.015625 195.441406 " fill-opacity="1" fill-rule="evenodd"/><path fill="#000000" d="M 213.316406 232.382812 L 198.417969 232.382812 C 195.441406 232.382812 193.054688 230 193.054688 227.617188 L 193.054688 213.316406 C 193.054688 210.933594 195.441406 208.546875 198.417969 208.546875 L 213.316406 208.546875 C 216.292969 208.546875 218.679688 210.933594 218.679688 213.316406 L 218.679688 227.617188 C 218.679688 230 216.292969 232.382812 213.316406 232.382812 Z M 199.015625 226.425781 L 212.71875 226.425781 L 212.71875 214.507812 L 199.015625 214.507812 Z M 199.015625 226.425781 " fill-opacity="1" fill-rule="evenodd"/><path fill="#000000" d="M 212.125 138.238281 L 181.140625 138.238281 C 179.351562 138.238281 178.160156 137.046875 178.160156 135.257812 L 178.160156 122.148438 C 178.160156 120.957031 179.351562 119.171875 181.140625 119.171875 L 205.570312 119.171875 C 210.933594 119.171875 215.101562 123.339844 215.101562 128.703125 L 215.101562 135.257812 C 215.101562 137.046875 213.910156 138.238281 212.125 138.238281 Z M 184.117188 132.28125 L 209.144531 132.28125 L 209.144531 128.703125 C 209.144531 126.917969 207.355469 125.128906 205.570312 125.128906 L 184.117188 125.128906 Z M 184.117188 132.28125 " fill-opacity="1" fill-rule="evenodd"/><path fill="#000000" d="M 54.222656 126.917969 L 14.300781 126.917969 C 6.554688 126.917969 0 120.957031 0 113.210938 L 0 64.351562 C 0 56.605469 6.554688 50.050781 14.300781 50.050781 L 95.933594 50.050781 C 103.679688 50.050781 110.234375 56.605469 110.234375 64.351562 L 110.234375 76.269531 C 110.234375 78.058594 108.445312 79.25 107.253906 79.25 C 105.464844 79.25 104.273438 78.058594 104.273438 76.269531 L 104.273438 64.351562 C 104.273438 59.585938 100.101562 56.011719 95.933594 56.011719 L 14.300781 56.011719 C 9.535156 56.011719 5.957031 59.585938 5.957031 64.351562 L 5.957031 113.210938 C 5.957031 117.382812 9.535156 120.957031 14.300781 120.957031 L 54.222656 120.957031 C 56.011719 120.957031 57.203125 122.746094 57.203125 123.9375 C 57.203125 125.726562 56.011719 126.917969 54.222656 126.917969 Z M 54.222656 126.917969 " fill-opacity="1" fill-rule="evenodd"/><path fill="#000000" d="M 96.527344 87.589844 L 73.289062 87.589844 C 71.503906 87.589844 70.3125 86.398438 70.3125 84.609375 C 70.3125 82.824219 71.503906 81.632812 73.289062 81.632812 L 96.527344 81.632812 C 98.316406 81.632812 99.507812 82.824219 99.507812 84.609375 C 99.507812 86.398438 98.316406 87.589844 96.527344 87.589844 Z M 36.941406 87.589844 L 12.511719 87.589844 C 8.9375 87.589844 4.765625 86.398438 1.789062 84.609375 C 0.597656 84.015625 0 83.417969 0 82.226562 L 0 64.351562 C 0 56.605469 6.554688 50.050781 14.300781 50.050781 L 95.933594 50.050781 C 103.679688 50.050781 110.234375 56.605469 110.234375 64.351562 L 110.234375 76.269531 C 110.234375 78.058594 108.445312 79.25 107.253906 79.25 C 105.464844 79.25 104.273438 78.058594 104.273438 76.269531 L 104.273438 64.351562 C 104.273438 59.585938 100.101562 56.011719 95.933594 56.011719 L 14.300781 56.011719 C 9.535156 56.011719 5.957031 59.585938 5.957031 64.351562 L 5.957031 80.441406 C 8.34375 81.035156 10.128906 81.632812 12.511719 81.632812 L 36.941406 81.632812 C 38.730469 81.632812 39.921875 82.824219 39.921875 84.609375 C 39.921875 86.398438 38.730469 87.589844 36.941406 87.589844 Z M 36.941406 87.589844 " fill-opacity="1" fill-rule="evenodd"/><path fill="#000000" d="M 69.117188 95.933594 L 41.113281 95.933594 C 36.941406 95.933594 33.964844 92.953125 33.964844 88.78125 L 33.964844 80.441406 C 33.964844 76.863281 36.941406 73.289062 41.113281 73.289062 L 69.117188 73.289062 C 73.289062 73.289062 76.269531 76.863281 76.269531 80.441406 L 76.269531 88.78125 C 76.269531 92.953125 73.289062 95.933594 69.117188 95.933594 Z M 41.113281 79.25 C 40.519531 79.25 39.921875 79.84375 39.921875 80.441406 L 39.921875 88.78125 C 39.921875 89.378906 40.519531 89.972656 41.113281 89.972656 L 69.117188 89.972656 C 69.714844 89.972656 70.3125 89.378906 70.3125 88.78125 L 70.3125 80.441406 C 70.3125 79.84375 69.714844 79.25 69.117188 79.25 Z M 41.113281 79.25 " fill-opacity="1" fill-rule="evenodd"/><path fill="#000000" d="M 61.371094 87.589844 L 48.859375 87.589844 C 47.074219 87.589844 45.878906 86.398438 45.878906 84.609375 C 45.878906 82.824219 47.074219 81.632812 48.859375 81.632812 L 61.371094 81.632812 C 63.160156 81.632812 64.351562 82.824219 64.351562 84.609375 C 64.351562 86.398438 63.160156 87.589844 61.371094 87.589844 Z M 61.371094 87.589844 " fill-opacity="1" fill-rule="evenodd"/><path fill="#000000" d="M 82.824219 56.011719 C 81.632812 56.011719 79.84375 54.820312 79.84375 53.03125 L 79.84375 49.457031 C 79.84375 43.496094 75.078125 38.132812 69.117188 38.132812 L 41.113281 38.132812 C 35.15625 38.132812 30.386719 43.496094 30.386719 49.457031 L 30.386719 53.03125 C 30.386719 54.820312 28.601562 56.011719 27.410156 56.011719 C 25.621094 56.011719 24.429688 54.820312 24.429688 53.03125 L 24.429688 49.457031 C 24.429688 39.921875 31.582031 32.175781 41.113281 32.175781 L 69.117188 32.175781 C 78.652344 32.175781 85.804688 39.921875 85.804688 49.457031 L 85.804688 53.03125 C 85.804688 54.820312 84.609375 56.011719 82.824219 56.011719 Z M 82.824219 56.011719 " fill-opacity="1" fill-rule="evenodd"/><path fill="#000000" d="M 83.417969 115 L 2.980469 115 C 1.789062 115 0 113.808594 0 112.019531 C 0 110.234375 1.789062 109.042969 2.980469 109.042969 L 83.417969 109.042969 C 85.207031 109.042969 86.398438 110.234375 86.398438 112.019531 C 86.398438 113.808594 85.207031 115 83.417969 115 Z M 83.417969 115 " fill-opacity="1" fill-rule="evenodd"/><g clip-path="url(#38cb23df5f)"><path fill="#000000" d="M 253.832031 173.394531 L 244.894531 173.394531 C 241.320312 173.394531 238.339844 170.414062 238.339844 166.839844 L 238.339844 164.457031 C 235.363281 163.859375 232.382812 162.667969 229.402344 160.878906 C 227.617188 160.285156 227.019531 158.496094 228.210938 157.304688 C 228.808594 155.519531 230.59375 154.921875 231.785156 155.519531 C 235.363281 157.304688 238.339844 158.496094 241.917969 159.09375 C 243.109375 159.6875 244.300781 160.878906 244.300781 162.070312 L 244.300781 166.839844 C 244.300781 167.433594 244.300781 167.433594 244.894531 167.433594 L 253.832031 167.433594 C 254.429688 167.433594 254.429688 167.433594 254.429688 166.839844 L 254.429688 162.070312 C 254.429688 160.878906 255.621094 159.6875 256.8125 159.09375 C 261.578125 157.902344 266.347656 156.113281 270.515625 153.730469 C 271.710938 152.539062 273.496094 153.132812 274.09375 153.730469 L 277.667969 157.304688 C 278.261719 157.902344 278.261719 157.902344 278.859375 157.304688 L 285.414062 150.75 C 285.414062 150.75 285.414062 150.75 285.414062 150.15625 L 281.839844 146.578125 C 280.648438 145.386719 280.648438 144.195312 281.242188 143.003906 C 284.222656 138.832031 286.007812 134.066406 287.203125 129.300781 C 287.203125 128.109375 288.394531 126.917969 289.585938 126.917969 L 294.949219 126.917969 C 294.949219 126.917969 295.542969 126.320312 295.542969 126.320312 L 295.542969 116.789062 C 295.542969 116.789062 294.949219 116.191406 294.949219 116.191406 L 289.585938 116.191406 C 288.394531 116.191406 287.203125 115.59375 287.203125 113.808594 C 286.007812 109.042969 284.222656 104.273438 281.242188 100.699219 C 280.648438 99.507812 280.648438 97.71875 281.839844 96.527344 L 285.414062 92.953125 C 285.414062 92.953125 285.414062 92.355469 285.414062 92.355469 L 278.859375 85.804688 C 278.261719 85.804688 278.261719 85.804688 277.667969 85.804688 L 274.09375 89.378906 C 273.496094 90.570312 271.710938 90.570312 270.515625 89.378906 C 266.347656 86.996094 261.578125 85.207031 256.8125 84.015625 C 255.621094 84.015625 254.429688 82.824219 254.429688 81.035156 L 254.429688 76.269531 C 254.429688 75.671875 254.429688 75.671875 253.832031 75.671875 L 244.894531 75.671875 C 244.300781 75.671875 244.300781 75.671875 244.300781 76.269531 L 244.300781 81.035156 C 244.300781 82.824219 243.109375 84.015625 241.917969 84.015625 C 237.148438 85.207031 232.382812 86.996094 228.210938 89.378906 C 227.019531 90.570312 225.234375 90.570312 224.636719 89.378906 L 221.0625 85.804688 C 221.0625 85.804688 221.0625 85.804688 220.464844 85.804688 C 219.273438 85.207031 218.082031 84.015625 218.082031 82.226562 C 218.082031 80.441406 219.871094 79.25 221.65625 79.84375 C 222.847656 79.84375 224.039062 80.441406 225.234375 81.632812 L 227.019531 83.417969 C 230.59375 81.632812 234.171875 79.84375 238.339844 78.652344 L 238.339844 76.269531 C 238.339844 72.695312 241.320312 69.714844 244.894531 69.714844 L 253.832031 69.714844 C 257.410156 69.714844 260.386719 72.695312 260.386719 76.269531 L 260.386719 78.652344 C 264.558594 79.84375 268.132812 81.632812 271.710938 83.417969 L 273.496094 81.632812 C 275.878906 79.25 280.648438 79.25 283.03125 81.632812 L 289.585938 88.1875 C 290.777344 89.378906 291.371094 91.164062 291.371094 92.953125 C 291.371094 94.742188 290.777344 95.933594 289.585938 97.125 L 287.796875 99.507812 C 289.585938 102.488281 291.371094 106.65625 291.96875 110.234375 L 294.949219 110.234375 C 298.523438 110.234375 301.5 113.210938 301.5 116.789062 L 301.5 126.320312 C 301.5 129.894531 298.523438 132.875 294.949219 132.875 L 291.96875 132.875 C 291.371094 136.449219 289.585938 140.621094 287.796875 144.195312 L 289.585938 145.984375 C 290.777344 147.175781 291.371094 148.367188 291.371094 150.15625 C 291.371094 151.941406 290.777344 153.730469 289.585938 154.921875 L 283.03125 161.476562 C 280.648438 163.859375 275.878906 163.859375 273.496094 161.476562 L 271.710938 159.6875 C 268.132812 162.070312 264.558594 163.265625 260.386719 164.457031 L 260.386719 166.839844 C 260.386719 170.414062 257.410156 173.394531 253.832031 173.394531 Z M 200.207031 125.128906 C 199.015625 125.128906 197.226562 123.9375 197.226562 122.148438 L 197.226562 116.789062 C 197.226562 113.210938 200.207031 110.234375 203.78125 110.234375 L 206.761719 110.234375 C 207.355469 106.65625 209.144531 102.488281 210.933594 99.507812 L 209.144531 97.125 C 208.546875 96.527344 207.953125 95.335938 207.355469 94.144531 C 207.355469 92.953125 208.546875 91.164062 209.742188 90.570312 C 211.527344 90.570312 213.316406 91.164062 213.316406 92.953125 L 216.890625 96.527344 C 218.082031 97.71875 218.082031 99.507812 217.488281 100.699219 C 214.507812 104.871094 212.71875 109.042969 212.125 113.808594 C 211.527344 115.59375 210.335938 116.191406 209.144531 116.191406 L 203.78125 116.191406 C 203.78125 116.191406 203.1875 116.789062 203.1875 116.789062 L 203.1875 122.148438 C 203.1875 123.9375 201.996094 125.128906 200.207031 125.128906 Z M 200.207031 125.128906 " fill-opacity="1" fill-rule="evenodd"/></g><path fill="#000000" d="M 249.664062 147.773438 C 235.363281 147.773438 223.445312 135.855469 223.445312 121.554688 C 223.445312 107.253906 235.363281 95.933594 249.664062 95.933594 C 263.964844 95.933594 275.285156 107.253906 275.285156 121.554688 C 275.285156 135.855469 263.964844 147.773438 249.664062 147.773438 Z M 249.664062 101.890625 C 238.339844 101.890625 229.402344 110.828125 229.402344 121.554688 C 229.402344 132.875 238.339844 141.8125 249.664062 141.8125 C 260.386719 141.8125 269.324219 132.875 269.324219 121.554688 C 269.324219 110.828125 260.386719 101.890625 249.664062 101.890625 Z M 249.664062 101.890625 " fill-opacity="1" fill-rule="evenodd"/><path fill="#000000" d="M 190.671875 102.488281 C 169.816406 102.488281 152.539062 85.207031 152.539062 64.351562 C 152.539062 42.902344 169.816406 25.621094 190.671875 25.621094 C 212.125 25.621094 229.402344 42.902344 229.402344 64.351562 C 229.402344 85.207031 212.125 102.488281 190.671875 102.488281 Z M 190.671875 31.582031 C 172.796875 31.582031 158.496094 46.476562 158.496094 64.351562 C 158.496094 82.226562 172.796875 96.527344 190.671875 96.527344 C 208.546875 96.527344 223.445312 82.226562 223.445312 64.351562 C 223.445312 46.476562 208.546875 31.582031 190.671875 31.582031 Z M 190.671875 31.582031 " fill-opacity="1" fill-rule="evenodd"/><path fill="#000000" d="M 190.671875 87.589844 C 183.523438 87.589844 177.5625 81.632812 177.5625 74.480469 C 177.5625 72.695312 178.757812 71.503906 180.542969 71.503906 C 182.332031 71.503906 183.523438 72.695312 183.523438 74.480469 C 183.523438 78.652344 186.503906 81.632812 190.671875 81.632812 C 194.84375 81.632812 198.417969 78.652344 198.417969 74.480469 C 198.417969 70.3125 194.84375 67.332031 190.671875 67.332031 C 183.523438 67.332031 177.5625 61.371094 177.5625 53.625 C 177.5625 46.476562 183.523438 40.519531 190.671875 40.519531 C 198.417969 40.519531 204.378906 46.476562 204.378906 53.625 C 204.378906 55.414062 202.589844 56.605469 201.398438 56.605469 C 199.609375 56.605469 198.417969 55.414062 198.417969 53.625 C 198.417969 50.050781 194.84375 46.476562 190.671875 46.476562 C 186.503906 46.476562 183.523438 50.050781 183.523438 53.625 C 183.523438 57.796875 186.503906 61.371094 190.671875 61.371094 C 198.417969 61.371094 204.378906 67.332031 204.378906 74.480469 C 204.378906 81.632812 198.417969 87.589844 190.671875 87.589844 Z M 190.671875 87.589844 " fill-opacity="1" fill-rule="evenodd"/><path fill="#000000" d="M 190.671875 92.953125 C 188.886719 92.953125 187.695312 91.761719 187.695312 89.972656 L 187.695312 84.609375 C 187.695312 83.417969 188.886719 81.632812 190.671875 81.632812 C 192.460938 81.632812 193.652344 83.417969 193.652344 84.609375 L 193.652344 89.972656 C 193.652344 91.761719 192.460938 92.953125 190.671875 92.953125 Z M 190.671875 46.476562 C 188.886719 46.476562 187.695312 45.285156 187.695312 43.496094 L 187.695312 38.132812 C 187.695312 36.347656 188.886719 35.15625 190.671875 35.15625 C 192.460938 35.15625 193.652344 36.347656 193.652344 38.132812 L 193.652344 43.496094 C 193.652344 45.285156 192.460938 46.476562 190.671875 46.476562 Z M 190.671875 46.476562 " fill-opacity="1" fill-rule="evenodd"/><path fill="#000000" d="M 168.03125 246.085938 C 166.242188 246.085938 165.050781 244.894531 165.050781 243.109375 L 165.050781 234.171875 C 165.050781 230.59375 163.265625 226.425781 159.09375 226.425781 L 157.304688 226.425781 C 155.519531 226.425781 154.324219 225.234375 154.324219 223.445312 C 154.324219 222.253906 155.519531 220.464844 157.304688 220.464844 L 159.09375 220.464844 C 166.242188 220.464844 171.011719 226.425781 171.011719 234.171875 L 171.011719 243.109375 C 171.011719 244.894531 169.816406 246.085938 168.03125 246.085938 Z M 96.527344 246.085938 C 94.742188 246.085938 93.550781 244.894531 93.550781 243.109375 L 93.550781 234.171875 C 93.550781 226.425781 98.316406 220.464844 105.464844 220.464844 L 107.253906 220.464844 C 109.042969 220.464844 110.234375 222.253906 110.234375 223.445312 C 110.234375 225.234375 109.042969 226.425781 107.253906 226.425781 L 105.464844 226.425781 C 101.296875 226.425781 99.507812 230.59375 99.507812 234.171875 L 99.507812 243.109375 C 99.507812 244.894531 97.71875 246.085938 96.527344 246.085938 Z M 96.527344 246.085938 " fill-opacity="1" fill-rule="evenodd"/><path fill="#000000" d="M 110.234375 246.085938 C 109.042969 246.085938 107.847656 245.492188 107.253906 244.300781 C 106.65625 243.109375 106.0625 241.917969 106.0625 241.320312 C 106.0625 240.726562 105.464844 240.128906 104.871094 239.53125 C 103.679688 238.339844 102.488281 237.148438 103.082031 234.765625 C 103.082031 234.171875 103.679688 232.980469 104.871094 231.785156 C 102.488281 229.402344 103.082031 226.425781 103.679688 224.636719 C 107.253906 213.910156 120.363281 209.742188 120.957031 209.742188 C 122.148438 209.144531 123.9375 210.335938 124.535156 211.527344 C 125.128906 213.316406 123.9375 215.101562 122.148438 215.699219 C 122.148438 215.699219 111.425781 218.679688 109.636719 226.425781 C 109.636719 226.425781 109.636719 227.019531 109.042969 227.019531 C 109.042969 227.019531 109.042969 227.617188 109.042969 227.617188 L 110.234375 229.402344 C 110.828125 229.402344 110.828125 229.402344 110.828125 229.402344 C 111.425781 230.59375 112.019531 231.785156 111.425781 232.980469 C 111.425781 234.171875 110.828125 235.363281 109.636719 235.957031 C 110.828125 237.148438 111.425781 238.339844 112.019531 240.128906 C 112.019531 240.128906 112.019531 240.726562 112.617188 241.320312 C 113.210938 243.109375 112.617188 244.894531 111.425781 245.492188 C 110.828125 246.085938 110.234375 246.085938 110.234375 246.085938 Z M 110.234375 246.085938 " fill-opacity="1" fill-rule="evenodd"/><path fill="#000000" d="M 125.726562 246.085938 C 124.535156 246.085938 123.339844 244.894531 122.746094 243.703125 C 119.765625 233.574219 118.574219 225.828125 118.574219 215.699219 L 118.574219 209.144531 C 118.574219 207.355469 119.765625 206.164062 121.554688 206.164062 C 123.339844 206.164062 124.535156 207.355469 124.535156 209.144531 L 124.535156 215.699219 C 124.535156 225.234375 125.726562 232.382812 128.703125 241.917969 C 129.300781 243.703125 128.109375 245.492188 126.320312 246.085938 C 126.320312 246.085938 125.726562 246.085938 125.726562 246.085938 Z M 125.726562 246.085938 " fill-opacity="1" fill-rule="evenodd"/><path fill="#000000" d="M 138.832031 246.085938 C 138.238281 246.085938 138.238281 246.085938 137.640625 246.085938 C 136.449219 245.492188 135.257812 243.703125 135.855469 241.917969 C 138.832031 232.382812 140.027344 225.234375 140.027344 215.699219 L 140.027344 209.144531 C 140.027344 207.355469 141.21875 206.164062 143.003906 206.164062 C 144.195312 206.164062 145.984375 207.355469 145.984375 209.144531 L 145.984375 215.699219 C 145.984375 225.828125 144.792969 233.574219 141.21875 243.703125 C 141.21875 244.894531 140.027344 246.085938 138.832031 246.085938 Z M 138.832031 246.085938 " fill-opacity="1" fill-rule="evenodd"/><path fill="#000000" d="M 137.046875 213.316406 L 127.511719 213.316406 C 116.789062 213.316406 112.617188 203.78125 109.636719 196.632812 C 109.042969 195.441406 110.234375 193.652344 111.425781 193.054688 C 113.210938 192.460938 115 193.054688 115.59375 194.84375 C 118.574219 203.78125 122.148438 207.355469 127.511719 207.355469 L 137.046875 207.355469 C 142.410156 207.355469 145.984375 203.78125 148.964844 194.84375 C 149.558594 193.054688 151.347656 192.460938 152.539062 193.054688 C 154.324219 193.652344 154.921875 195.441406 154.324219 196.632812 C 151.941406 203.78125 147.773438 213.316406 137.046875 213.316406 Z M 137.046875 213.316406 " fill-opacity="1" fill-rule="evenodd"/><path fill="#000000" d="M 151.941406 199.015625 C 151.347656 199.015625 150.75 198.417969 150.15625 198.417969 C 148.964844 197.226562 148.367188 195.441406 148.964844 194.25 C 153.132812 188.886719 152.539062 187.097656 151.941406 184.714844 C 151.347656 182.925781 150.75 181.140625 150.75 179.351562 C 148.964844 179.351562 147.773438 179.351562 146.578125 178.757812 C 145.386719 178.160156 144.195312 176.96875 144.792969 173.988281 C 144.792969 173.988281 144.792969 173.394531 144.792969 173.394531 C 144.195312 173.394531 143.601562 173.394531 143.003906 172.796875 L 141.8125 172.796875 C 131.683594 168.625 126.320312 171.605469 124.535156 173.394531 C 123.9375 173.988281 123.9375 173.988281 123.9375 173.988281 C 122.746094 175.777344 120.363281 177.5625 117.980469 176.96875 C 117.980469 177.5625 117.382812 177.5625 117.382812 178.160156 C 117.382812 179.949219 117.382812 182.332031 115 183.523438 C 113.808594 184.117188 112.617188 184.117188 110.828125 183.523438 C 111.425781 186.503906 113.210938 191.269531 115 194.25 C 116.191406 195.441406 115.59375 197.226562 114.402344 198.417969 C 112.617188 199.015625 110.828125 199.015625 110.234375 197.226562 C 109.042969 196.035156 101.890625 184.117188 106.65625 177.5625 C 107.847656 176.371094 109.636719 175.777344 110.828125 176.371094 C 111.425781 176.96875 111.425781 176.96875 112.019531 176.96875 C 112.019531 174.585938 112.617188 171.011719 116.191406 169.222656 C 116.789062 169.222656 117.980469 169.222656 118.574219 169.816406 C 119.171875 169.816406 119.171875 169.816406 119.171875 169.816406 C 119.765625 169.816406 119.765625 169.222656 120.363281 169.222656 C 123.339844 166.242188 130.492188 162.070312 144.195312 166.839844 L 144.792969 167.433594 C 147.175781 168.03125 150.15625 169.222656 150.75 172.796875 C 151.347656 172.796875 153.132812 172.796875 154.324219 173.988281 C 155.519531 174.585938 156.710938 175.777344 156.710938 178.757812 C 156.710938 180.542969 157.304688 181.734375 157.304688 182.925781 C 158.496094 187.097656 159.09375 190.078125 154.324219 197.226562 C 153.730469 198.417969 152.539062 199.015625 151.941406 199.015625 Z M 151.941406 199.015625 " fill-opacity="1" fill-rule="evenodd"/><path fill="#000000" d="M 151.941406 199.015625 C 151.347656 199.015625 151.347656 199.015625 151.347656 199.015625 C 149.558594 198.417969 148.367188 196.632812 148.964844 195.441406 C 148.964844 194.25 147.773438 193.652344 146.578125 191.863281 C 145.984375 191.269531 144.792969 190.078125 144.195312 188.886719 C 142.410156 188.886719 140.621094 188.886719 138.238281 188.886719 C 130.492188 188.886719 118.574219 188.886719 115.59375 192.460938 C 115 192.460938 115 193.054688 115 194.25 C 115.59375 196.035156 114.402344 197.824219 112.617188 197.824219 C 110.828125 198.417969 109.636719 197.226562 109.042969 195.441406 C 108.445312 192.460938 109.042969 190.078125 110.828125 188.289062 C 115.59375 182.925781 128.109375 182.925781 138.238281 182.925781 C 141.8125 182.925781 145.386719 182.925781 147.175781 182.925781 C 148.367188 182.332031 149.558594 182.925781 150.15625 184.714844 C 150.75 185.308594 150.75 186.503906 150.15625 187.097656 C 150.15625 187.695312 150.75 187.695312 150.75 187.695312 C 152.539062 189.480469 155.519531 192.460938 154.921875 196.632812 C 154.324219 197.824219 153.132812 199.015625 151.941406 199.015625 Z M 151.941406 199.015625 " fill-opacity="1" fill-rule="evenodd"/><path fill="#000000" d="M 154.324219 246.085938 C 153.730469 246.085938 153.730469 246.085938 153.132812 245.492188 C 151.347656 244.894531 150.75 243.109375 151.941406 241.320312 C 152.539062 240.726562 152.539062 240.128906 152.539062 240.128906 C 152.539062 238.339844 153.730469 237.148438 154.921875 235.957031 C 153.730469 235.363281 153.132812 234.171875 153.132812 232.980469 C 152.539062 231.785156 153.132812 230.59375 153.730469 229.402344 L 155.519531 227.617188 C 155.519531 227.617188 154.921875 227.019531 154.921875 227.019531 C 154.921875 227.019531 154.921875 226.425781 154.921875 226.425781 C 152.539062 218.679688 141.8125 215.699219 141.8125 215.699219 C 140.027344 215.101562 139.429688 213.316406 140.027344 211.527344 C 140.621094 210.335938 141.8125 209.144531 143.601562 209.742188 C 144.195312 209.742188 157.304688 213.910156 160.878906 224.636719 C 161.476562 226.425781 161.476562 229.402344 159.6875 231.785156 C 160.878906 232.980469 161.476562 234.171875 161.476562 234.765625 C 162.070312 237.148438 160.285156 238.339844 159.6875 239.53125 C 159.09375 240.128906 158.496094 240.726562 158.496094 241.320312 C 158.496094 241.917969 157.902344 243.109375 157.304688 244.300781 C 156.710938 245.492188 155.519531 246.085938 154.324219 246.085938 Z M 154.324219 246.085938 " fill-opacity="1" fill-rule="evenodd"/><path fill="#000000" d="M 116.191406 159.6875 L 101.890625 159.6875 C 98.910156 159.6875 96.527344 157.304688 96.527344 154.324219 L 96.527344 138.832031 C 96.527344 136.449219 98.910156 134.066406 101.890625 134.066406 L 116.191406 134.066406 C 119.171875 134.066406 121.554688 136.449219 121.554688 138.832031 L 121.554688 154.324219 C 121.554688 157.304688 119.171875 159.6875 116.191406 159.6875 Z M 102.488281 153.730469 L 115.59375 153.730469 L 115.59375 140.027344 L 102.488281 140.027344 Z M 102.488281 153.730469 " fill-opacity="1" fill-rule="evenodd"/><path fill="#000000" d="M 162.667969 159.6875 L 148.367188 159.6875 C 145.386719 159.6875 143.003906 157.304688 143.003906 154.324219 L 143.003906 138.832031 C 143.003906 136.449219 145.386719 134.066406 148.367188 134.066406 L 162.667969 134.066406 C 165.648438 134.066406 168.03125 136.449219 168.03125 138.832031 L 168.03125 154.324219 C 168.03125 157.304688 165.648438 159.6875 162.667969 159.6875 Z M 148.964844 153.730469 L 162.070312 153.730469 L 162.070312 140.027344 L 148.964844 140.027344 Z M 148.964844 153.730469 " fill-opacity="1" fill-rule="evenodd"/></svg>