<svg xmlns="http://www.w3.org/2000/svg" xmlns:xlink="http://www.w3.org/1999/xlink" width="120" zoomAndPan="magnify" viewBox="0 0 90 89.999999" height="120" preserveAspectRatio="xMidYMid meet" version="1.0"><defs><clipPath id="4c7c1abb2d"><path d="M 0 0 L 89.25 0 L 89.25 89.25 L 0 89.25 Z M 0 0 " clip-rule="nonzero"/></clipPath><clipPath id="fd2d8e3fc0"><path d="M 0 0 L 89.25 0 L 89.25 89.25 L 0 89.25 Z M 0 0 " clip-rule="nonzero"/></clipPath></defs><g clip-path="url(#4c7c1abb2d)"><path fill="#d6a045" d="M 44.832031 -0.0078125 C 20.300781 -0.0078125 0.4375 19.5625 0.0976562 44.09375 C 0 50.964844 1.453125 57.484375 4.128906 63.328125 C 5.699219 66.761719 5.9375 70.65625 4.8125 74.261719 L 0.699219 87.429688 L 15.722656 84.054688 C 19.082031 83.300781 22.589844 83.710938 25.703125 85.1875 C 31.667969 88.015625 38.359375 89.5625 45.421875 89.46875 C 69.972656 89.15625 89.574219 69.289062 89.574219 44.734375 C 89.574219 20.023438 69.542969 -0.0078125 44.832031 -0.0078125 Z M 44.832031 -0.0078125 " fill-opacity="1" fill-rule="nonzero"/></g><path fill="#000000" d="M 65.1875 66.5625 C 66.347656 64.707031 67.132812 62.722656 67.519531 60.609375 C 67.636719 59.957031 67.425781 59.289062 66.960938 58.820312 L 61.679688 53.539062 C 60.765625 52.628906 59.492188 52.179688 58.214844 52.316406 C 57.25 52.421875 56.347656 52.851562 55.664062 53.539062 L 54.042969 55.160156 C 53.320312 55.882812 52.25 56.113281 51.292969 55.773438 C 47.035156 54.25 41.144531 48.421875 41.144531 48.421875 C 41.144531 48.421875 35.316406 42.53125 33.792969 38.273438 C 33.453125 37.316406 33.683594 36.246094 34.40625 35.523438 L 36.027344 33.902344 C 36.714844 33.21875 37.144531 32.316406 37.25 31.351562 C 37.386719 30.074219 36.9375 28.800781 36.027344 27.886719 L 30.746094 22.605469 C 30.277344 22.140625 29.609375 21.929688 28.957031 22.046875 C 26.84375 22.433594 24.859375 23.21875 23.003906 24.378906 C 22.316406 24.808594 21.863281 25.519531 21.742188 26.320312 C 21.167969 30.144531 20.730469 42.125 34.085938 55.480469 C 47.441406 68.835938 59.421875 68.398438 63.246094 67.824219 C 64.046875 67.703125 64.757812 67.25 65.1875 66.5625 Z M 65.1875 66.5625 " fill-opacity="1" fill-rule="nonzero"/><g clip-path="url(#fd2d8e3fc0)"><path fill="#d6a045" d="M 44.832031 -0.0078125 C 20.300781 -0.0078125 0.4375 19.5625 0.0976562 44.09375 C 0 50.964844 1.453125 57.484375 4.128906 63.328125 C 5.699219 66.761719 5.9375 70.65625 4.8125 74.261719 L 0.699219 87.429688 L 15.722656 84.054688 C 19.082031 83.300781 22.589844 83.710938 25.703125 85.1875 C 31.667969 88.015625 38.359375 89.5625 45.421875 89.46875 C 69.972656 89.15625 89.574219 69.289062 89.574219 44.734375 C 89.574219 20.023438 69.542969 -0.0078125 44.832031 -0.0078125 Z M 44.832031 -0.0078125 " fill-opacity="1" fill-rule="nonzero"/></g><path fill="#000000" d="M 65.1875 66.5625 C 66.347656 64.707031 67.132812 62.722656 67.519531 60.609375 C 67.636719 59.957031 67.425781 59.289062 66.960938 58.820312 L 61.679688 53.539062 C 60.765625 52.628906 59.492188 52.179688 58.214844 52.316406 C 57.25 52.421875 56.347656 52.851562 55.664062 53.539062 L 54.042969 55.160156 C 53.320312 55.882812 52.25 56.113281 51.292969 55.773438 C 47.035156 54.25 41.144531 48.421875 41.144531 48.421875 C 41.144531 48.421875 35.316406 42.53125 33.792969 38.273438 C 33.453125 37.316406 33.683594 36.246094 34.40625 35.523438 L 36.027344 33.902344 C 36.714844 33.21875 37.144531 32.316406 37.25 31.351562 C 37.386719 30.074219 36.9375 28.800781 36.027344 27.886719 L 30.746094 22.605469 C 30.277344 22.140625 29.609375 21.929688 28.957031 22.046875 C 26.84375 22.433594 24.859375 23.21875 23.003906 24.378906 C 22.316406 24.808594 21.863281 25.519531 21.742188 26.320312 C 21.167969 30.144531 20.730469 42.125 34.085938 55.480469 C 47.441406 68.835938 59.421875 68.398438 63.246094 67.824219 C 64.046875 67.703125 64.757812 67.25 65.1875 66.5625 Z M 65.1875 66.5625 " fill-opacity="1" fill-rule="nonzero"/></svg>